<mxfile host="app.diagrams.net" modified="2022-09-29T10:18:39.013Z" agent="5.0 (Windows NT 10.0; Win64; x64) AppleWebKit/537.36 (KHTML, like Gecko) Chrome/105.0.0.0 Safari/537.36" etag="-6o7bvbJcAOR9wmxOYcp" version="20.3.7" type="github">
  <diagram id="SVHQvt4RWSrqShIMUm3K" name="Page-1">
    <mxGraphModel dx="2249" dy="804" grid="1" gridSize="10" guides="1" tooltips="1" connect="1" arrows="1" fold="1" page="1" pageScale="1" pageWidth="827" pageHeight="1169" math="0" shadow="0">
      <root>
        <mxCell id="0" />
        <mxCell id="1" parent="0" />
        <mxCell id="JCgtttSXEs-XLeb5AZkn-1" value="" style="rounded=0;html=1;jettySize=auto;orthogonalLoop=1;fontSize=11;endArrow=block;endFill=0;endSize=8;strokeWidth=2;shadow=0;labelBackgroundColor=none;edgeStyle=orthogonalEdgeStyle;" edge="1" parent="1" source="JCgtttSXEs-XLeb5AZkn-2" target="JCgtttSXEs-XLeb5AZkn-5">
          <mxGeometry relative="1" as="geometry" />
        </mxCell>
        <mxCell id="JCgtttSXEs-XLeb5AZkn-2" value="Model:&lt;br&gt;&lt;b&gt;90N&lt;/b&gt; Test" style="rounded=1;whiteSpace=wrap;html=1;fontSize=12;glass=0;strokeWidth=1;shadow=0;fillColor=#e1d5e7;strokeColor=#9673a6;" vertex="1" parent="1">
          <mxGeometry x="20" y="115" width="120" height="40" as="geometry" />
        </mxCell>
        <mxCell id="JCgtttSXEs-XLeb5AZkn-3" value="NO" style="edgeStyle=orthogonalEdgeStyle;rounded=0;html=1;jettySize=auto;orthogonalLoop=1;fontSize=11;endArrow=block;endFill=0;endSize=8;strokeWidth=2;shadow=0;labelBackgroundColor=none;fillColor=#f8cecc;strokeColor=#b85450;" edge="1" parent="1" source="JCgtttSXEs-XLeb5AZkn-5" target="JCgtttSXEs-XLeb5AZkn-6">
          <mxGeometry y="20" relative="1" as="geometry">
            <mxPoint as="offset" />
          </mxGeometry>
        </mxCell>
        <mxCell id="JCgtttSXEs-XLeb5AZkn-4" value="YES" style="edgeStyle=orthogonalEdgeStyle;rounded=0;orthogonalLoop=1;jettySize=auto;html=1;entryX=0;entryY=0.5;entryDx=0;entryDy=0;fillColor=#d5e8d4;strokeColor=#82b366;strokeWidth=2;" edge="1" parent="1" source="JCgtttSXEs-XLeb5AZkn-5" target="JCgtttSXEs-XLeb5AZkn-12">
          <mxGeometry x="-0.1429" y="10" relative="1" as="geometry">
            <mxPoint x="360" y="135" as="targetPoint" />
            <mxPoint as="offset" />
          </mxGeometry>
        </mxCell>
        <mxCell id="JCgtttSXEs-XLeb5AZkn-5" value="Predicts &lt;br&gt;it would pass &lt;br&gt;&lt;b&gt;90N&lt;/b&gt; Test?" style="rhombus;whiteSpace=wrap;html=1;shadow=0;fontFamily=Helvetica;fontSize=12;align=center;strokeWidth=1;spacing=6;spacingTop=-4;fillColor=#e1d5e7;strokeColor=#9673a6;" vertex="1" parent="1">
          <mxGeometry x="160" y="80" width="170" height="110" as="geometry" />
        </mxCell>
        <mxCell id="JCgtttSXEs-XLeb5AZkn-6" value="Revision" style="rounded=1;whiteSpace=wrap;html=1;fontSize=12;glass=0;strokeWidth=1;shadow=0;fillColor=#a0522d;fontColor=#ffffff;strokeColor=#6D1F00;" vertex="1" parent="1">
          <mxGeometry x="185" y="260" width="120" height="40" as="geometry" />
        </mxCell>
        <mxCell id="JCgtttSXEs-XLeb5AZkn-7" value="YES" style="rounded=0;html=1;jettySize=auto;orthogonalLoop=1;fontSize=11;endArrow=block;endFill=0;endSize=8;strokeWidth=2;shadow=0;labelBackgroundColor=none;edgeStyle=orthogonalEdgeStyle;fillColor=#60a917;strokeColor=#2D7600;" edge="1" parent="1" source="JCgtttSXEs-XLeb5AZkn-9" target="JCgtttSXEs-XLeb5AZkn-10">
          <mxGeometry x="0.3333" y="20" relative="1" as="geometry">
            <mxPoint as="offset" />
          </mxGeometry>
        </mxCell>
        <mxCell id="JCgtttSXEs-XLeb5AZkn-8" value="NO" style="edgeStyle=orthogonalEdgeStyle;rounded=0;html=1;jettySize=auto;orthogonalLoop=1;fontSize=11;endArrow=block;endFill=0;endSize=8;strokeWidth=2;shadow=0;labelBackgroundColor=none;entryX=1;entryY=0.5;entryDx=0;entryDy=0;exitX=0.5;exitY=1;exitDx=0;exitDy=0;fillColor=#ffe6cc;strokeColor=#d79b00;" edge="1" parent="1" source="JCgtttSXEs-XLeb5AZkn-9" target="JCgtttSXEs-XLeb5AZkn-6">
          <mxGeometry y="10" relative="1" as="geometry">
            <mxPoint as="offset" />
            <mxPoint x="640" y="440" as="targetPoint" />
          </mxGeometry>
        </mxCell>
        <mxCell id="JCgtttSXEs-XLeb5AZkn-9" value="Predicts&lt;br&gt;&amp;nbsp;it would pass &lt;br&gt;&lt;b&gt;350N &lt;/b&gt;Test?" style="rhombus;whiteSpace=wrap;html=1;shadow=0;fontFamily=Helvetica;fontSize=12;align=center;strokeWidth=1;spacing=6;spacingTop=-4;fillColor=#dae8fc;strokeColor=#6c8ebf;" vertex="1" parent="1">
          <mxGeometry x="550" y="82.5" width="150" height="105" as="geometry" />
        </mxCell>
        <mxCell id="JCgtttSXEs-XLeb5AZkn-10" value="Piece is strongth" style="rounded=1;whiteSpace=wrap;html=1;fontSize=12;glass=0;strokeWidth=1;shadow=0;fillColor=#60a917;strokeColor=#2D7600;fontColor=#ffffff;" vertex="1" parent="1">
          <mxGeometry x="750" y="115" width="120" height="40" as="geometry" />
        </mxCell>
        <mxCell id="JCgtttSXEs-XLeb5AZkn-11" style="edgeStyle=orthogonalEdgeStyle;rounded=0;orthogonalLoop=1;jettySize=auto;html=1;exitX=1;exitY=0.5;exitDx=0;exitDy=0;entryX=0;entryY=0.5;entryDx=0;entryDy=0;strokeWidth=2;" edge="1" parent="1" source="JCgtttSXEs-XLeb5AZkn-12" target="JCgtttSXEs-XLeb5AZkn-9">
          <mxGeometry relative="1" as="geometry" />
        </mxCell>
        <mxCell id="JCgtttSXEs-XLeb5AZkn-12" value="Model:&lt;br&gt;&lt;b&gt;350N&lt;/b&gt; Test" style="rounded=1;whiteSpace=wrap;html=1;fontSize=12;glass=0;strokeWidth=1;shadow=0;fillColor=#dae8fc;strokeColor=#6c8ebf;" vertex="1" parent="1">
          <mxGeometry x="410" y="115" width="120" height="40" as="geometry" />
        </mxCell>
        <mxCell id="JCgtttSXEs-XLeb5AZkn-13" value="" style="rounded=0;html=1;jettySize=auto;orthogonalLoop=1;fontSize=11;endArrow=block;endFill=0;endSize=8;strokeWidth=2;shadow=0;labelBackgroundColor=none;edgeStyle=orthogonalEdgeStyle;" edge="1" parent="1" source="JCgtttSXEs-XLeb5AZkn-14" target="JCgtttSXEs-XLeb5AZkn-17">
          <mxGeometry relative="1" as="geometry" />
        </mxCell>
        <mxCell id="JCgtttSXEs-XLeb5AZkn-14" value="Model:&lt;br&gt;&lt;b&gt;90N&lt;/b&gt; Test" style="rounded=1;whiteSpace=wrap;html=1;fontSize=12;glass=0;strokeWidth=1;shadow=0;fillColor=#e1d5e7;strokeColor=#9673a6;" vertex="1" parent="1">
          <mxGeometry x="10" y="475" width="120" height="40" as="geometry" />
        </mxCell>
        <mxCell id="JCgtttSXEs-XLeb5AZkn-15" value="NO" style="edgeStyle=orthogonalEdgeStyle;rounded=0;html=1;jettySize=auto;orthogonalLoop=1;fontSize=11;endArrow=block;endFill=0;endSize=8;strokeWidth=2;shadow=0;labelBackgroundColor=none;fillColor=#f8cecc;strokeColor=#b85450;" edge="1" parent="1" source="JCgtttSXEs-XLeb5AZkn-17" target="JCgtttSXEs-XLeb5AZkn-18">
          <mxGeometry y="20" relative="1" as="geometry">
            <mxPoint as="offset" />
          </mxGeometry>
        </mxCell>
        <mxCell id="JCgtttSXEs-XLeb5AZkn-16" value="YES" style="edgeStyle=orthogonalEdgeStyle;rounded=0;orthogonalLoop=1;jettySize=auto;html=1;entryX=0;entryY=0.5;entryDx=0;entryDy=0;fillColor=#d5e8d4;strokeColor=#82b366;strokeWidth=2;" edge="1" parent="1" source="JCgtttSXEs-XLeb5AZkn-17" target="JCgtttSXEs-XLeb5AZkn-24">
          <mxGeometry x="-0.1429" y="10" relative="1" as="geometry">
            <mxPoint x="360" y="495" as="targetPoint" />
            <mxPoint as="offset" />
          </mxGeometry>
        </mxCell>
        <mxCell id="JCgtttSXEs-XLeb5AZkn-17" value="Predicts &lt;br&gt;it would pass &lt;br&gt;&lt;b&gt;90N&lt;/b&gt; Test?" style="rhombus;whiteSpace=wrap;html=1;shadow=0;fontFamily=Helvetica;fontSize=12;align=center;strokeWidth=1;spacing=6;spacingTop=-4;fillColor=#e1d5e7;strokeColor=#9673a6;" vertex="1" parent="1">
          <mxGeometry x="160" y="440" width="170" height="110" as="geometry" />
        </mxCell>
        <mxCell id="JCgtttSXEs-XLeb5AZkn-18" value="Revision" style="rounded=1;whiteSpace=wrap;html=1;fontSize=12;glass=0;strokeWidth=1;shadow=0;fillColor=#a0522d;fontColor=#ffffff;strokeColor=#6D1F00;" vertex="1" parent="1">
          <mxGeometry x="185" y="620" width="120" height="40" as="geometry" />
        </mxCell>
        <mxCell id="JCgtttSXEs-XLeb5AZkn-19" value="YES" style="rounded=0;html=1;jettySize=auto;orthogonalLoop=1;fontSize=11;endArrow=block;endFill=0;endSize=8;strokeWidth=2;shadow=0;labelBackgroundColor=none;edgeStyle=orthogonalEdgeStyle;fillColor=#60a917;strokeColor=#2D7600;" edge="1" parent="1" source="JCgtttSXEs-XLeb5AZkn-21" target="JCgtttSXEs-XLeb5AZkn-22">
          <mxGeometry x="0.3333" y="20" relative="1" as="geometry">
            <mxPoint as="offset" />
          </mxGeometry>
        </mxCell>
        <mxCell id="JCgtttSXEs-XLeb5AZkn-20" value="NO" style="edgeStyle=orthogonalEdgeStyle;rounded=0;html=1;jettySize=auto;orthogonalLoop=1;fontSize=11;endArrow=block;endFill=0;endSize=8;strokeWidth=2;shadow=0;labelBackgroundColor=none;entryX=1;entryY=0.5;entryDx=0;entryDy=0;exitX=0.5;exitY=1;exitDx=0;exitDy=0;fillColor=#ffe6cc;strokeColor=#d79b00;" edge="1" parent="1" source="JCgtttSXEs-XLeb5AZkn-21" target="JCgtttSXEs-XLeb5AZkn-18">
          <mxGeometry y="10" relative="1" as="geometry">
            <mxPoint as="offset" />
            <mxPoint x="640" y="800" as="targetPoint" />
          </mxGeometry>
        </mxCell>
        <mxCell id="JCgtttSXEs-XLeb5AZkn-21" value="Predicts&lt;br&gt;&amp;nbsp;it would pass &lt;br&gt;&lt;b&gt;350N &lt;/b&gt;Test?" style="rhombus;whiteSpace=wrap;html=1;shadow=0;fontFamily=Helvetica;fontSize=12;align=center;strokeWidth=1;spacing=6;spacingTop=-4;fillColor=#dae8fc;strokeColor=#6c8ebf;" vertex="1" parent="1">
          <mxGeometry x="550" y="442.5" width="150" height="105" as="geometry" />
        </mxCell>
        <mxCell id="JCgtttSXEs-XLeb5AZkn-22" value="Piece is strong" style="rounded=1;whiteSpace=wrap;html=1;fontSize=12;glass=0;strokeWidth=1;shadow=0;fillColor=#60a917;strokeColor=#2D7600;fontColor=#ffffff;" vertex="1" parent="1">
          <mxGeometry x="750" y="475" width="120" height="40" as="geometry" />
        </mxCell>
        <mxCell id="JCgtttSXEs-XLeb5AZkn-23" style="edgeStyle=orthogonalEdgeStyle;rounded=0;orthogonalLoop=1;jettySize=auto;html=1;exitX=1;exitY=0.5;exitDx=0;exitDy=0;entryX=0;entryY=0.5;entryDx=0;entryDy=0;strokeWidth=2;" edge="1" parent="1" source="JCgtttSXEs-XLeb5AZkn-24" target="JCgtttSXEs-XLeb5AZkn-21">
          <mxGeometry relative="1" as="geometry" />
        </mxCell>
        <mxCell id="JCgtttSXEs-XLeb5AZkn-24" value="Model:&lt;br&gt;&lt;b&gt;350N&lt;/b&gt; Test" style="rounded=1;whiteSpace=wrap;html=1;fontSize=12;glass=0;strokeWidth=1;shadow=0;fillColor=#dae8fc;strokeColor=#6c8ebf;" vertex="1" parent="1">
          <mxGeometry x="410" y="475" width="120" height="40" as="geometry" />
        </mxCell>
        <mxCell id="JCgtttSXEs-XLeb5AZkn-25" value="Chained model emulating pull test flow" style="text;strokeColor=none;fillColor=none;html=1;fontSize=24;fontStyle=1;verticalAlign=middle;align=center;" vertex="1" parent="1">
          <mxGeometry x="195" y="10" width="100" height="40" as="geometry" />
        </mxCell>
        <mxCell id="JCgtttSXEs-XLeb5AZkn-26" value="Chained model emulating pull test flow: Data test split" style="text;strokeColor=none;fillColor=none;html=1;fontSize=24;fontStyle=1;verticalAlign=middle;align=center;" vertex="1" parent="1">
          <mxGeometry x="270" y="380" width="100" height="40" as="geometry" />
        </mxCell>
        <mxCell id="JCgtttSXEs-XLeb5AZkn-27" value="" style="rounded=0;html=1;jettySize=auto;orthogonalLoop=1;fontSize=11;endArrow=block;endFill=0;endSize=8;strokeWidth=2;shadow=0;labelBackgroundColor=none;edgeStyle=orthogonalEdgeStyle;exitX=1;exitY=0.5;exitDx=0;exitDy=0;" edge="1" parent="1" source="JCgtttSXEs-XLeb5AZkn-56" target="JCgtttSXEs-XLeb5AZkn-30">
          <mxGeometry relative="1" as="geometry">
            <mxPoint x="130" y="855" as="sourcePoint" />
          </mxGeometry>
        </mxCell>
        <mxCell id="JCgtttSXEs-XLeb5AZkn-28" value="NO" style="edgeStyle=orthogonalEdgeStyle;rounded=0;html=1;jettySize=auto;orthogonalLoop=1;fontSize=11;endArrow=block;endFill=0;endSize=8;strokeWidth=2;shadow=0;labelBackgroundColor=none;fillColor=#f8cecc;strokeColor=#b85450;" edge="1" parent="1" source="JCgtttSXEs-XLeb5AZkn-30" target="JCgtttSXEs-XLeb5AZkn-32">
          <mxGeometry y="20" relative="1" as="geometry">
            <mxPoint as="offset" />
          </mxGeometry>
        </mxCell>
        <mxCell id="JCgtttSXEs-XLeb5AZkn-29" value="YES" style="edgeStyle=orthogonalEdgeStyle;rounded=0;orthogonalLoop=1;jettySize=auto;html=1;entryX=0;entryY=0.5;entryDx=0;entryDy=0;fillColor=#d5e8d4;strokeColor=#82b366;strokeWidth=2;" edge="1" parent="1" source="JCgtttSXEs-XLeb5AZkn-30" target="JCgtttSXEs-XLeb5AZkn-33">
          <mxGeometry x="-0.1429" y="10" relative="1" as="geometry">
            <mxPoint x="410" y="855" as="targetPoint" />
            <mxPoint as="offset" />
          </mxGeometry>
        </mxCell>
        <mxCell id="JCgtttSXEs-XLeb5AZkn-30" value="Predicts &lt;br&gt;it would pass &lt;br&gt;&lt;b&gt;90N&lt;/b&gt; Test?" style="rhombus;whiteSpace=wrap;html=1;shadow=0;fontFamily=Helvetica;fontSize=12;align=center;strokeWidth=1;spacing=6;spacingTop=-4;fillColor=#e1d5e7;strokeColor=#9673a6;" vertex="1" parent="1">
          <mxGeometry x="230" y="800" width="170" height="110" as="geometry" />
        </mxCell>
        <mxCell id="JCgtttSXEs-XLeb5AZkn-31" value="" style="edgeStyle=orthogonalEdgeStyle;rounded=0;orthogonalLoop=1;jettySize=auto;html=1;strokeWidth=2;" edge="1" parent="1" source="JCgtttSXEs-XLeb5AZkn-32" target="JCgtttSXEs-XLeb5AZkn-54">
          <mxGeometry relative="1" as="geometry" />
        </mxCell>
        <mxCell id="JCgtttSXEs-XLeb5AZkn-32" value="90N Real Test" style="rounded=1;whiteSpace=wrap;html=1;fontSize=12;glass=0;strokeWidth=1;shadow=0;fillColor=#d80073;fontColor=#ffffff;strokeColor=#A50040;" vertex="1" parent="1">
          <mxGeometry x="255" y="980" width="120" height="40" as="geometry" />
        </mxCell>
        <mxCell id="JCgtttSXEs-XLeb5AZkn-33" value="&lt;b&gt;Piece is not very weak&lt;/b&gt;" style="rounded=1;whiteSpace=wrap;html=1;fontSize=12;glass=0;strokeWidth=1;shadow=0;fillColor=#DAE631;strokeColor=#2D7600;fontColor=#ffffff;" vertex="1" parent="1">
          <mxGeometry x="550" y="835" width="120" height="40" as="geometry" />
        </mxCell>
        <mxCell id="JCgtttSXEs-XLeb5AZkn-34" value="&amp;nbsp;90N Test: Single Model" style="text;strokeColor=none;fillColor=none;html=1;fontSize=24;fontStyle=1;verticalAlign=middle;align=center;" vertex="1" parent="1">
          <mxGeometry x="95" y="740" width="100" height="40" as="geometry" />
        </mxCell>
        <mxCell id="JCgtttSXEs-XLeb5AZkn-35" value="" style="edgeStyle=orthogonalEdgeStyle;rounded=0;orthogonalLoop=1;jettySize=auto;html=1;strokeWidth=2;" edge="1" parent="1" source="JCgtttSXEs-XLeb5AZkn-36" target="JCgtttSXEs-XLeb5AZkn-51">
          <mxGeometry relative="1" as="geometry" />
        </mxCell>
        <mxCell id="JCgtttSXEs-XLeb5AZkn-36" value="90N Real Test" style="rounded=1;whiteSpace=wrap;html=1;fontSize=12;glass=0;strokeWidth=1;shadow=0;fillColor=#d80073;fontColor=#ffffff;strokeColor=#A50040;" vertex="1" parent="1">
          <mxGeometry x="255" y="1430" width="120" height="40" as="geometry" />
        </mxCell>
        <mxCell id="JCgtttSXEs-XLeb5AZkn-37" value="YES" style="rounded=0;html=1;jettySize=auto;orthogonalLoop=1;fontSize=11;endArrow=block;endFill=0;endSize=8;strokeWidth=2;shadow=0;labelBackgroundColor=none;edgeStyle=orthogonalEdgeStyle;fillColor=#60a917;strokeColor=#2D7600;" edge="1" parent="1" source="JCgtttSXEs-XLeb5AZkn-39" target="JCgtttSXEs-XLeb5AZkn-40">
          <mxGeometry x="0.3333" y="20" relative="1" as="geometry">
            <mxPoint as="offset" />
          </mxGeometry>
        </mxCell>
        <mxCell id="JCgtttSXEs-XLeb5AZkn-38" value="NO" style="edgeStyle=orthogonalEdgeStyle;rounded=0;html=1;jettySize=auto;orthogonalLoop=1;fontSize=11;endArrow=block;endFill=0;endSize=8;strokeWidth=2;shadow=0;labelBackgroundColor=none;entryX=0.5;entryY=0;entryDx=0;entryDy=0;exitX=0.5;exitY=1;exitDx=0;exitDy=0;fillColor=#ffe6cc;strokeColor=#d79b00;" edge="1" parent="1" source="JCgtttSXEs-XLeb5AZkn-39" target="JCgtttSXEs-XLeb5AZkn-36">
          <mxGeometry y="10" relative="1" as="geometry">
            <mxPoint as="offset" />
            <mxPoint x="530" y="1550" as="targetPoint" />
          </mxGeometry>
        </mxCell>
        <mxCell id="JCgtttSXEs-XLeb5AZkn-39" value="Predicts&lt;br&gt;&amp;nbsp;it would pass &lt;br&gt;&lt;b&gt;350N &lt;/b&gt;Test?" style="rhombus;whiteSpace=wrap;html=1;shadow=0;fontFamily=Helvetica;fontSize=12;align=center;strokeWidth=1;spacing=6;spacingTop=-4;fillColor=#dae8fc;strokeColor=#6c8ebf;" vertex="1" parent="1">
          <mxGeometry x="240" y="1192.5" width="150" height="105" as="geometry" />
        </mxCell>
        <mxCell id="JCgtttSXEs-XLeb5AZkn-40" value="&lt;b&gt;Piece is strong&lt;/b&gt;" style="rounded=1;whiteSpace=wrap;html=1;fontSize=12;glass=0;strokeWidth=1;shadow=0;fillColor=#60a917;strokeColor=#2D7600;fontColor=#ffffff;" vertex="1" parent="1">
          <mxGeometry x="550" y="1225" width="120" height="40" as="geometry" />
        </mxCell>
        <mxCell id="JCgtttSXEs-XLeb5AZkn-41" style="edgeStyle=orthogonalEdgeStyle;rounded=0;orthogonalLoop=1;jettySize=auto;html=1;exitX=1;exitY=0.5;exitDx=0;exitDy=0;entryX=0;entryY=0.5;entryDx=0;entryDy=0;strokeWidth=2;" edge="1" parent="1" source="JCgtttSXEs-XLeb5AZkn-42" target="JCgtttSXEs-XLeb5AZkn-39">
          <mxGeometry relative="1" as="geometry" />
        </mxCell>
        <mxCell id="JCgtttSXEs-XLeb5AZkn-42" value="&lt;blockquote style=&quot;margin: 0 0 0 40px; border: none; padding: 0px;&quot;&gt;Model:&lt;br&gt;&lt;b&gt;350N&lt;/b&gt; Test&lt;/blockquote&gt;" style="rounded=1;whiteSpace=wrap;html=1;fontSize=12;glass=0;strokeWidth=1;shadow=0;fillColor=#dae8fc;strokeColor=#6c8ebf;image=data:image/png,iVBORw0KGgoAAAANSUhEUgAAAgAAAAIACAYAAAD0eNT6AAAABHNCSVQICAgIfAhkiAAAAAlwSFlzAAAOxAAADsQBlSsOGwAAABl0RVh0U29mdHdhcmUAd3d3Lmlua3NjYXBlLm9yZ5vuPBoAACAASURBVHic7J13mGVFscB/szObM8suYVlYclgyCI+ck+SogAoiggiCgIggIqCogAoIEhQFiY8sSUCQnCUucYkLLHGBzXl25v1RM2+HYe6de29Vd59zbv2+rz4+3Tl9qvuc212nu0IDjuNoaABGAysCqwDLAiOBRYBFgcFtfzcUmA9MBVqAz4BPgQlt8mKbvALMjaZ9XIYAKwFj2v67BAvGahjQAxgENAKT2q6ZDHyMjNUHwFvIGL0GvAu0xlPfcYpFQ2oFHCdnNAEbAZsAG7TJUMP25yGL2+PAXcB/EKMhjwwHtgM2RsZrZWznnC+QcXoCeAh4DGg2bN9xHMepcwYDBwDXIV+krRFlLvAA8FPkaznrLA4cDTyILMYxx2oS8oy+w4KdF8dxHMepiiZgF2RBmUXchayUNAN3AHsCvcJ1vWp6AF8H/onsYKQep1bkmV2HPMOmcF13HMdxisIg4BhgPOkXsXLyKfAL0n7p9kS+tl8h/XiUk/HIrsSgIKPgOI7j5JrFgd8DU0i/YFUjXwAnE9cQaAC+Cbxj2I8YMhk4C1jMfkgcx3GcvDEQOA2YTvoFSiOTgKMQD/qQrA08nLivWpkOnAoMMB4bx3EcJwc0AYchIWapFyRLeRpYx3Cc2ukFnE52zvgt5CPgUNxHwHEcp25YA3iW9AtQKGkGzgb6Go3XqsALGehXKHkGWN1orBzHcZwM0hM4HphD+kUnhjyHJCbSsA/5Px6pROYBvyNb0RWO4ziOAasDY0m/0MSWSUgoXLX0QBbElgz0IaY8j+x4OI7jOAVgf2AG6ReXVNICnFLFePVBYuhT651KpgP7VjFejuM4TsboCZxL+gUlK3Iu3afi7YekH06taxbkHOQdchzHcXLEwkh++NSLSNbkEkqHCvYG7s6AjlmSh5B3yXEcx8kBo8h+drqUciVyxt+RBuCqDOiWRXkFqVzoOI7jZJhlkJKxqReNrMtvOo3bCRnQKcsyHlgBxykQXg7YKRJrA3cCIxLc+3OkLO1YpJzveCStcLtMQpzrFuogiwArAWOA9YClI+t8EHApsDNSyKfzrkAo3kLG6hVgHFLXYBKS1vgLYDZSYnlwB1kaGavVsS/BXCmfANsjkQKO4zhORhiDLMKxvgjnA/cDP2m7t4UxPRIpO3wTcaIW5iDZEEPXP5gH3A58H6m5oKUBWA34GfAocUMVPwNWMeiD4ziOY8CSwPvEWQDeQhae0GfCA5AF8+lI/Qq1WJ5E+OI7yyBhjh9E6td7iJ+J4ziOk5BhxHH4ewrYm/DFdrpiK+CBKnRNLZORCoWxy+/2Br6HHMGE7uPLyLvnOI7jJKAfcpYccqJ/HlmAs8DOwBukX+DLycWkOZ/vSA9gd8IbAo9hV2/BcRzHqYJ/EG5y/ww5H0/xxV+O3sCZiA9C6sW+83jtHrDftdALOJGw/hSXRuuN4ziOA8AhhJvUr0G89LPMZmSnlPFDiANjVlkKuI1w/f9evK44juPUN+sAs7CfyKcBB8brhpolkYp/KRf/W5HwxqzTABxFmEqQs4A143XFcRynPhkKvI39JP4csHzEflgxCDmLTrH430b+cuWvB7yD/Vi8ieQrcBzHcQJxOfaT913AwJidMGYg8DhxF/+ngf4xOheAoYQpeHRpzE44jhbPBOhoaELi4Ucj2feGtEnn92omCzLiTUBi9j+t4X7bIYu1JZcChyLJavLMCCQiIkY2wclIRr73I9wrFL2Bq4E9DNtsBbYF7q3h2kWQ3AIjWZD9sF8X7U9uk0+Ad5HfU3ON+jqO41REP2AbJGf8tUgK13nU/rU0E0mbe3VbmztSPq66P/Zbt7+jWEbwaoTxjegs34zVocA0An/BdmzeovzOyMLATsg7fw3wIrpnNg/5LV6LJKjaGg9NdBzHgBWQiep+JD976IWlBUnqcwmwPzC8gy5nG9/rfJMRyh5HEfYZ3R6vK1FoAM7Bdoz+0KH94cC3gL8Brxrfp5TMBu5DDILlLAbJcZz6YARwPJIAJ8ZkVU7mA08ii3+zYbuXE6/wTWwagIcJ8zzmASvH60o0rEshNwN/RLJHZiFfw7PAcXzZoHYcx/l/1kMmwRhf+inlNsR3ocisQ5iF59KYnYhML+Bu0r+fIWU2YvyuazRmjuPknI0Qx7rUk1MMeZ36CdX6X+zHb/WoPYjPQORrOfV7GkPuANa3GTbHcfLGCsh5buqJKJbMoPgLWEfWxXb87o+rfjKWJXx55CzJTcSJHHEcJwP0B84iTEa0LMsBFoOXMywTBB0SWfeU7EP69zWmzAJ+RT4yOjqOUyObIhnLUk84seVKi8HLIUdiM37zqD8HsgtJ/97Glpdw/wDHKRxNyFd/FjySY8tE6m/xamdxJLRSO4ZPxFY8A/SlPo3lecDPKVZ+DMepW0YQJu1pXuTb+iHMNa+hH8OzomudDbYj/fubSu5AUiY7jpNT1iM7JWNTyAPqEcw/l6Afx92ja50dbib9e5xK3iCfBbIcp+7ZHfF8Tz2JpJRD1aOYfyz8AFaKrnV2WIr6/h19hoQKOwWkqNnQ6p2DgBv4ajGRemNmagUywNvK6+cbtJFn3gUuTq1EQoYhxY12SK2I4zjd8z3q09mvK9lFOZZFYHV0Y5jnin9WjKT4GTK7k9lIwS6nQPgOQLHYH6lu5s9VeDO1AhlgvvJ6LzULHwD/SK1EYnojSYO2Tq2IY4eHehSHrYB/ITnNYzIfKUf6NvAe8CnytTATKbfaBxiChOIt1SajCZ+Pf3rbfbULYN4Zg8R318p4PFMcSIbA1wj33jYj5a7fRX5HE4HJyG9pPnKc1weJ6lkSeSYrIb+xmEwFNkOKhTk5p+hFUeqFVRDrPMbiPwdJC/tYmzwFTKuyjT5I7fq1kHzkWyJGgSUv4ou/Y8dbwEXAEUbtvYOE5z4FPIe8r3OqbGMAEumzYZtsiXyph2QQ8qHxNWRnxHGchAwkTp3xJ4AfAgsF6seywA+AfyPJSLT6XhVIz7wxBt04vhNf5cwyBHiZ2sZxLlJ06xDC7agMBQ4DHq9Rx2rkccIbG47jdMP1hPuRtyBV5cZE640wDH01u99G1jmruAFgy1LAC1T++7kf+C7hDOdSrAxcTViH4Auj9cZxnK/wPcL9uO9EtuhTcXIJvSqVn8ZXOZO4AWBPP+DXyHl4V2P2CXAmUnEzNWsiWf1CzRO7xuuK4zjtLEPpCUgjH5ONcJ8z0PXjh/FVziRuAISjH/JbOQ74DXAUsDHxHfMq4evAR9jPF58gjomO40SiAbgP+x/z7WTnx3wOur58L77KmcQNAKed4cAt2M8b18XshGOHx4vnk32BLQzbawGOBXZGwviyQLUe0Z3x2uaO82UmIlv2RyG/eSv2RgonOY4TmEHAh9hZ7/PIZsW8U9D1y30ABN8BcLpiP2yibdrldTwqIHf4DkD+OA5YzKitucA3gSuM2rNklvL6gSZaOE4xuRopGDbbqL3lkTBex3ECsSiS4c7CYp8P7BZX/ar4Ebr+/S2+ypnEdwCccuyKXajgJ7jhnSt8ByBfnAj0N2rrF8A/jdoKwSfK65cw0cJxis0twM+N2hqBXaZEx3E6MAy7r//ryX4diA3R9dGr2Am+A+BUwhXY7QL0jay74xSeU7H5gb5KPn6go9D3deHoWmcPNwCcSugDvILNHPP9yLo7TqFpwiaJx3wkUUkeaEQqCmr6u0N0rbOHGwBOpayPVCXUzjNjYyvu1Ib7AOSD7REHQC1/Bh4xaCcG85EKaRq8drnjVM6TyByhZTVgHYN2HMfBpuDPBPLnoXsRuj6/FF/lzOE7AE41DED8Z7TzjYUh4Th1z0JIrK72B5nH3PiHou/36tG1zhZuADjVchj6391kpFaC4zgKLH6M75PPLF0rou/7H6JrnS3cAHCqpTfwHvrf3n6xFXeqw30Ass8uBm38Dn1u/RSMA8Yr2/gG2Q95dJwsMQf4rUE7XirYcRT0Qh/7/xn5LozzF/RfImtE1zo7+A6AUwu9kcJg2rnHPzIzjD+cbPM/6DP/XYldvu8U3GHQxtIGbTjFowFYCvFY3xLYBqmyuQ6eSXIOcJWyjWHAWga6OIFoSq2AU5YtDdq41KCNlNwFfIE4Q9ZKLyNdnHwzCPlNbQlshPiYlDOwpwOvIaGz/wHuB2YE1jFLXAr8WNnGNsAzBro4Tt3xMLotuNfjqxyEC9GNw/rxVc4MfgQg+SCuQp9YahrwD2CzuOon5XV0Y3ZvfJUdJ//0QL42ND++M6NrHYaNqH0MJgE946ucGerZANgFeApd/0vJY8DX43UlGWeiG6cpuBOu41TNMugnKYsjhCzQADxNbWPwxwT6Zol6NACWRY6OQiz8neU/wEpxupWELdCP0ajoWjtOztkR3Y9uLsVKxLEV1dct/xhxRKpn6s0AOAKYRZzFv11mUdwyuH0Rh0DN+GwbXWvHyTk/QfejeyK+ysH5KZX3fzqwQRo1M0W9GAD9sUmZrZGbyF+67Up4HN24aB0JnUB4GGB2WUV5/fMmWmSLM4EDgand/N2bSNXDx0Mr5GSCocDdwF6J9dgdeBQYmVgPa7RzycomWjjmuAGQXUYrr3/ZQokM8g/kjPdUZGJqz3A4G3gQ2YodQzENIOerDEOiZTZKrUgbqwEPAYunVsQQbVGtZUy0cJw64ln83K1SBqRWIMMU+QigLxKjn3Lbv5S8hC53RZbYGt1YPB1fZacSfAcguwxVXj/BRIt8MD21Ak50GoBryM6Xf2fGIPoVYY79UHn9EBMtHHOK8HIWlcHK6z8y0cJxssmPyH6xmW2BE1IrYYAbAI4TkR5UH/LWWdy4c6CYRwBjiB/qV6vMA9YMMwzRaABaqH0MmvFkQJnEawFkg57AksBiiAfxkugW8LnID9ZxishF5KfCZRNwMRKSmtffZCsyp/Su8fpGJKz5XWQ3YUKbNJto59SMGwBxaUQKkKyFfBWsAiyPVKuzfBZzuv8Tx8kluyEhnnliPeAbiE9AXplD7QYAfDUt+Vxkd+l14BXguTZ5k/waSo7zJXojhUNORopiTCfOtqMbAE47RToC6IFU50u9rV+LjCXf2+CziTNOU4E7gRMRQ6+e63g4OWRR4PvAzUj1sFQTTmPojjq5oEgGwNcJ81v5GCnucweSQfPTQPfZ0X5IotBIunlsCpLh8SBgeOiOOk4tDEZe0HuQc61UP5aOUpQYZEdHkQyAW7H7fcwCzgbW7uI+Dci2/QXIVrXVPa+3GYboLET6+awVcai8EzgAGBS0x3VCnrekssA6wCHA/kgu8iyxBrLt6NQ3Y9BlcpsEnGGki4YmJPujxc7WfcB3gfcq+NtlgcuBDQ3uOxtx9J1s0FZMVgdeSK1EJ2YDtwF/QY5XHScKPYA9gCdJbxGXk3qoVe50j3YHoGhyMdU73PYCrjS6/55V3jsLbE/651ZOHkfqMHjosxOMBmBfYBzpX/hK5MAgo+DkDTcAFsi91B5t0xvxD9DqcH6N90/Jt0n/7CqR15BoC9/ZdkzZGslnnfoFr0YODzISTt5wA0BkFpJfQ8PKyDm0Ro/nlDqk4AjSP79q5Ckk+spxVKyMlBlN/ULXIllPk+rEwQ0AkT9qB7KNvyv1mEH+tqr3IP3zq0VuA5YLMB5OwemJxKHGin21lvmIs5HjuAEgspZ2INvYwkAX7U5EbEajSwWcUmYAx+Bh0U6FrIm+FG9qudt8VJy84gaAbWGsJvQJvdY11CcW95P+OWrkcWRH13G6pAE4Ftu43xTSTNexzU594gaATP6WvKrUZwtjfWKwEdnJcVKrzAIOtR6YPJO3s6hQDEKSdPye/KeePA7ZwXAcR7COu/9ceX1fEy3i8ihwWmollPRBCkldRj6fgROAMeQ3v3hHmYN46zpOR3wHQCJ4LHlDqc9mxvrE5Hjyv0vaCjyPJHmqa+o9XnJz4BbynVZyKtKHXyOVtRwdiyFntMsiVRqXafv/BiLZHvu1/d1sZEtxFlLmdALwPlLZ7FlgfEyly6DNBFgEvkDyyFtUmeuDZEfUlCNeh3zv0o0BfgHsRPYyoFbDZ0h9hqdSK5KKejYA9gCuRlfi0pJZSN7194EP2v47BSkoNAXZxmzt8PfNyAs8DolNdmpjYSRr4nZIutfRRu1OQhLH3A3chTynFLgBIGwKPGzQzk5IeJmGJZDfeN7ph/xeRvDlBEsNwBCkRsrAtv+OAka2/XdpsrMFPwPYC/mNOnXCoaR1aJmCFLU4GTFElsPDVGIyFEmU9DDx3oM3gVOIv+3oRwAil2oHso0blXpMo74/vEDmuuWQ9L0nI3PhFNK9G3OBbwXtsZMZDiV+TOt8xInmeCTM0Bf7NGwK/C+y25JqsmkBHkQSNcVYCNwAEGkGVlWO5Qbo5w5rf4Si0IgUMDseeIT4H2jzcSOg8OyHPOhYL9VTyJem17FORwOwC1LvPfUi1FleRipJhjQE3ABYIC9Q+5n1YMTHRqvDuTXev94YDvyQuEXX5gG7xeicE59diOO9OhO4EJl4nbRsjeReT73wdCf3EM5IdAPgy3I7ci5dDUORQkIW9/cU3dWzCnABMreGfj9mA9vE6VZ66uUsan3gAXSeu90xDTgHOA+YGPA+TvesguR02CG1IlXwIhIeNsm4Xa0T4CTgDCNdNDQhPhS1VvPryKvAwciuUHdsCfwViQbRMgtYBJkrnOoZjoQ6H031Rlw1zEASH70Q8B5OJBZFPOpDWYzzkBrji8bqkFOSnohT0RzSf2nWIlfaD4l6B+CdADrVys3YjvetwN58dTEZghwXWhcCu8ZsJOqbYchRirYyYzkZjx/d5p7eiPNdqJfkETy/dFZYG7HYUy3eVrK68bgUyQDYhnDj/gmyMzAx4D22tx+SumYVZA4O9bzuJ/+ZYeuaiwjzYkwHjsJTKWeFI8jvV39nOdt4bIpkADSQXyPvOernyDUmPZC5eAZhnps7beaUXQnzQrwALB+xH05pBgLXkn5yt5QnTEeoWAYAyFd06mdUi+wVYjCc/2cFYCz2z62FfPkSOcjZzcfYvwxXkO/Ul0ViNJJ2N/XEbi3vGI4RFM8AAPg36Z9TNfIw/vUfgz7AJdg/v0+QbIdOTrgF2xegBTgmag+ccqyD1HhPPbGHEOt6DkU0AJZHjuFSP6tKZC6wWphhcErwE+yTvd0QtQdOzeyH/Q+4yBmiegHfBG4C3kYKp7wDXIdsW1qEXVmyNRJGlXpiDyU32w0VUEwDAOAQ0j+rSuSnoQbAKcu3sc/7snfUHjhVMwCpymb1wOcghWKKyteQGPFyY/Ay4mGfBbZCqh+mntRDynfNRksoqgEAYqSmfl7l5A586z8lO2LrHPwefgScac7A7mE3A/vEVT8q21G55+wM0tcw3xvJ0pV6Ug8pH7Cg3LAVRTYAemGXoc9axiL5BJy07IZtvoDT46rvVMoK2Fl7LRR7238Zqv+SnoIU60jBj4lbw6EViQm/DDgS8TxfCSkd3KtNp0HAYsC6yFHJr5CqZrWGI7Ug6aqtKbIBAJKmN4T3t0beQN4NJxt8BzufgNl4FFgmuR67H/ApcVWPTq1Oku8jNb1j0YTkAI8xabcg6aIPQ2qW10ofxGC4kspzl7cghkYIim4AgHxpP0TaRb9dnsI9xrPIr7B7xtdG1t3phtWw+0L8J8VO8LMUurF6Dlgogp6LEmd7dypwFja53juzMHAa8HmZ+7+NHMeEoh4MAIC+iNGVcvG/Gj8jzioN2H0ktiBl3Z2McBs2D/ZNwhaZyALfQT9O4wi7DbYtYfI4dJQZyFfB0ID9aKcPsC+ym3E3cBdSOGoXpA56SOrFAGjnYOKHCE4Dvhejc46KQcBb2Dzzf0bW3SnB+tg80GZgw8i6p+AUbMbrM6RSmiULAX/DPoa3s1wDLGGse1apNwMA5JjqcuIs/rchu2pOPtgImeu1z70F8f9xEmO1rfPr2IonwvIsrAW4EBis1KkX8EMk41bIyfojxCu4nqhHA6CdzQmTNbAFCfHbKFpPHEtOx+Y98OqOiVkSmxCPN5Ft2nrgQOwnxAmI89yAKnUZhBTyeTuATp3lPqQWe71RzwZAO2shRy7aY6UJiL/IqnHVd4zphRxjaueUedTPTmImsYr73zG24glZmnBb7JOR6lmbU9qgWhI5D7+GeBn9ziL8WXtWcQNgAY3AesDxyBnua5TOFjcHqTVxE3AskgyryM7B9cZ22Mwt9bJznDn6Ut67ulK5I7biGeAuwi+6zcji8TRSs3ss4jcQY8Fvl/nAj4zGLK+4AVCeJsT3ZBlkrJZBHEPr1WCsJyycxz8FesdW3IFvoH949RrOsTLFz6o3F3lH6h03AByna1bFJnx8j9iKO3Ar+gdXzxWeDiL9Ih1K5gC72w1VrnEDwHFKcxP6+ebG6FrXOcPQp/1tAVaPrXjG+APpF2trmU2YlLp5xQ0AxynNGtjMOTHyiZiTtVKvlbIPC3Ky18r9yLl0PXMcsDhSDrgIfIbk5X8wtSKOk4heiB/DcCQr4UAkTHc2kvxqGuKs+y4wMZGOWeIFZC3YQtFGb2BP4BITjZxuuRO91VZv8eCl6Ik4Qqb+ctfKs3hClq7wHYDi0hdJxnUa8ht+g+rCor8AngD+jpShXjqu+plhd/Tzzy3Rta5T+lJ5kZVS8h7u5duRPtReICgLciX2ZXSLghsAxWIYcDjy1ToL+9/SeOAiYGMkf3490IjsiGjGbToeDRCFHdG/5L+NrnX2aQL+QfrFvNof3UEhBqNAuAGQfxqAnZDcBVYlzyuRt5HdhcXDdzE5v0U/XttE17oOOQ/9g6p3579SNCBJUixyZYeWF/GMbJXgBkB+6QHsjOTSSPlbm4PUVlgxbHeTshr6cTo7utZ1yFj0C4dTnu0RB6HUi3ypyeh0fLutUtwAyCe7IGf6qX9vHaUZKdY1ImC/U/IiuvF5Nr7K9cUg9IkbTo+udT4ZgU2MrKU8gCxoTuW4AZAvlsGuvHkomQQcRfH8qLRFgpqpvh6KUwUW+Zs3jq51vtkfeJ+0E84bFCdUMTZuAOSDBiRtdQjHvlDyJGKwFIWN0Y+JdYl0pwOnoHs4k8hv7oOU9AN+CUwh7gQzDvgO/sw0uAGQfQYD15J+Qa9FpiDFvYpAExIaqRmPn0fXuo7Qpv+9Nb7KhWIQ8BMkjDLUhNKMxDTvSfG2GFPgBkC2WYOwv6dYcg7FqJaoXWPqOb18cN5C93BOiK9yIWkEtkIcgrQWcyuSvOQR4GfAyIj9qAfcAMguWyBZ+VIv3lZyM6XLgOeFE9CNwavxVa4P+qF3ANw8ttJ1QCNSUfFI4GrkXLBc2d/5iCF3K/A7JCPjoOha1w9uAGSTfShmRc77yPfveXN0/Z+HRygFYW10D6YFyYvtxGEAsCjiJLQakmZ0KPWTXSwruAGQPXaiupS9eZP7ye9OwEBkrdD0f7XoWtcB30T3UN6Lr7LjJMcNgGyxPpLBMvUiHVpuIb/Ou1qfjL3iq1wbeXLaWFJ5/csmWjiO49TGCsC/kCp9RWcX4E+plagR7Tn+KBMtIpAnA0Cbj3qciRaO4zjV0xv4X2Ch1IpE5DAkjDdvaA2A3Dgy52mLRrsD4EcAjuOk4mxgrUj3mos42r6BVE6dCvRCdh4WQ3L6D4+kywXAf8mXd/wE5fW52QHIkwGwmPL6D0y0cBzHqY7dka/hULQCjyHn7g8AzyH5NMqxCLAZsDWScyPUzkR/4DpgXaSORx7QGgD1UD0xOq+ic8zwFMBORxqQKIX26ISeadUJhjsBpmUgsqCEcLSbApyBPh1vL2AP4NFAerYCJyl1jMkm6Pr6UnyVi88H6B7KyvFVdjLIDsiX0ky++o7MBJ5HvlhOa/vbvBf3cAMgLb/HfjGdC5wJDAmg7xbIb8Ba55nkp26A9jfjx80BmIbuoSwRX2UnQwyhtipr85Avo+PI59aeGwDpGIMs1pYL6dPAKoH1bgSOxr4w0W2B9bZiFLp+TomvcrHpgT45Qwhr2ckHg4AX0E9gzcDdwK7kJ6GRGwDpsC7w8yfiZplbA3jduA8bRNS/Vgaj62ML+Yqwyzy90b94np6xfrkO20msFRiLJKfK+g/dDYA0LIsYjBbvWguyA5WChYCHKtCxUsnDLkAv9P0sqk9REvrgBoBTGxthv/h3lCeBdaL1pnrcAEjD37Bb/A+JrHtn+gIPYtefWOGQtWKx3rgBYIjFA8lrbmpHh9VEXE6ake3ZfpH6VA1uAMRnGBLyZvFuZcV7fgiy62XRp8viql41/XADIFNYHAFkcXJ2wvMO4Q2AdhkLrBSnWxXjBkB8DsfmfbqNbPmaLIc4uGn7NZ1sR9cMQN/HxuhaFxxt9axh8VV2EtOA3ZdYpTKNbBUDcQMgPk+gf48mIPkpssa3sfmdfDu24lUwHF3fZsdXufhMRfdQlo2vspMBZhDXAGhFzjl/HKNzFeAGQFyWx+Yd2ie24lVwL/r+3R1d68pZAV3fPo+vcm1k3YO5I9OV12fRmnbC826CezYgud9PTHBvJy3bGbTxEBK5klWOQoxcDZshzoVZRBsyPsNEiwjkyQCYpLy+nqpwOQu4M+G9TweOSXh/Jz5bGrTxa4M2QvIycLOyjd5IhE4W0a4VX5hoEYE8GQCfKK/PYxY3R8+fkWxsqfg9cGDC+zvx6AFsqmxjLHCPgS6hOcugDQtjKQTacr7atSoaeTIAPlVeP9pCCSd3vA38IeH9G4CLgfUS6uDEYWX0zsaXWyiCpLM9GrgeeBi4AzGGd8DGQ/1JYJyyjU0M9AjBaOX1uTEA8sQ56BwzLo2vspMRGoEbiO8M2NmZLkU6ancCjMde6Ma6Bf3XZx/E/6Rc9MtLwObK+wCcUuYelchEAx1CcAW6fv0+vsq1kacdgPHK65e2UMLJJfMRr+pTSReiMxq4JNG9nTisqLz+NaTqaa0MAu5HIlB6lfm7Mcgxw8GKe4FEA2hYmGyGdmzsVQAAIABJREFUZ2vXCjeaA7ArdRKa4QRlSeCXwGPIZKvNL1Gt7Bq+i1/CdwDicTm6sb5Ief9bq7xfM7Ct4n696LqsdjWyoeL+IWgAJqPr0w7Rta4DVkM/+XpJYKcreiHx27si23evEM4AGE/crJRuAMRDmy//CMW9a/1AepPyuwXdoa2yua/i3iFYGv1vPGvZQEuSpyOA1xGLVcMaFoo4hWMu8AZwC/ATpN76esA1yPGBJUsBPzVu08kGA5XXv6649sgar1sW2EVxX43OIMcWWUK7RsxFHI9zQZ4MgDnIJK0hy1XbnGzxX2A/YE3Ei9qSo5Ca406x0Oa3r9Uprj86j/qdFNdqo7O0RpM1ayuvH0fasOOqyJMBAPCi8vqshp042aXdY/rn6Heg2hmCFIxxioX2a3Zqjdctga763DKKa6cproXsFQXaXHn9CxZKxCJvBsBY5fUb4GUaneppAX4D7AnMMmrzKPxdLBra+bTW9Lq9lffVXK81irP0G+iLPl+Hdo2KSt4MgCeU1/cH1rVQxKlLbkWcreYYtDUC9xYuGrV+wbdT69fwh8r7akIPtVv42h0ESzZAb0w9aaFILPJoAGgtTotiHU79cg9wkFFbWS6J6lSP1gCoNVHUZ0jkSq08oLhWW2QtSwbA15XXzwOetlAkFnkzAGYgZ7IaYsdhO8XjavQx2wA7k70zUKd2tAbAcopra00hPBNd5UGNzpAtA0C7NryAjGduyJsBADprFcSr27MCOlp+im7rFGS7cWMDXZxsoDUANPHj5wPv13DdGcDHNd6zAX32w1rvbc1q6I2Z+y0UiUkeDYB/G7ThuwCOlmnYlG3dwqANJxtoz+I1WfFmAHtQ3RfoHUjJ6lpZCX3pXG1BISt2N2gjD1Ucc08/JJ+7JlPTM9G1dopIb+AjdO9iaKchzwQYj2PQjfUcxFFZw7rAe93cpwU5wtJkAAQJZdX0dybZ+AhtQDIiavoyC4kicCLwb/TpGlePrrVTRH6P7j2cjkxAoXADIB7boZ+XvmGgR3/gRL6a0no6cCPi7W7Bvej6+ryRHlq2QP/c/hVd6zrmMPQP7I/RtXaKyAbo38VRAfVzAyAeQ5Gva81432as0zBgVSQFtfaLvyNLIGmyNX39q6E+Gq5E/xv+fnSt65hFkHBAzQP7AvfAdvQ0Ic5fmndx64D6uQEQj2GIU5tmvJuR/PxZ53T0i2YWCgGNQLbvNf2YDywaW3ELsnD+UgvTgbeUbQwFDtSr4tQ5zehisEEMWiefNCBbyFcjUSHaZ9lI9otFDUafyrqVbHjNHwn0UbbxBtkKZyws6wDnAp+jtz5bkapNjVF74BSRK9C9h4cF1M13AMKwCHA8Ug3PYi7qKHOBleN1pWrOQt9HbV0XC/ojSZQsntkUJBfD1oT16ak7BgPHEq5Gu4cEOlrOQ/cOhvzicwPAjh6Io98NyCIdYj5ql3vJ5kKyCjZ9/3lsxbvgB4R5di8BR5O9Use5YgRwCnJWH/KHdkOk/jjFRftFdHJA3dwA0LMY8rX/FmHnos7yoxidq4LeSAi1tl8tZCMZ2z2EfX5TkR3rkbE6VASWR7xDtbH+1TykGCwD/BJJvvE0Ev99CVJzXhv766TlQnTv4NEBdXMDoDYakVTNt6J3OK5VZpOt4mXana52eSCy3l3RhORdiPUcLyYfzp3JGAH8mfBba12JNptVOQYhC0S5kJnpSCjKDsiL6eSLm9G9fwcH1M0NgOoYDZwGTCD+PNSVfEQ2vpaPwq5P+0XWvStGEf9ZzgX+BCwcoX+5oR9wEvpQKo0MDtS34cCzVeryCZKfO2RsuGPLy+jev70D6uYGQPf0BPYE7kIf2x5CXkcMk1R8H7txeYNsOF6vTLrnORk4Ac8cyG6kt7S/CNS3HujOmOYjSUGssnY5YRiCfos45DavGwClWQ74HfrY/RjyIbBWmGEoSQ9s4v07ilUpbS3DSP9M30OOmZKRyst0EcRxKgv10K8CvhWg3W8h4WEWPIQ4RN5v1J5jx57oHUkHE84XZQy6EtpzyUbIljW9kAx5WfS0L8VspN7AhRHutTgyf21p2OY7SPXAeYZtangVXQVGK24HDkVfTCoXfJfwnv2VSguwaaB+PhlA338BawTS16mNG9A9U21J4e7Q7gC4ZE/uQV+GtxRNSPRBiDk66dduF5xM+mfZLp8B3wnb3bQMAq4j/UB3FKsv9M4MINxZ4vw2vZcKpLtTOUugj1a5JbCObgAUU+YAf8HOs7wnsgCFyrcS+j2vhX7IrkTqZ9lRrgEGhux0CtZGnD9SD25HeZRw4XerRdB/BpIgyaMG0mERFvXjwDq6AVBsaQbuBPZH/FGqoQeSXfUswvpiTSetE2M5VkR24VI/x47yOrBmyE7H5IfEi+mvROYDZyPWXyhiGADt8jQFellyxGrIWab2+YUuS+0GQP1IM/Bf4HxkG//rwMbIIr8ukqZ2PyTM8Sbs0uB2J1nf2h6FlElO/fw6yixyXmGwEYl5TD2Q7TIO+A3hzs46MpC44UTzgN9iW+7TKY1VRrR3Ce+E5gaAS0r5G/lhDSQEexzpx61d/kAOi/b1R858Ug7cRMTn4BDSbD9VG/9vIU+RjaQhRecSbJ7XbyLourqRri61yRzgWmArJOw5i3kGQskLhN1pDcmiSH6Oi0kfqn4zORrHRZBtqBQD9SGyvb8e6cN7QhWa6E4mAXtE6F890oAs2lbPKkbFty0M9XWpXF4DfoIkA+vIzzKgWwx5h+LkwG9A1pSzkTUmxXg+wVffpcyxCPqsaNXKVODvyPlWFjJMtdMTeJ50P8A/teng2NAP8dC1ej4PR9J7W0OdXcrLLCSl92aU/wCxyqmfVfkEWKFM//NMI7LW/J342WvHkmEjYASSMCTWYHyIJMcZGqFvtbICabOM/ZtwaY7rieWwN+Z2iKT72sZ6u3xVXkaiOSqtKdIDuCwDeoeQz5B3rh4YiNRIGE+88X0VOZ7IFIsQLn60szyBnM3kJfxtRdL4A7TLWGDJ4L0sJoOAU5EvO8tn8nTEPrgTYBiZhfgYbU1tx40NyAdM6n5YygdIdEy90QTsg/hgxRjnF8nQTsAA4ixw45CFP/XZfi20J9mI9YJ09cOsF6vcgpWQqIrPCfM8tovXFTcAjOUF4Aiqj7kvxbFIRtLU/dLKK3gBMxCDMMZO+NNkoIx8I/BPwnZ0InA8xQlxWxn4NXG3jVqR86qNwncvNwxFcsFviXhnHwX8lfAJq7R1A6rFDQC9TEMiP9avcuwrZSfixeSHeqf9qHEBTUj02UeEHffbSbwTfkEXSllJC1L0YlC03sSlAXHQuot4XwBTgQ1jdC6jNCHJNZ4izVfXdOJ/JbkBULs8gxRpiTEHjQIeidw/rcxGdkOcrhkEXETYuea8aL3pxJEVKliLvIVtFaqssyriVTqX8D/aKdRnieHRwHOknTBTlEJ1A6D638dFSPa82DQhu53Tq9A3lTyOFyarlC2Btwn3LA6P1xVhPSTBRYjOXEAGzjYSsQJwPeG/TqcQbjsziyxB+nzfoQpPdYcbAN3LPOTr+yDEpyk1SyKpelOPS1cyEfgeOcxOl5gByI52iGcymxp9vGpxqBuCOP1ZZ5ybjdQNuNS43TyyHvBHwp7ZT0R2At4KeI8s0IBM7imPPl5su//0BPceA7ykuP5DYBcjXbLIF8D7SB79rLEFcBLZ2A2djGw3n4OMmVMb+yG+RtaZ/d5Edq2mGrf7JRoIUzThPeBrIRXPIQ1INsHJhLPmX6Py2OW8shtpv5jGkzYjmnYH4J34Kjud2BC4DTFSYr+/HwInUFxfrBSsSZgjgWtDK354AKUfA4aFVjzHjCRsXYUHKE6ERVfcQPxJs10mIiGFKXEDoDgsjkSrWBSiKiftOQ52Jj/5VvLGMMSPwvrZfTuUwqOwT314P5JNyemewwlXVvkfEfsRm1S5u98HVonQv+5wA6CYrAgchizUn6J7xs1IZMwZwPbUrw9WbPoj2Vot553PqCJJUDU+AP8Edq3i77vjdiR70izDNovOWsg2z/IB2j4U+EuAdlPSgDh4xa4RMQ5J9vNu5Pt2hdYHYDxeYTLrNCCOgysghsHySHbWAR2kGclnMBmYgWxBv95BUvinOFJa/GpsC7hdBnzXsD32xNZKuQXfWqqVQUjuAOsv1lnI2VTRmELcL//byJZfhe8AOE62aQJuxW4OagE2t1JuELYhVI+To9rGGaUJ+Vq3Xrxep3jOPrFKU88DjiN7qardAHCc7NMPW5+AVzHy7TrNUKk3kaqBjg0nYJ8zoGjHACcRfvF/nOzunrgB4Dj5YBiycFvNS+oEQSOwc/ybBCyrVcj5CkdhawS0ICmKi8LChAul/AhJLZzlpChuADhOflgGybNgMT99iHK3/WwjRVqxdXJwvoy1EfAexSrucSC2C//7wI+AvhH7UCtuADhOvtgJu/n8uFqVGAnMNFIiWcGCOuJYbBe5P8dVPzgnoftRzUUcdfYiX3kT3ABwnPxxHjbz+GfU6Nd1vpECLyChDk54/oSdAdBMds+1a2UXJPVxpWPwPpIj4QCqiK3NGG4AOE7+6A2MxWYuP7HUTUp5LA9BJj9tYYwWYBMk258TnkYkX8NORu09DGyGvERFoRfi47AdUiGwD+LnMh0JGRyHREOMQ45C8o7nAXCcfLIe4mCs9TH6EJnr5lV6wdHYWB5F20bOAwOA57HbCdg3rvqOMb4D4Dj55QJs5vF9Kr1hD+ANgxt+hOwkOPFZDjvP9zeBnnHVdwxxA8Bx8stgZC3VzuMPV3rDHQ1u1opBDKKjYhfsPEkPjqy7Y4cbAI6Tb36IzTy+VueGu/IBuAFJ/avhXSQn9RxlO46Oi5Ac/1reQ/KM+/PMH+4D4GSVUcCiyFfuQOT4sgWpVTAdyR3zEXKGXc/0REq3L6Ns509IyHhJBmIT+negUlHHhoHIF5yF9WhhSDjx8R0AJwuMQXJnXIWUM55G5e/gVCSl9xXIzvLKkXXPAt9FP4d/RDeF0fYzuMn47m7iRGUrbI4CXiV7ee6d7nEDwElBI7ADsmhbnGF3lg+REN3tqY/1pgnZWdeO2xblbnKbwQ2ON+muY8nV2PzodoituKPGDQAnJssBZyELtPWiX84YOKvt3kXmZ+jH6qJSjQ9Gzng1jc9Ccq872WIJ5ExN+/L8O7bijho3AJwYrApcjsSax1r4O8t85CN27cB9TcXCyBqrGaOJlNgx2VXZcCtwmWVvHVNOQf98Wyi+lV003ABwQjIauBH7qqTaeep6YMlw3U7GZejHZ/2uGj7XoOGtTLvqWDII+Bz9Mz41tuKOCjcAnBD0RDzKq3Hmiy0zkA+fIqWi3wb9uJzQVcMvKRv9FHFUcLLLL9C/POPJdvlb58u4AeBYsxa2detDy4vIEUURaAQ+QTce93ZudBH0Wzie9jf7DEJia7U/qM0j6+3UjhsAjiXfwa5KbEyZRTcx8DniQvRj8aVS5vsoG2xFtiac7PNH9M/ajb384AaAY0E/JElc6oVcK5eRr3LeXbEd+nH4Ujjg75SNzUFeECf7LIt4y2qe9wQ8J0BecAPA0TIUeIT0i7eV/AfZDc0r/YDZ6MbgJ7DgLHcNpUKPIdtCTvZ5C7hb2cZIYE0DXRzHyTZLIfP7RqkVMWRLxAgYnlqRGpkJPKlsY01YYACsrmzsfuX1TlwuN2hjF4M2HMfJLosjc/tKqRUJwLrAfcjuRh65T3n9/xcGGo5+S8XP//NFP/ThOw9F19qpBT8CcGphIcR7PvV2fWh5kE4OcTlhe3T9bgb69UAmCC0vGrThxGMm8E9lG+sBfQx0cRwnWzQC11Gc0LlybApcQ/5Cm19QXt8IrNwDfbakj9vEyRe3Kq/vDXzNQhHHcTLFGdRXUrddgRNTK1ElHyG5dzQs1YTkidcwVnm9k4Z7kLzdPRVtbINkFxyFvEft9b17IqWI+yDbay3AFGTr6fMOMgFJLPRO2/92HCctOwPHRLzfPOBtpOTvlLb/bwhSm2Y0uvmpGk5BIh0eiHQ/C8YCWyuuX6oJmbQ1+BlhPpmMePdupmjjF21iwWfIttZYpF74I0j5S8dx4jAc+CthQ3wnA7cjC+0jSFRSc4m/7YmELW+ExK3viBgHIWhEqqaugRTMyQPatXcpkIehcSY4SamEk45TSO+EU07eRyIW9sWrTNaKOwE6lXId4X7LDwN7o/Mb6gPshTjuhdLzUoV+sdGmdr8Z4CllIwcG7qQTjm1Jv8hXKs3ID/9wJHW1UxluADiVsDVhfrdPApsE0HcjZAfTWt+WQPqG4EB0fX0C4BVlI9sG7qQTjsHoswKmkGZk52o3vABVd7gB4HRHE/Aytr/RacChhPWubwC+xwL/Iit5kXzMK9rKgC+BbLNqGlkvdC+dIAxHPF/nkH5B18gHwHGI06HzVdwAcLrju9j+Jl8AVoyo/3LAs8Z9ODCi/rXyPxj8tr9QNlLELFFFZkngYqQiVOrF21I+B36JJDBxFuAGgFOOnogjntXv8D7S5NnvD9xRg76l5A3EMTDLrIauj58CzFU2sljoXjomLAyci76IRNZlKhLHnNc839a4AeCU49vY/fZuJ22lvZ7ATV3oVavsG1f9qlkGXf9mgP4MOK+5lOuFnsAhSGhL6sU5pkxC6n9n3YoPjRsATjkex+b39ijZqAjbBwkxtOjT03FVr5qR6Po3F/RnwB6elV22A8aRfjFOKU9T334qbgA4pVgLm9/Yh8CIyLqXYziSZMyibxap8kMxGl3fpvegzQpQkAdvyXpjKBLPehewQmJdUrMO8pVzMe4f4Dgd+ZZBGy3IMYI2La0lE4H9EN20fMegjVBosyTOBb0ToDaToGPLTohFnvrLO4syASn+UU/4DoDTFQ1Ipk3tb+qvsRWvgr9gM2dktVCQ9rf9CUhRAU0jK4fupVMRTUhmvzzG9ceU5rZxqhffADcAnK5YD/1vaRLZdrYdhqQe1vZz7diKV8j66Po1oQfiNa0hS2c/9crSSFasX5JdazUrNCLjdBeeUdCpXyyq/Z1HtvPmfw782aCdLQzaCIF2/prcg7ZtAAVZtgDrgU2B/+Kleatla+B5YOPUijhOAjZTXj8bm8U1NOcgju4asloaWfvx/UkTeucN3wFIxzcRZz9NgY16ZlHgXsQZ6obEumSV4UiRGKdYaPPd347+4xFkR24T5Ct7FOK49x5SrvxJ9I58E4F/Absr2tgY2Vm1cCq0RLv2ftqE/iGOVl7v1MapwMmplQCmA68h4YYfID4lnyIeppPb/qYfkqlrIFJ/YBgSnbASUu4zZfKQ3sD/AoeRbYemVPRHqrg5TkeuNmhjF+Asuo5UOhUpDX4sYqRruBqdATAQMU6yVp58tPL6j0EWEY0jwa1KJZzqaADOJp0T3cvA+cD+yOKtpQlYHgm3uQyx/lP17RcG/ckaWidAF5fOMg8YgI5fIl/U3d1rPlLrQ8NQ9M7RWSx69wC6Pp0A+lSQ4wJ30llAD2xCW6qR+cD9yBfyUuG7CIhBcCTi2xB7cjs3Qv9i4gaAi7U8hY5DarjnAcp7aosF/Uh5/xBoI/j2AVhX2cg8ZBvVCUsDkswm1o98PGIhLhGhb+VYBfgddpm9KpFTo/QsDm4AuFjLRdTOCCTyrNp7TkbncH5ZDffsKH9U3DsEg9E/xzVAzjcq2YopJ+uH7asD/IY4P+5HgV3JXpx8T+Ag4HXijMMP43QrOG4AuFjLsdTOLxT31fg8nai4byvwN8W9Q7A1uv7MB/r1AKYhmeM0bKC83inPMbSd1wTkMeSl2gi4BXlBssQ84O9I4qn9EV+EkJxH2xZZzvG8EI41ExTX7qy4dlfFtR8prgX5UM4S2jX3XWBm++TwSmJlnNLsinjKhuJ9pOzlxsB/At7HivmIV++awNHoE1mVogdwOdmNAa4Ur3/gWDNdce3yimtXVFw7TXEtZM8A0O66vwYLvg60Th0bIWfUji1jgCsI8xXXgkQTrISEwbUGuEdImpEkHysD1wa6R2/geuI5P4agb2oFnMKhKSCnKRncl9qPJrXJgFKGKnemEf1H91OwYGF5XNnYSNocChwzFkK24kNYnm8iGQSPAWYGaD8mHyIJkXYGPgvQ/lDEwNBW3krF56kVcAqHZhHX5J35lNqPJrXzqGbXw5r10O/sPQoLDIDH0H8B7qi83vkyF2ITZ9+ZfyJpgx8N0HZKbkfqmz8SoO31gd8GaDcGeTfwnOwxWHHtE4prNXOWRmfQHyFYsoPy+hY67QBMQryrNbgBYMfB2DugzQd+jGTEmtzN3+aVCUhK0TOwP9I4Bslc5jj1zjKKa69RXKvJPqjRGbJlAHxdef3LwJTO/6c2wcx8JF2io2MFZLvJMmxnKvqXJm8cgEQOWI7jF8CSMTthgIcBuliLZiFuQL4+q73nY+j8zG6t4Z4d5TTFvS1ZGn3YfpdFnHZTNtoK/My2r3XJv7D9sX6CbI3XIzsCM7Adz39G7YEeNwBcrOUddCyL+KZUer9P0DniNrS1oenztxT3t0STR6Fdutyt7w/MUjasDSesd9bG9of6AeIlX89siHy5W47rTlF7oMMNAJcQot0JWxV4u4L7vErXxYKqvZe2v1kpt/4aun7MpIwT593KxlsRD0WnNn6J3Q/0I2C5uOpnlvWxPVZ5m/yE17kB4BJCfoyeAcApdJ3m+23gp9iUOtdmAWwFBhnooWUD9P24vWODTZ1ucAf6qkdHkp3tkrwxxqidKciZ/5tG7eWdJxEHvn9hU7diaSQzYxbKMYdmInB4aiUcc84BFldcv29bGxqmIwbAqchO5VKIL9l49E7pHdGuR28QLuFYNRxp0MYd5f5xJJJgRWNhzMWdAWvlTvQW3hwkxt/5Kt9AXxa0XWaj35qMgXYH4J34KjsRuBz9byAPu72boe/nxdG1/iojkbVV0495wGIdG+2cYe4D4D6loj3xL4Za0STJaOeHwEMG7RSRa4GTjNrqDfzKqC3Hic0DBm381KCN0FjUUNGuiRYcgT4Z2T1UUBPhW+gtpmnAokpl65HD0I37n+KrnDt6YBdpMR9YPa76VeM7AE5XjES/G9ZCtuvAbI7Nb3xEZL07Mxw51tX25RuV3KwftdVr7izna3pcpyxG7ZEYz2Bzvl0PLIwUQbIwAm6MrHu1uAHglOIR9O//02SvdDjI1/JL6Pt3f2zFu+DP6PsxhSocl/9mcMO55OOMNGv8nurHeio+1tWyEXp/l1bkCyHLY+8GgFOKI9G//61I9FLWOB2bvh0UW/FOrID+7L+VKv0YVkOfbagVKWbjVEcfxGu90jFuAfZOomn+sbCsW4ELYiteBW4AOKUYhsSFa9//ZiQFd1bYBhtn35mkD//TZjBsXyNWqfbGFjkBWvHFqRYWQhw2uhvbWXjIpYYhwMfo3/EZbW1lETcAnHJcis08Pwn5cEzNGEQXiz5dFlf1r/BNbPpRNvSvFNsa3Xwi4sTgVEcjcCCSXbHzmM5E8nFnees5L1g4vbaS3cgXNwCccqyFzW5vKxJFVvWXpiHLA+91oVctMh9YKa76X2IYNh8nrcBWtSjQAIw1UuDyWhRw/p+lkRKQewIbo6vH7XyZBmycoZ6PrXiFuAHgdMfN2MzzrUiO/43iqg9Its9Pa9C3lFwbV/2vcCU2/VDNS3sbKdGKfM06ThbZDpt3fI3YileAGwBOd6yJXYKsViQZ2dHoqvdVwxFIYi4r/VOH9+5fQq9aZA+NIg3AE0aKzKJ+q9I52aeWEqWd5fToWnePGwBOJVyC3aLTLvcAKwbUeXngrgB6XxhQ5+5YDbsKpk9hYIRZfR21AuNI71XpOF2xO/r3+63oWnePGwBOJQzHvmpmK7IbcB766oEdGQWci+1Xf7t8Cgw11LUaBiM1EKz6UtPZf1dYWln3AL2sFHMcIxqQ0qPa99uqoJMVbgA4lfI97BfUdpkLXIcU5apl/u/Vdu21iFERSs8DatDNgt7AfyrUsRKpyfO/FMtha239L1+tQ+A4qfkZ+nf7mOhal8cNAKcabiHc4tou05GPypOAvZDz9iWRL++hSFXANRAftF8gIemW5bxLyY3E81voSA/EOLLqR5BCZVaZldrlXGsFHUfJKPTOUP+OrnV53ABwqmEEEs4XerHNmryJbMHHpgFJm2/Zl1NDKNoPGSRLRf+M7wQ42eI+dO/0TLJ1xOUGgFMt/0OY8/WsyixgHZORq45GJEWvZV/GUUXO/2rZEJv86R3lavRlDh3Hiu+if6fXj651adwAcGrB4neQB2lGGSpXI70QfwbLvswHNgmt+B+MlW5FHBZSbL84TmcWQ58ZLUt+AG4AOLXyc9Iv0CGlBfi+2WhVTqWp3quVM2Io3xe7DIEd5XWykUvacbTRAFfFV7kkbgA4GmqpTpoXOc5wnCplXeQ3Zd2X54hYDn4FpAStdSdmAN+O1QnHKYG2SuCL8VUuiRsAjpbjsasXkAVpBn5gOkKVcQjib2Ddn8lIpF5U9jFQvJTchnhkO04K9kL3/s4lO46AbgA4FhwAzCP94q2VOcA3jMemO0YDdyr1LiUtSI2YJJxVgYK1ymTgUNLEZTr1zUj072/KSmIdcQPAsWIb7CrUpZD3kWJqsWgCjiVsDoPfRutNF/QAbupCKUt5EUkI4YaAE4sGYBq693b76Fp3jRsAjiUjCJN/P7TcCywSYDy6ogeyZllkFi0n15OBMPr+wNOEf4CfA/9C0lWOjNIzp555Bt37elh8lbvEDQDHmkbgp8TJzqeVqcSrTNiALPwvRejX4wSM96+WEYS3djpKC/Ao8GPkfMVxrLka3TualcqAbgA4oVgcuJz0i3wpuQ3bIkTlWBW7yrndyYvAwnG6VTkjkWpoKR7068AFiPUV64E7xeYUdO/kRdE17ho3AJzQbA08TPoFv10eBLYI2uMvsy36I8Nq1rpF43SrekYD40nUaV2tAAAgAElEQVT/AnyCJBc6EzgY2BSxVptCddwpHEegewdviK9yl7gB4MRiU6RwT4qQwZa2ewfPhNeJVYi3+L+FcXSc9YI4HvGy/DewsnHb1TAC+HqbdKQVmIjUfJ7eJs3IA+zPgtCtQSyoTLUQ4mgxA3geqWT4j7ZrnOKifb5DTLRwnPzwUJssCeyL+GstH/ie7wHXAH8D3gh8r644GxgQ4T4vAdsBH0a4l5qFgadIvxMQSt5Htr2c4rInunfk4fgqd4nvADipaADWQ1IK34sUytLOvTOQD8wTgK/F60qXrEyc9eZx5EPUnFBb4p8BWwJXALsFukdKlkAiEr6JhEE6xUO7AxAtLafjZJRW5EPwKcQptjewBrBim6yAHM0OAAYiu2YtiOf+VGSH9gPk3Htc239fQBJtZYEYRYRuRJIwzYhwL3N6IA++SGkkO8p0wm9xOWlYH9278XR8lbvEdwAcJwxXEW5taQFOI3D4YugkAi3I9s8dge+Tiv5EqsDkROcT5fUTTbRwHCer9AnY9q3AyYgxEIzQBkAT8Fdgp8D3SckuyDaWU57hwI6IY9A3EO/ZLDMBST5VKy9YKeI4TibRzA/dsSsS2t4Y8B5B6Q/cTvpt+hiyl9GYFZG1gFvo+hjoZeR8K6tpnv9K7e/Eegn07Qo/AnCcMHyX8GvLjYTdaQjCwsCTpF+YY8mxNsNWKPoDf0DCLLsbvzva/j5rLA3Mpvr34V8plC2BGwCOE4YhxMkB8BAwOFKf1AwiTm2ALMkRJiNXHLZHFo5qxvABspmo6WCq68fHZKuUtRsAjhOOXxJnjXmQDOX+L0VfRNHUC3Js2dJi8ApAI1Iiutaoj5Pjq1wRhyOhR93p/zawWiIdS+EGgOOEownJcRBjnbkd6BmnW9XTC9nKTb0Yx5YpZHP7OjYLo/8hTEF2kLLImsj73dWRxlQk7fTQZNqVxg0AxwlLXyRDbIz15ioyUAK4Ky4l/WKcQv5gMXg5ZxXsakDsG1f1qlkY8dA9AjgI2f3JctIfNwAcJw47Aq8Rfs05M1aHKuUwwnZ4IuJUGKvoQqXyLjlyzgjEGkhtBasx/X1c9QuPGwCOE48m4BDgI8KtOy1kKPJsfWrzlK5EJgPHsyAMoi+wA3AO8Gqge1Yqn5K9897YrIvEwlqO68VRe1B83ABwnPgMBH6NpPANsf5MQVIpJ2U4Uo0pRAcfRKpKlWNJYH/gXKRgwqxAunSW+5EQsXpmNcRAsx7bzG1v5Rw3ABwnHSsCzxBmHXqRxP5n13ehlFbmAadQWwaknsDqyPbICYhfwiNIEYlajw/mI0cQzwIXITWv650RVB/mV6nsH7Ef9YAbAI6TliZkTZuP/Xx5jkYxTQa2XYF/am7eBe8hTmCPGbfbTl9k12IQ4rjVhy/HVs5hQcnKScAXyFaLs4A+wH+ADQO0PRNYDPGqd2wYg9QSr5Xx+G5X1umNOOKuCKzU9t+FEf+k/iw4Qp2MFDCbgYSsvopU2XsVqbrnhGVr4EpgEcM2W4CNgCcM2+yWQcD72Foyr5CtBCpO11xCmC//VrywUgh8B6B4NCCppn8G/Bubc+Y3gb8gJc4XjteVumNpZEfact58lciRSBcYd+AxYKGYHXBqYlfCLf4vIXXBHVvcACgOoxCn6DcI9ztsRXJd3AN8B+gXpWf1xaLA89g+s2hJ1FahsvzulcqdeCKdPDAcKZEbYsJ5FVgiXlfqCjcA8s9WyLFbrRk2NfI54s3uuwK2DEFy/Fs9p+mIYVEVtfgA3AjsUcN1XfEM4lQ306g9Jxw3AHsGaPdS4EjkBXbs0foATAA2M9Ili8xGQnqbUyvSBTsDP0dCrVMzAzkiOBOpd+HoGYg4qa9u1N55yFwajHWws0LHY+sM4YRjc+y/LN4GtonYh3pFuwNQD9KCfIwcSzbmpOWBu0k/Ll3JFOAoslm4K48shRhUFs9mDrBMSGXvMlJ0CrBqSEUdMxqA/2I7idyBbIE54XEDoDqZi+x2bUf8nOu9gdMIl1jNUp4H/ifMMNQd67Mg+kwrfw+l5GpGCrYCu4dS0jFnX2wnjt+R0WIWBcUNgNrlHeAkYPGqR716liN/ZdTnIZEI/nvWcyA2z2QuEkptzoVGCl4ZQjknCA3Yplw+Ka76Dm4AWMg8JOfJjtSWoKw79kV2RVP3s1a5C0kO5ui4GZvnYR4RMBCbF/RTxJvcyQfbYzdJ/Cay7o7gBoCtvIdkdbPIWdIA/CoDfbKQt8lAbvqcsziSfE77LD5EsuKa8UMDpVrxrf+8cSc2z/1GfJswFW4AhJH5SKz83tQ22TYiha9S98NSPgc2qGEsnAUchM2z2NtSqScMFHrEUiEnOMtjE/HxFrKD5KRhHdIvDEWXD5BY+UpTJjchRwqp9Q4h0/B6KRoagOfQP4fbrBQaic1CsLmVQk4UTkL/zJuBjWMr7nyJ7Ui/KNSLzEfC9/YCepV5JkX78u8sk4E1y/TfKc9u6J/BbCRlv5rDDZR52EIRJyoWVujF0bV2OrM56ReEepQvkPd/TKfncWIGdIshn+I+ARqeQv8M9rVQ5B4DRbawUMSJxtLon/k0AoWjOFVhGb7rUr20IGl8v4mEeqVI55tKxuHHf7WyC/rxv0GrRH8krlCjxOvoyg478TkK/cv3++haO13hToAuKeUanFpoRNJwa8Z+Gt04qHaXznH97hqogCvalHHyg/bcfj7wZwtFHMepmBak7sMTyIfXm0gO/0lAX6Sy3+LI1vyqwCaEz8j5TeBB4KLA9yka85GcOccr2hgArIUcJ9SE1hGshcC5iZ0gvI/uuZt5oDpqfAeg2DIfuBc4ABhGdTQC6wFnY5ePviuZhWQ6dKpjBfRjf4xGgduVN3fnv/wxCv1L953oWjulcAOgmDIXyfu+Ejb0QmLQxwXS9y4jPesNbXromzU3/0x581M0N3eSsDO6Zz4fWCi61k4p3AAonjzAV6MLrGgCjkZC+az1Nk1OUyf8Bt2Yf1qu8XI+ACOpfkupMw8qr3fiM1p5/atICJRTDJqR9LdFoxEpxZon5iBnwn9CJvcQNCNHAjcgZ9CWSX3+CNyK9MOpjPuBExTXD2+TidVeuC06y2MO4nTi5Iuz0D33y6Jr7JRDuwPwTnyVo7EKsth9Tvqv+u7kY+BrYYahJI3AmQa6d5QfRO1B/umHvjx0TU7dP1be9NFabuok5zp0z11jrTr2uAHQPX2A/ZCvrSzG6b9NWie6I5CjPYu+vINxoZo64BF0Y35wqYbLFWhZVqn0y8rrnTRoqzVOMNHCceIxG7gaSVi2IvLVW/bsNCIfA9sgIX2pOB841qit0Yix5VSOdi0dXeofyhkAiytv+qryeicNvZXXZ2XidJxaeAM5Zx+FOK39G9kVSMFs4OtIQa3UnAOca9TWIUbt1AvjlNcvWuofyhkA2jSu45XXO2koV8SkEuaaaOE4aZmLOMJtBywJ/Ax4N7IORyE1ObLCccBjBu1siNcJqIbxyutrMgBKXlQhnyivd9KgNQDmm2jhONnhA+AM5Bx+VyQ/Suj3/F/AXwLfo1rmIQmHZhu0tb9BG/WCdi1dpNQ/lDMAtEUcfCs4n8xTXh86tajjpKIZCWPbGTlX/SVhdgVmA0cGaNeCNxEfCS37GLRRL2jX0v61XDQTneehdgfBScPd6J77QfFVdsrgUQBh6QFsjUTPaAuntcvZUXtQPf2RRUnbzyViK55TFkcfRdIlpXYAeiChMRpmKa930vC58vqlTLRwnHzQguTi3wfxFdBu185FEuZkmRlIMiItWxq0UQ9oEyf1LfUP5QwAbQlfPwvOJ58pr1/NRAvHyR+z0YfR3oYU47JiAOK7sBiS2MeKvyBHIhrcAKgM7TiXfO6lDIBm9KEvWmcyJw3aM821TbRwnPyxHuX9qirhCgM9BiBRC2ORmvBvAB8iZYGvBzYyuMenyHGhhnUN9KgHtKHZNUVmadMPjlQq7aRhO/Rne8tH19ophfsAxONodGM9E/1kvwEStdDdvS5Ff8x7cAX3KSezsd2VKCpLEOg3XM5a1Z47lAw9cDLNiwZtbG/QhuPkjRWV1z+Obt7dCLiPypK4HYiEM2rS8t6vuBbE2HGfoe7RrqUl36lyBoC2opt7eOaTD9E7AnqMr1OPaLOnPqG4dhCSuKiar/qtgF8p7vkW+hA1rdFUD4xSXl9yPi9nAGgXATcA8ou2kNP6wOoWijhOjhikvP41xbVHU1vo9Y/RLTDaNLUjlNfXA1oDoKRjdzkDQOsN7gZAfrnLoI2jDNpwnDwxWHl9yXjtCvhWjdf1Br6huK+2ToE24Vw9oPWnq2kHQFvVTWu1OOm406CNA/DtPae+0O4ATKnxukXQlQveRHFtrTq34wZA92jX0g9K/UM5A0Br2a2pvN5Jx3j0W3uNwOl6VRwnN2gXs+k1XqfNuqrxXahV53YGKK+vB9ZSXl91JkDQGwBjgKHKNpx0XG3Qxp7AHgbtOE4e0CY/a6rxuhnK+2oWca8eGpYh6HdSazIAXlfetAFJjOHkk79jk83xfDwk1KkPpiqvr/UI4QN04YNvKq7VfsFrdxCKzvrok0uVfL7lGn4FfS6ADZTXO+mYgI0z4GLATegTnDhO1tEuZrUayrOQ+P9auU1xrfb4YZry+qKjXUM/p0YfgLnAS8qbb6i83kmLVT3yDYGL0VuyjpNltDsAmq3eWgsIvQzcobivdnta60RYdLQGwHPl/rG7CfkZ5c03w+vD55nb6OYFqoIDgL/iRoBTXMYrr9cU0roXuLbKa+YBh1H7UV9fdNEHoB+zIjMQ2FTZhmr+/jb6vPDf1SjgJGdH9O9AR7mGMuUpHXO8FkA8foZurDVn8QD9gQcrvNccZH7XsFWF9yon/oFYmm+gH9/dNAosbqCARUx5XhiKVMNbB/3ZWJZ4DFsj4Ek8T0Qs3ACIx+7ofxvLKHXoBZyJLPCl7jEWm4qAvytzj0rkYwMdisy16Ma3BRimVeJVpRLzKHa6x57AIchxSee+jwOOQyzzPLMJ8jJZGgGTkYIksRjWdr8/ISVX/4xUM9PWb886bgDEY0X0v4ufG+kyCjgWuBkpMvQf4EJkR8+iAl8Dsn2v6ev9BnoUlYUQ507N+I61UORspRKtwA8tFMkgOyP5u7vr/xvIrkCeuQBbA6BdHgC+FlDvJYDzkFjpru4/FwlVLOpWpBsA8WgAPkE33uPIh5/MFuh/+6dG1zo//Aj9+P7eQpHNDBR5g2LVfV4TsairGYNJ6DM6pWQg8C5hjIAW4BZgS0N9V0WMltkV6vAaxSxN6gZAXLTbtq0oz20jcSf6fm4WXet80IBE4GnHd2MLZRqBiQbK7G2hTGL6An8AmqltDF6junKdWWN77I8COsuryJfBGlT3JdSAVCD8CeJjUOu9835c0xk3AOLyA/S/gafJ9i7Aeuj7OBPPDVKKXdCP78cYfnRfYqDQ01bKJGJjZHtOOw5HxFbcmN9iv+iXkilIgpPzgJ8C+yOG5N5IWOExSPzzPUhdcot71hpPnVXcAIjLaGyM5IMj610pPajdwO4omuRDRedh9ON7gaVCmxgo1ApsbalUJPoifhDzsRmDJ+Oqb04PJHGIxVhkUaZRLH8ANwDi8xD69/AzJItm1rA4m25FV4K4yGyPzfiub61YJc5u3cnT5MsXYEngKWwXmDnUXvQjKwxEMojFXJhjyi52Q5UcNwDicwg27+EDZGu+XB3Zutf2awqeC6QregDPoh9fbSXXLjnRQLFW8rMFviviuBdigSlCWOQywHvEW5RjyomG45QaNwDiMwR9CFe7nBtZ91IshlSVs+jTJZF1zwsHYTO+x4VQbmHsrD9N/enQNCIJLkI6u2nrhmeF5YD3Cb8gx5bTLAcpMW4ApOFC7N7H1AbpECSlrEVfWpAIHefLLIyNH9MMDJL/lOKvBgq2AleFUlBJX6RyXcjFpWgT6vJI5cCQYxZbDjMdobS4AZCGpZEkaFbv5O/iqv//LIbd4t8K3BhX/dxwHTbje35IJcdg92WctVjXhYBHCL+4BH1AiRiF7SSRWkImJoqNGwDpuALb9/LvxD07/x/sj/nynhAtBN/CZmybgRVCK3u9kbKTECs5C4xGn/K4EpmLvnxmVukP3ED4MQwtr1oPTGLcAEjHClSeiKpSeQFxxgtJT+B4ZL6y1P2GwHrnkeWRMtIW43tlDIXHYBcS9wzpE68sTbxz7JMj9SkVDUguc+uJI6bsaj4qaXEDIC2/xv4dnYekeR0aQN+tgBcD6DwNLwDWmcHYZPxrRb7+o31cXmWkdCtSrCJVqMsSwFsV6GghF5Pt7F6WrI0UoogxrpZyXojBSIwbAGnph4xhiPd1CuIbsJRSx56I4ftoID1bCeSZnmN6AfdiN77/iKn8UthEBLTL5cQ3AhbBJrdBd/IFEt7REKdbmaE3cDr2W6AhZD7wG4ppoLkBkJ4dCBtV1ILkDDgaqVNSyXu8ELAHEq1gkeq9nDyDGBmO0IjtR/R0YGTUHgCnKJXuLNcSL0HOEMJ/oc5FSs8GC8nICUsjL3voGgK1yn2Is1NRcQMgG5xFvHd6BuKUexPiOHg+sgN5NVLELGbo7mRgWYPxKwqNyAev5RgnCRPth74edGe5mfAx8k3AXcZ6d5bbiOCNmTPWAW7Fzn9EK48gJU2LjhsA2aCJsFvsWZU9LQavIPTDPsz8DRIWmNsS+y+714CVAup8rrG+HeUzYL+AuheBZZGCO5OJPxnNRKzvTYP3Mju4AZAdlgI+JP57n0pS5S7IIktgn1a+hQzU17FKDtRRvgD2CaDr9wPo2i43I34FTmX0R57xtYiHcKjnMg94EDicYhX5qRQ3ALLFqsj8lmJBjimXU39+T6XYhTB+Fn+O2YlSDCacl+utiOVkwYaECU+bC/zYSMd6pQ+wI+I0+B90cbGzkYIaFyLJpgZF7EcWcQMge2yAnNOnXqRDyS3kv+CZBQthnwyqXd7E4LjcykJbHymB2cuovY5MRcrxnoskD6qF9lzWo410audD5Cv2UeN2650eSJ2B0ci26ZJIAaXeyDkayI/gC+Dztv9OQOKX30BiYh1hDBJrXCvjyU7CriKxDXIePCC1IsbcjByDzk6tSEL6IjuOPyOME/gc5IP22QBt18zRhLUqp/B/7Z13lF9Vtcc/mZBMSAeSAAkllQQIIUgvAaQ8OkiT4vPRRASfoCIivIfPgiLo89FFiiJVBERAEAHBUAUiPbQgJEBIoYT0OjPvjz3DJCQz8/v9Trvl+1lrr1krK7979zn73nP2PWefve0LsZZkEr8PoM/zZLNetxDLoxWA7LIVMIP0X+y+5FrK/eXfH/gu4U9ZfD1Wg6qhE3bMJPRD1gA8inXChhXo5avE4vLyMLb1IUTWkQOQbTYC3iD95O0ijVgFzTLu+Q/AcvnfQpycJ14T/vg2WDdsD3cHz9dtj+nAM9hyyAyspOKHWGcNBy7Hlo59cTvwJWwZRoisoy2A7NMLuIJ8niD6CDgGuCe1Io50wlLpbk1rwaVZ2MrzJ83/1gOLKRqKBXOOxt6vWAnEHsOi/jM99wzAAhRSe6Uh5A6U0UrkC60A5IcTyVdw4KPkP79/HfA1YArp+7M9mYRtMeSCDQh3MiCV3IfflQQhYiAHIF8Mwn+mON/yMXAa6Wq4+KI3cC/p+7Mj+Rc5dLQGk32vqlL5OwmzLQnhgByAfLIv8Drpx77lZSmWUrgI6c1XA/5C+j7tSN7CPqhzyVBs6SJ1J7rI69h5TiHyiByA/FIHHIAV00k5Bi7GViWKlN78FNLPLR3Ja7hXekxOf+AJ0ndmLfIRxXroRfmQA5B/6rByvXcTJplZWzIFO3rtKxlbVugMTCX9/NKePEoxVloAi6C8nfSdWo00kIE8y0I4IgegWPQHTsUSr4VwBt7D0rvvQjHLY4O1LfX80p7cQgG3nDthgSMxPVgXOTdMNwgRFTkAxaUHsBdWdOd+7Iu9muJsc7HthRuAkyjPaueppJ9fViVLgR8Q0fGKmbWpCUvn+wyWmS/LUY1PAT9MrYQQQrTDfOCvzdJCdyz/yQAsv0BPbAW2CTvPPq9Z3sKWwctIFpfWJwNHYnNP4VkT+A3+Swn7kLkUIPBCiGa0AiDEinyT9PNMizQCV1LOSqWMAyaS3gjLy7eCtliIuMgBEGJFdiL9PNOEpYDeLXBbM0895pFloSjG85S7mIUoHnIAhFiR1YAPSDfPTMPi4UJUz80tPYAzac3jH1sWA2ODt1KIuMgBEGJlLiP+HDMTOIPWkuZiFdQDhwMPENc4p8donBCRkQMgxMrsSLy5ZQLwVTTxV81Y7IjLK4Q10DmxGiREZOQACLEynbAc+6HmlInAecCYWA0qOsOxWIHf47fa4G9iNkKIyMgBEGLV/Bh/88gk4GYsx8CwmI0oK2tgyS9cDTcytuJCREQOgBCrZhTu88d92FyUS/Kc6nEWMMLxGi9ixX6EEEKUi9eAlx2vMQKbi3JJno+8DcFKDrtwrwc9hBDFoCfwOSwl7kZYcpa+2IfSUmAO8D720fAa8BJWM0Tkl78Aox1+PxQr1/uOH3VEpRyP+/LNuOhai7zRE1vi27D5b31adapGWwDtsxGWf/0JbJKvpm8+Ae4CTgD6RNZb+GFX3OeRL8dW2hedUivgwHW4dfxsrLLWUj/qiJzRGRv8x2BBO4Ow+hTrAwOB3rRdkatl8F8ILMAqqL2FRRUv//ejcOpXzKa4LXNOxlbbikRn4FAs6+d2nq65CKt4egG2tSjyQUtSIJdUvNcAX/GjjqiUybh5bbdE11ikZDj2kl6DnctdiLvn35G8iz1npwHbAF2Ct3JltAKwIodiKVhD2bwRuBP3+CQRj1txs/mk+CqXm/64v6jHxlZaRGUAcBxwPfaFHnqyr0TmA+OxjJexJgg5AMYQrGpeLFsvwo6ZKd1r9nHdTm4kxycB8sheuL+gOqtZPAZjX9sPUP1+bgqZiCW62ilAX7QgBwC+AHxMGhtPQGNN1hmJu51LX9QnJmfhZqwPyHf8g2ilBxaE9RTpJ3QXeRVLIuI7mKzMDkAn4FzS2/ZjFHCcZTrhXhxIqeQj8gfcjHVnfJWFZzbDCnrMJv0A71PmApcDm3jqp7I6AHXA1aS3Z4ssBA4K2mLhwj242feG+CqXF9cgnrPjqyw8sSXmwDWSflAPKY3Ag9gxJRfK6gBcSHobflaWAHuHbLSomXNws+3E+CqXky647+/uGltp4cw2wJ9JP4inkPuALWrstzI6AGeS3mZtyVws2ZDIFnviZtfF2PFSEZgRuL+Ea0bXWtTKOljOh6J/8XckjdjWV7WnB8rmAOxB9p+VyWgMyhpr427XwbGVLiN742akmfFVFjXQBfg2xdvjd5UlWJnRtpIUfZYyOQBrkp0jnx3JrYH6QNTOLNxsunt8ld3IYzGg4Y6/f8OLFiIkmwDPAv+LZeQTrXQBvgc8D+yYWJescRGW0TEPHAYcmFoJsQKuc0Pujnvm0QEY6vh7OQDZZhx2pM+lQEcZGAk8AlyM1SsoO1sCX0qtRJVcDKyeWgnxKXIAcsBAx9/LAcgug4A70IRWKXXAN7Dc81sm1iU1PyN/uT02BE5MrYT4FNeUvut60SIieXQA1nL8/WQfSoggnIu7fcvIEOAxypveelss+C+PnEH+KkwWFdd4l/5etIjIaqkVqAHXTlYQYDbpAxydWokc0w34LbA9tiqwJK06UfFdia0BKw/8AFbnfTZWW2Iktm/vGoe0POsBBwO/93hNURsfOv4+dw5AHnGN8h0TX2VRAQeSPjK7KPIErcuRRT8F0BOYg59+W4ZVi1y/g3vuBjzj6Z5NwL0uHSC8sQ1udpwcXWNH8rgC4LpEnIUa7WJlUtWcnwq80ixvAe8D04AZtD4rs7Gz5fVAd2y1oh47drYhpvvQ5r+jsTPFKdkeCxD0sSw+GBvcis4s4Ajsq78jHsK2Hc4Dvuvh3nti45rGprS49n8/L1qINqnD3dtWec5scirhv4wXYuV4fwLsS7gSnkOAo7BjaRNIl5hmSnM7U9w7TzIXGLtKS3aMa2GyFjmsxvsLf/TBzYaN8VUuF91wM9DC+CqLCjmUMIP7fCzpylFAr2itWZGBwMnA/djefMzJbWbk++VRXCdf1+JkTcCvHHUQ7vj4wMzjqnpu6I2bcRbEV1lUSH8s+MrXoP5P7IhVj5iNqIC+wCnAS6Sf+CTwt/bNVRHrYWOLix5PetBDuOHDAag0Q6eogbVwM878+CqLKrgVN/s2ALdgwTx5YGfgZtyLW0lqlz07tFJlXOWoxyxPeoja8eEApFplLAWuBRvmxVdZVMHGmI2qtetSrGDQqPgqe2EEcBN+V0AkHcssLLWyD/b3oI9yYKTFhwOgIk8B6YubcebGV1lUyaFUt09+L1Y7oAiMAe4i/cRYFnm4MrNUxAAP+rimORdu+HAAsrblWCi64macpeQvXWgZ2RU7f96eLV8A9kqkX2j2xxLQpJ4giy43VWqQCqjDPcBzc4/6iOrpgZv9Gslndt1c4bpf2ie+yqIG6oETgHuwyXAW5hTcgkVtF/1F6w1cirYFQsqNFVujYzoBix31qfUoovDDYNzspyDzCLjWh0+VcEaIWvg8MJ30k2URxccJgBb6edAnd9XkCsZWuNnPNZVwdPL4FTXb8fcKtBF54mGs0p+Oiflnc/yd2/ZRjdF1bBNuuM4NuYsxy6MDMM3x93IARN6YisVFXJFYj6KxFrCjp2sd6Pj7OeTwC7JguBbzcZ2bopNHB+B9x98r0lbkkSVYNsFzUytSMM7wcI21gf9wvMZrHvQQbrhWeZzqRYuI5NEBcPWyRnrRQog0nAN8L7USBWI/YB/Ha5yHVSV04XnH3wt3Nnb8vevHaXTy6AC4dnJek8UI0cL5yAnwyY1YMqZaOBk4zoMOPgMSRW24OgC52wLII0fhFqn5dnyVhQjCpQ3Nkq4AABIwSURBVKSPpC+KvA9sV0XfdwLOBJZ5uPcyVEo2NZ2xYnEudlRFxwiMwc1IDYQrAytETDoTPnPg29FaUxvdcT8a3CKLgF/QcaDwFsADnu7ZBNzn0gHCC5vibsdNo2tdQupxTwa0f3SthQhDb2Ai5XUAAH6N3zYvAO4E/hM4ABiHfd39N/A0lvHN5/2O8t8lokpOws2GS7BMtSICb+BmrPPjqyxEMMbinoUuzw7AtoRzgELLe9hHjUjL9bjZ8ZX4KruTxyBAcI+Y3cWLFkJkg+eBH6RWIiFPAQ+mVqJGzsecN5GWnRx//6IXLURFfAP35RrFAYgi0Rl4jHKuAIBl4vO9NB9a3gK6hegMURVDcbflKdG1LjFjcTfYMdG1FiIsm+O/eFBeHABwX8aNLfuG6QZRJd/B3Zajo2tdYuqw6nAuBrsrutZChOdayusArEF+yij7rEQo3HgSN1t+RH6303PLn3Ez2iJUGlgUj0HAPMrpAADsRvZLKL8G9ArVAaIqBuG+dXRHdK09kWevZbzj7+uBQ3woIkSGmApclVqJhDwEfDu1Eu3wCXakMHeV4wrKEVhSJxdc5yJRAyNw98Sfja61EOEZgb+AuLytALRwPum/9D8rC4GdQzZaVEUn4HXc7TostuLCeAF3420bXWshwvMXyu0AdAIuIv2k3yJzgb2CtlhUyz6423VCdK3Fp3wfdwNeF11rIcJzAOV2AFo4i/THA2cAW4duqKga1ziyJuz5EonYBHcDLsHOgQpRJLpg+81ldwAA9gCmk2byH48FmolsMRo/waIqL5+YV3A34m+jay1EeG5DDkAL62H5/WNN/AuAs4HVYjROVM0duNv4hehai5U4HXdDLsO9FrQQWeNY3N+Nd2IrHZgDgFcJN/E3Yo7XkFgNElXjK2vkqbEVFyuzJjAfd2PeFltxIQKzLu7vxbToWoenDjgcqyHga+JfBNwEbBaxHaI27sfd3nNRHpnMcDV+XmKVCRZF40Pc3okP4qsclY2Bn2BHgqvdE54P3AecjGqL5IWj8DNXXB5b8RC4JkDICmOB5zxcZwoWHDLPw7WEyAJPANs7/H420NeTLllnLWAbzCnYCFtdXAPbx1+EffW9i50dnwg8gwURi3zQB4sZG+jhWmOAlzxcR3jCVyW0C2IrLkRArsN9qVOIInAVfuaIh2MrLjpmb/wYtwHYM7LuQoTih7i9DwviqyyEd/bHXz6I3SLrLirk7/gx8HQsgEqIvON6SmZRfJWF8Mr6uMfCtMgjkXUXVbAzfozcBDxIvoslCQFwEm7vweL4KgvhjS7AP/A3L+wQV31RLX/Fn7Evjqy7EL45Grd3QEFuIq90An6Dv/ngnrjqi1rYEr/1wM+Iq74QXjkYt+d/aXyVhfCCa/zL8rIMO20mcsAl+DN8I/YVJUQecQ2O1QqAyCNfwd8c0AT8Mq76woXe2Hldn97fMVFbIIQfXB2AhfFVFsKJo7GVK1/j/xSgZ9QWCGcOwa8H2IB5lULkCdctAJ0CEHniJPxuATdh9SNEDvFd/asRxQSIfPFl3J/7+uhaC1E938HfWf8WuTVqC4RXBgBT8ftANGFFP1aP2A4hauV7uD/vPlKnChGKevxG+7fIu0C/iO0QAfg8tofv++F4Cg2MIvtcjvuzPia61kJUxiD8VnVskaXAuIjtEAH5Pv4fkCZgJrbHKkRWuQf353z36FoL0TGHYNUqQ4ztZ0VshwhMHX5qQLclf0DlQEU2eRn35/vY2EoL0Q69gV8Tbjz/G9A5WmtEFPphZTxDPTSTgUNjNSZjdAVGAMOBHol1Ea3UYaWtXZ/tH8VWXKySnliZ4mFYieIychh2LC/UOP4qVgZaFJChWKGfUA9PE1ZDYNNYDUpIF+AIrL3Lx1g0YAUzjke1FFKzMX6e6RtiKy4+pTNwIvA4Kx5vWwLcBexHOd6z0diXecixexowOFJ7RCK2xs9XUXuyFLgacziKxgDgHCo7XTEB2DCNmgI/RwCbgCdjKy4AGz+eo2P7vAl8G+ibRs2gDAOuwW9in1XJHOBzkdokErMf4R+oFkfgWmzZLu9sDfwOSwxTTR+8AwxJoK+AC/HzHM9De6KxGQa8R/V2+hX2tZx3RmLjTYxxegmwV5xmiaywP5bmNPTD1YQt3T0AHI4tneeFDYDTgGdxa//jlGOZMms8jr9neFRk3ctMHbaN5mKvicAPyNcqZGdgDyyoOsTR7VXJYnSSq7TsSzwnoEXeBy4AtsPKVWaNUcC38FtDuwm9ZLHpjt9n+6i46peaQ/FntwZgPPB1bFUha9QB2wM/x/bgY47FC9CXf+nZjfAxAW3Je8Cl2JZEn9ANbYO1sJWJqwgbXXt7rAYJwJ4pn/a7MK76peaPhHsP38SSQ32BdDEDfbHn8zLCZGqtROZiSeJKTRa/QFOwA/AnoH9CHRqBl7ClvwnAK8BrmHPiiwHAZsCWzbIV8ZYI52PHa1ReNg6XYl99vngB1UOPQVfgY+Icp21xCCYA/2yWl4EPPd6jJ7aquAk23uyMjUEptwRnYg5Q6YNb5QC0MhhzAjZPrMfyNGFBdG9hWwcfYMtk02kt07oA28cCS0bUC0uU0QtYG2vXYCwQr3sctdtkHPBYYh3Kwr/w69w1Yg7kRx6vKVZmHPYRkJJ5WF6Tt5v/zsS+mOc0//2k+f91o7UmSndgnWYZgKVJH4LFEWVpnnkO246ckloRkT16YNWfUixJlUHOqdwUwoFRhLFfWRNdxeR/SP+eFlVuIf1HUKZQZPaKzAe+iE1UyxLrUkT2TK1ASfj3QNc9MNB1RSv/llqBArIMOBs4ElsxFaJDtiVs6uAySgOwbjVGEFVTh20bhbDfLPJ1jDVvrMOK2f4k7vIWsFM1RigTWgFom6ewQLkrUytSIOrQV2Ro9gTWD3TtvlgQlwjDwWhM9kUTlhRpMxR3JBzZj7BH5MokD1bZ96I6bias/X4Xryml4yHSv59FkLeBfarseyHaZXUss9YC0j/geZZGspmQpAish50ICWm/edgpE+GXodi7kfr9zLMsAH6GHT0UIghDgDtI/7DnWX5cda+LSvg/4tjvxFgNKhE/Jf17mWe5DRUeExHZhfDlKYsqU7GEJ8If/YiX0fIlsnW2O+/UEz8NblHkASx3ghBJ2AG4m/QvQt7kuFo6W7TJj4lrP+2x+uOrpH8f8yaPoVS+IkNshwVgVVsut6zyCop49sUALDtbTPs9FKVlxacOS/md+n3MgywCbgS2qamnhYhAf+AMYBLpX5gQshC4Fz8BS0fW2MdiRa4mzbOwe4zGFZyjcbdDI/ZOxq5sGkteB07HtrmEyAWdsEqDvwZmkP4lcpH5WIrkI2mNsB3v4bpvolgAV7YmXfKYp1EsgAv1WKIaVzu0rMb0wt7R27B3NvW44SLTgCuAXdEzJnJOZyxo8CLCZWnzLS9jJWAPYNX5s7/k6T6nVtmXopVOWEWzlM/JEcFbWVxOJ5wNumNJty7GtttSjyeVyGTsJMs4tD0oCsxGwAnAdWQjwdASrBToFVge+UrS9XbDyoa63ntWhfcTK3MK6Z+dqSgvQC0MAmbj3v8zqGwVbRBwDHAVVhFviYd7u8rbWGKp44HhlXWb8ImWVrLBBlit7E2B0c0yAv951xuwFYhJ2PL7y1gt8BdpLSlcDecC/+VBr1uxIkyicjbGbJeF6maXoJWcavkjlvrXlR9iCcqqpRswltZxZzg25qyP/6/vpcAb2HjzEjAR++B41/N9RJXIAcguXYHBwNpYbe2WOttrAathX11dsRLGS7Ez4GCBQPOxr/MPmv/OAN7H9huXeNRxALZst3oH/68SDsESLImO6Qr8A9gitSLNNGDxLqnr2OeFL2KlaV1ZgCW/+dDDtVqoxzJ1DsTe7/5Y8F0/bKzp1vz/emHj0Dxs/JmNVd37GBtvpmP7+DOwMcLnuCOEyAiX42c58CMsla3omAvwtww7x9N1pmDFgkT7bIhte/no84sj6y6EECswGH+5D8ZjXxWibY7EX874N7HgVF/XuxWtKrZHF+Bx/PT1QsJVfRRCiIq5EH9fpJdE1j1PbIPf410te9C3e7ymj5iQovIr/PXzBZF1F0KIVdIff0vJTcDX4qqfC4ZhMR2++nj8ctceie3j+rhuA3CQ99bnn6/jz3azgDXjqi+EEG1zFv4GuGXAoXHVzzQDsWxovvp3CbDZZ+5xmcfrLwB29tkBOedw7Jn21b/fiau+EEK0T1f85jRfDOwVtQXZZAP8p5VeVTnmPthJEV/3mI0dMSs7+2LPsq9+fRn/x4OFEMKZXfAXUNaEBRceErUF2WIw8C/8Tv6v03qU67N80fO9ZgE7OvdCfjkAv/n5G1EFPCFEhvkdfieRpVh2wrKxGfAe/vty+w7ue4/ne84H9q69G3LLMfiLq2iRa6K2QAghqqQP/tMbNwI/ozz5wY/AEqz47MMmKovQH4TfYMMmbP/7zJp6In90wjLz+VwJa8LS5irlshAi8+yO/wGwCcsU2CdiO2KzGvAL/PdbE1YxrlIH6qBAOlyFn6yRWaUvcCf++60BBVUKIXLEeYSZRN6m42XsPDIEeJgwfTYN+7KvBp9n1peXl4AxVeqSB3bEUt6G6LMfxWuGEEK40xn76gwxIC4FfkoxviY7A98kzJJ/ExZIuUMNeq2OFWwJodNC4GyKEc3eHdue8r3f3yJ/pTxbX0KIArE2VvErxMDYhB2Py/NRwc2woj6h+qcJKztdK+tjqwehdHsZq/2eV/bF/ymN5WUKVoRHCCFyyVj8Zgls6ytp81gN8sBGwPX4TQ6zKvm5B113wF+th7bkDmCUB11jMRZ4gLB98glWFlwIIXLNPoRbIm2RBqzG+taR2lQLw4BrCd8XTcBv8VeY52isf0PquxS4kWw7ctsAfyJMgOvysgTYI1KbhBAiOMcRfhJpkfHAUVht89R0BQ4D7iX8F3+L/An/VRVPiaR7I3A/lgo6CzEC9ZgD9Ahx2t9AOfNeCCEKztcI//W0vHwAXInFCcScTDpjJxV+Ccz00I5q5M+0nenPFZ/1HiqRacBF2BG4mIFwXbDkRVfiPydCe9IIfCVC+4QQIgnfIK4T0CJzgLuB07Ac9V09t2sj4GRsG2JWgvY1YWV9fbfrs5yTqG0zsC2CE4AR+NveAOuzrbBn425gboL2NWIVA4WIhs+XSIhKORZLCuN7mboalgAvAq9i+fHfBqZiX3wfYnvSc7Al2TWaf7MWFpW9Nha0tkmzjAJ6RtR9VdyI9euyCPc6FbiQtOPHbOBZzH5vYtH4MzHbfdT8f2ZhqzG9sa/6fljp6kHAUKwM8igsL0Fox6k9lmKOzfUJdRBCiGh8ASsbm+JrsmjyE+JPxscQJ5ix6DIf2L/KvhdCiNyzBfAO6QfhvMpS4KSqe90fOxM/xqFIMpVsn1oRQoigDAKeIf1gnDeZSjaS6AwHXiF9f+RNngTWraG/hRCiUNQDF5MmODCP8iAwoKaeDkNv4BbS90sepBE7HZIy5kAIITLHwVgAV+pBOquyBIvC71xrBwfmeMLVNCiCfAAcUHPvCiFEwVkHO0qXerDOmjxLtrPktTASeIL0/ZU1uZVsrdoIIURmOQJ4n/QDd2qZT/4q59VhmQM/IX3/pZb3gMPdulMIIcpHL+B8YDHpB/LY0gjcjFXkyysDgZsoZ2zHIqxkder8EEIIkWuGY4luYtUSSC2PAzt56blssBXwEOn7NYY0ANdhiYaEEEJ4YjS2l1pUR+ARil0Fbh/gUdL3cwhZhp2E2MRbbwkhhFiJYcBlFCPifBkW9Lirzw7KODthOfeLsDUwD7gEffELIURU+mDBZs+RfiKoVqZhe8QbeO+V/DAMOA/ri9T2qFaexYo/9fHeK0IIIapicywn/iTSTw5tycfA1cDuZPcsfwq6AAcBN2BFflLbqS15AziXfBzHFEKIUrIFdnTuYdKeIGjEVifOB3ZD2d8qoR4rjnM5VqUx5YS/GAtePAsYG7LRQqRA5YBF0ekB7AhsixVe2QYr5xuCOcAE4OlmeRKYHuheZWE9zHnaCvgcNhH3CHSv6VhdiqeBp7CERvMD3UuI5MgBEGWkH1YHfiS2Dz0Qy9I2EMs90Bd7N9bAvgQ/af7dIqze/ExgBpaoaBJWj34SlvSlKVYjSkpnYAhmt2FY8N26mFM3ALNtt+b/u0bz31m02nEOFnMwE7Pfm9hKw+uYbYUoDf8Pd12Ilxj6w0sAAAAASUVORK5CYII=;align=left;" vertex="1" parent="1">
          <mxGeometry x="40" y="1218.75" width="120" height="52.5" as="geometry" />
        </mxCell>
        <mxCell id="JCgtttSXEs-XLeb5AZkn-43" value="350N Test: Single Model" style="text;strokeColor=none;fillColor=none;html=1;fontSize=24;fontStyle=1;verticalAlign=middle;align=center;" vertex="1" parent="1">
          <mxGeometry x="110" y="1129" width="100" height="40" as="geometry" />
        </mxCell>
        <mxCell id="JCgtttSXEs-XLeb5AZkn-44" value="Text" style="text;html=1;strokeColor=none;fillColor=none;align=center;verticalAlign=middle;whiteSpace=wrap;rounded=0;" vertex="1" parent="1">
          <mxGeometry x="320" y="510" width="60" height="30" as="geometry" />
        </mxCell>
        <mxCell id="JCgtttSXEs-XLeb5AZkn-45" value="272 Pieces&lt;br&gt;" style="text;html=1;strokeColor=none;fillColor=none;align=center;verticalAlign=middle;whiteSpace=wrap;rounded=0;" vertex="1" parent="1">
          <mxGeometry x="40" y="517.5" width="130" height="30" as="geometry" />
        </mxCell>
        <mxCell id="JCgtttSXEs-XLeb5AZkn-46" value="272 Pieces" style="text;html=1;strokeColor=none;fillColor=none;align=center;verticalAlign=middle;whiteSpace=wrap;rounded=0;" vertex="1" parent="1">
          <mxGeometry x="750" y="520" width="60" height="30" as="geometry" />
        </mxCell>
        <mxCell id="JCgtttSXEs-XLeb5AZkn-47" value="272 Pieces" style="text;html=1;strokeColor=none;fillColor=none;align=center;verticalAlign=middle;whiteSpace=wrap;rounded=0;" vertex="1" parent="1">
          <mxGeometry x="560" y="880" width="60" height="30" as="geometry" />
        </mxCell>
        <mxCell id="JCgtttSXEs-XLeb5AZkn-48" value="&lt;i&gt;272 Pieces&lt;br&gt;&lt;ul&gt;&lt;li&gt;&lt;i&gt;139 weak&lt;/i&gt;&lt;/li&gt;&lt;li&gt;&lt;i&gt;133 strong&lt;/i&gt;&lt;/li&gt;&lt;/ul&gt;&lt;/i&gt;" style="text;html=1;strokeColor=none;fillColor=none;align=center;verticalAlign=middle;whiteSpace=wrap;rounded=0;" vertex="1" parent="1">
          <mxGeometry x="-10" y="1282.5" width="150" height="82.5" as="geometry" />
        </mxCell>
        <mxCell id="JCgtttSXEs-XLeb5AZkn-49" value="&lt;i&gt;134 + 37 = 171&lt;br&gt;&lt;ul&gt;&lt;li&gt;&lt;i&gt;134 correctly detected&lt;/i&gt;&lt;/li&gt;&lt;li&gt;&lt;i&gt;37 wrong detections&lt;/i&gt;&lt;/li&gt;&lt;/ul&gt;&lt;/i&gt;" style="text;html=1;strokeColor=none;fillColor=none;align=center;verticalAlign=middle;whiteSpace=wrap;rounded=0;" vertex="1" parent="1">
          <mxGeometry x="140" y="1330" width="170" height="60" as="geometry" />
        </mxCell>
        <mxCell id="JCgtttSXEs-XLeb5AZkn-50" value="&lt;div style=&quot;text-align: left;&quot;&gt;&lt;i style=&quot;background-color: initial;&quot;&gt;96 + 5 = 102&lt;/i&gt;&lt;/div&gt;&lt;i&gt;&lt;ul&gt;&lt;li style=&quot;text-align: left;&quot;&gt;&lt;i&gt;97 correctly classified&lt;/i&gt;&lt;/li&gt;&lt;li style=&quot;text-align: left;&quot;&gt;&lt;i&gt;5 wrong classifications*&amp;nbsp;&lt;/i&gt;&lt;/li&gt;&lt;/ul&gt;&lt;div style=&quot;text-align: left;&quot;&gt;* Tensile strength over 300&lt;/div&gt;&lt;/i&gt;" style="text;html=1;strokeColor=none;fillColor=none;align=center;verticalAlign=middle;whiteSpace=wrap;rounded=0;" vertex="1" parent="1">
          <mxGeometry x="430" y="1265" width="250" height="100" as="geometry" />
        </mxCell>
        <mxCell id="JCgtttSXEs-XLeb5AZkn-51" value="350N Real Test" style="rounded=1;whiteSpace=wrap;html=1;fontSize=12;glass=0;strokeWidth=1;shadow=0;fillColor=#6a00ff;fontColor=#ffffff;strokeColor=#3700CC;" vertex="1" parent="1">
          <mxGeometry x="455" y="1430" width="120" height="40" as="geometry" />
        </mxCell>
        <mxCell id="JCgtttSXEs-XLeb5AZkn-52" value="&lt;i&gt;272 Pieces&lt;br&gt;&lt;ul&gt;&lt;li&gt;&lt;i&gt;139 weak&lt;/i&gt;&lt;/li&gt;&lt;li&gt;&lt;i&gt;133 strong&lt;/i&gt;&lt;/li&gt;&lt;/ul&gt;&lt;/i&gt;" style="text;html=1;strokeColor=none;fillColor=none;align=center;verticalAlign=middle;whiteSpace=wrap;rounded=0;" vertex="1" parent="1">
          <mxGeometry x="-10" y="880" width="150" height="82.5" as="geometry" />
        </mxCell>
        <mxCell id="JCgtttSXEs-XLeb5AZkn-53" value="&lt;i&gt;134 + 37 = 171&lt;br&gt;&lt;ul&gt;&lt;li&gt;&lt;i&gt;134 correctly detected&lt;/i&gt;&lt;/li&gt;&lt;li&gt;&lt;i&gt;37 wrong detections&lt;/i&gt;&lt;/li&gt;&lt;/ul&gt;&lt;/i&gt;" style="text;html=1;strokeColor=none;fillColor=none;align=center;verticalAlign=middle;whiteSpace=wrap;rounded=0;" vertex="1" parent="1">
          <mxGeometry x="350" y="910" width="170" height="60" as="geometry" />
        </mxCell>
        <mxCell id="JCgtttSXEs-XLeb5AZkn-54" value="350N Real Test" style="rounded=1;whiteSpace=wrap;html=1;fontSize=12;glass=0;strokeWidth=1;shadow=0;fillColor=#6a00ff;fontColor=#ffffff;strokeColor=#3700CC;" vertex="1" parent="1">
          <mxGeometry x="455" y="980" width="120" height="40" as="geometry" />
        </mxCell>
        <mxCell id="JCgtttSXEs-XLeb5AZkn-55" value="&lt;ol&gt;&lt;li&gt;Value 1&lt;/li&gt;&lt;li&gt;Value 2&lt;/li&gt;&lt;li&gt;Value 3&lt;/li&gt;&lt;/ol&gt;" style="text;strokeColor=none;fillColor=none;html=1;whiteSpace=wrap;verticalAlign=middle;overflow=hidden;rounded=1;" vertex="1" parent="1">
          <mxGeometry x="690" y="767.5" width="170" height="195" as="geometry" />
        </mxCell>
        <mxCell id="JCgtttSXEs-XLeb5AZkn-56" value="&lt;blockquote style=&quot;margin: 0 0 0 40px; border: none; padding: 0px;&quot;&gt;Model:&lt;br&gt;&lt;b&gt;90N&lt;/b&gt; Test&lt;/blockquote&gt;" style="rounded=1;whiteSpace=wrap;html=1;fontSize=12;glass=0;strokeWidth=1;shadow=0;fillColor=#e1d5e7;strokeColor=#9673a6;image=data:image/png,iVBORw0KGgoAAAANSUhEUgAAAgAAAAIACAYAAAD0eNT6AAAABHNCSVQICAgIfAhkiAAAAAlwSFlzAAAOxAAADsQBlSsOGwAAABl0RVh0U29mdHdhcmUAd3d3Lmlua3NjYXBlLm9yZ5vuPBoAACAASURBVHic7J13mGVFscB/szObM8suYVlYclgyCI+ck+SogAoiggiCgIggIqCogAoIEhQFiY8sSUCQnCUucYkLLHGBzXl25v1RM2+HYe6de29Vd59zbv2+rz4+3Tl9qvuc212nu0IDjuNoaABGAysCqwDLAiOBRYBFgcFtfzcUmA9MBVqAz4BPgQlt8mKbvALMjaZ9XIYAKwFj2v67BAvGahjQAxgENAKT2q6ZDHyMjNUHwFvIGL0GvAu0xlPfcYpFQ2oFHCdnNAEbAZsAG7TJUMP25yGL2+PAXcB/EKMhjwwHtgM2RsZrZWznnC+QcXoCeAh4DGg2bN9xHMepcwYDBwDXIV+krRFlLvAA8FPkaznrLA4cDTyILMYxx2oS8oy+w4KdF8dxHMepiiZgF2RBmUXchayUNAN3AHsCvcJ1vWp6AF8H/onsYKQep1bkmV2HPMOmcF13HMdxisIg4BhgPOkXsXLyKfAL0n7p9kS+tl8h/XiUk/HIrsSgIKPgOI7j5JrFgd8DU0i/YFUjXwAnE9cQaAC+Cbxj2I8YMhk4C1jMfkgcx3GcvDEQOA2YTvoFSiOTgKMQD/qQrA08nLivWpkOnAoMMB4bx3EcJwc0AYchIWapFyRLeRpYx3Cc2ukFnE52zvgt5CPgUNxHwHEcp25YA3iW9AtQKGkGzgb6Go3XqsALGehXKHkGWN1orBzHcZwM0hM4HphD+kUnhjyHJCbSsA/5Px6pROYBvyNb0RWO4ziOAasDY0m/0MSWSUgoXLX0QBbElgz0IaY8j+x4OI7jOAVgf2AG6ReXVNICnFLFePVBYuhT651KpgP7VjFejuM4TsboCZxL+gUlK3Iu3afi7YekH06taxbkHOQdchzHcXLEwkh++NSLSNbkEkqHCvYG7s6AjlmSh5B3yXEcx8kBo8h+drqUciVyxt+RBuCqDOiWRXkFqVzoOI7jZJhlkJKxqReNrMtvOo3bCRnQKcsyHlgBxykQXg7YKRJrA3cCIxLc+3OkLO1YpJzveCStcLtMQpzrFuogiwArAWOA9YClI+t8EHApsDNSyKfzrkAo3kLG6hVgHFLXYBKS1vgLYDZSYnlwB1kaGavVsS/BXCmfANsjkQKO4zhORhiDLMKxvgjnA/cDP2m7t4UxPRIpO3wTcaIW5iDZEEPXP5gH3A58H6m5oKUBWA34GfAocUMVPwNWMeiD4ziOY8CSwPvEWQDeQhae0GfCA5AF8+lI/Qq1WJ5E+OI7yyBhjh9E6td7iJ+J4ziOk5BhxHH4ewrYm/DFdrpiK+CBKnRNLZORCoWxy+/2Br6HHMGE7uPLyLvnOI7jJKAfcpYccqJ/HlmAs8DOwBukX+DLycWkOZ/vSA9gd8IbAo9hV2/BcRzHqYJ/EG5y/ww5H0/xxV+O3sCZiA9C6sW+83jtHrDftdALOJGw/hSXRuuN4ziOA8AhhJvUr0G89LPMZmSnlPFDiANjVlkKuI1w/f9evK44juPUN+sAs7CfyKcBB8brhpolkYp/KRf/W5HwxqzTABxFmEqQs4A143XFcRynPhkKvI39JP4csHzEflgxCDmLTrH430b+cuWvB7yD/Vi8ieQrcBzHcQJxOfaT913AwJidMGYg8DhxF/+ngf4xOheAoYQpeHRpzE44jhbPBOhoaELi4Ucj2feGtEnn92omCzLiTUBi9j+t4X7bIYu1JZcChyLJavLMCCQiIkY2wclIRr73I9wrFL2Bq4E9DNtsBbYF7q3h2kWQ3AIjWZD9sF8X7U9uk0+Ad5HfU3ON+jqO41REP2AbJGf8tUgK13nU/rU0E0mbe3VbmztSPq66P/Zbt7+jWEbwaoTxjegs34zVocA0An/BdmzeovzOyMLATsg7fw3wIrpnNg/5LV6LJKjaGg9NdBzHgBWQiep+JD976IWlBUnqcwmwPzC8gy5nG9/rfJMRyh5HEfYZ3R6vK1FoAM7Bdoz+0KH94cC3gL8Brxrfp5TMBu5DDILlLAbJcZz6YARwPJIAJ8ZkVU7mA08ii3+zYbuXE6/wTWwagIcJ8zzmASvH60o0rEshNwN/RLJHZiFfw7PAcXzZoHYcx/l/1kMmwRhf+inlNsR3ocisQ5iF59KYnYhML+Bu0r+fIWU2YvyuazRmjuPknI0Qx7rUk1MMeZ36CdX6X+zHb/WoPYjPQORrOfV7GkPuANa3GTbHcfLGCsh5buqJKJbMoPgLWEfWxXb87o+rfjKWJXx55CzJTcSJHHEcJwP0B84iTEa0LMsBFoOXMywTBB0SWfeU7EP69zWmzAJ+RT4yOjqOUyObIhnLUk84seVKi8HLIUdiM37zqD8HsgtJ/97Glpdw/wDHKRxNyFd/FjySY8tE6m/xamdxJLRSO4ZPxFY8A/SlPo3lecDPKVZ+DMepW0YQJu1pXuTb+iHMNa+hH8OzomudDbYj/fubSu5AUiY7jpNT1iM7JWNTyAPqEcw/l6Afx92ja50dbib9e5xK3iCfBbIcp+7ZHfF8Tz2JpJRD1aOYfyz8AFaKrnV2WIr6/h19hoQKOwWkqNnQ6p2DgBv4ajGRemNmagUywNvK6+cbtJFn3gUuTq1EQoYhxY12SK2I4zjd8z3q09mvK9lFOZZFYHV0Y5jnin9WjKT4GTK7k9lIwS6nQPgOQLHYH6lu5s9VeDO1AhlgvvJ6LzULHwD/SK1EYnojSYO2Tq2IY4eHehSHrYB/ITnNYzIfKUf6NvAe8CnytTATKbfaBxiChOIt1SajCZ+Pf3rbfbULYN4Zg8R318p4PFMcSIbA1wj33jYj5a7fRX5HE4HJyG9pPnKc1weJ6lkSeSYrIb+xmEwFNkOKhTk5p+hFUeqFVRDrPMbiPwdJC/tYmzwFTKuyjT5I7fq1kHzkWyJGgSUv4ou/Y8dbwEXAEUbtvYOE5z4FPIe8r3OqbGMAEumzYZtsiXyph2QQ8qHxNWRnxHGchAwkTp3xJ4AfAgsF6seywA+AfyPJSLT6XhVIz7wxBt04vhNf5cwyBHiZ2sZxLlJ06xDC7agMBQ4DHq9Rx2rkccIbG47jdMP1hPuRtyBV5cZE640wDH01u99G1jmruAFgy1LAC1T++7kf+C7hDOdSrAxcTViH4Auj9cZxnK/wPcL9uO9EtuhTcXIJvSqVn8ZXOZO4AWBPP+DXyHl4V2P2CXAmUnEzNWsiWf1CzRO7xuuK4zjtLEPpCUgjH5ONcJ8z0PXjh/FVziRuAISjH/JbOQ74DXAUsDHxHfMq4evAR9jPF58gjomO40SiAbgP+x/z7WTnx3wOur58L77KmcQNAKed4cAt2M8b18XshGOHx4vnk32BLQzbawGOBXZGwviyQLUe0Z3x2uaO82UmIlv2RyG/eSv2RgonOY4TmEHAh9hZ7/PIZsW8U9D1y30ABN8BcLpiP2yibdrldTwqIHf4DkD+OA5YzKitucA3gSuM2rNklvL6gSZaOE4xuRopGDbbqL3lkTBex3ECsSiS4c7CYp8P7BZX/ar4Ebr+/S2+ypnEdwCccuyKXajgJ7jhnSt8ByBfnAj0N2rrF8A/jdoKwSfK65cw0cJxis0twM+N2hqBXaZEx3E6MAy7r//ryX4diA3R9dGr2Am+A+BUwhXY7QL0jay74xSeU7H5gb5KPn6go9D3deHoWmcPNwCcSugDvILNHPP9yLo7TqFpwiaJx3wkUUkeaEQqCmr6u0N0rbOHGwBOpayPVCXUzjNjYyvu1Ib7AOSD7REHQC1/Bh4xaCcG85EKaRq8drnjVM6TyByhZTVgHYN2HMfBpuDPBPLnoXsRuj6/FF/lzOE7AE41DED8Z7TzjYUh4Th1z0JIrK72B5nH3PiHou/36tG1zhZuADjVchj6391kpFaC4zgKLH6M75PPLF0rou/7H6JrnS3cAHCqpTfwHvrf3n6xFXeqw30Ass8uBm38Dn1u/RSMA8Yr2/gG2Q95dJwsMQf4rUE7XirYcRT0Qh/7/xn5LozzF/RfImtE1zo7+A6AUwu9kcJg2rnHPzIzjD+cbPM/6DP/XYldvu8U3GHQxtIGbTjFowFYCvFY3xLYBqmyuQ6eSXIOcJWyjWHAWga6OIFoSq2AU5YtDdq41KCNlNwFfIE4Q9ZKLyNdnHwzCPlNbQlshPiYlDOwpwOvIaGz/wHuB2YE1jFLXAr8WNnGNsAzBro4Tt3xMLotuNfjqxyEC9GNw/rxVc4MfgQg+SCuQp9YahrwD2CzuOon5XV0Y3ZvfJUdJ//0QL42ND++M6NrHYaNqH0MJgE946ucGerZANgFeApd/0vJY8DX43UlGWeiG6cpuBOu41TNMugnKYsjhCzQADxNbWPwxwT6Zol6NACWRY6OQiz8neU/wEpxupWELdCP0ajoWjtOztkR3Y9uLsVKxLEV1dct/xhxRKpn6s0AOAKYRZzFv11mUdwyuH0Rh0DN+GwbXWvHyTk/QfejeyK+ysH5KZX3fzqwQRo1M0W9GAD9sUmZrZGbyF+67Up4HN24aB0JnUB4GGB2WUV5/fMmWmSLM4EDgand/N2bSNXDx0Mr5GSCocDdwF6J9dgdeBQYmVgPa7RzycomWjjmuAGQXUYrr3/ZQokM8g/kjPdUZGJqz3A4G3gQ2YodQzENIOerDEOiZTZKrUgbqwEPAYunVsQQbVGtZUy0cJw64ln83K1SBqRWIMMU+QigLxKjn3Lbv5S8hC53RZbYGt1YPB1fZacSfAcguwxVXj/BRIt8MD21Ak50GoBryM6Xf2fGIPoVYY79UHn9EBMtHHOK8HIWlcHK6z8y0cJxssmPyH6xmW2BE1IrYYAbAI4TkR5UH/LWWdy4c6CYRwBjiB/qV6vMA9YMMwzRaABaqH0MmvFkQJnEawFkg57AksBiiAfxkugW8LnID9ZxishF5KfCZRNwMRKSmtffZCsyp/Su8fpGJKz5XWQ3YUKbNJto59SMGwBxaUQKkKyFfBWsAiyPVKuzfBZzuv8Tx8kluyEhnnliPeAbiE9AXplD7QYAfDUt+Vxkd+l14BXguTZ5k/waSo7zJXojhUNORopiTCfOtqMbAE47RToC6IFU50u9rV+LjCXf2+CziTNOU4E7gRMRQ6+e63g4OWRR4PvAzUj1sFQTTmPojjq5oEgGwNcJ81v5GCnucweSQfPTQPfZ0X5IotBIunlsCpLh8SBgeOiOOk4tDEZe0HuQc61UP5aOUpQYZEdHkQyAW7H7fcwCzgbW7uI+Dci2/QXIVrXVPa+3GYboLET6+awVcai8EzgAGBS0x3VCnrekssA6wCHA/kgu8iyxBrLt6NQ3Y9BlcpsEnGGki4YmJPujxc7WfcB3gfcq+NtlgcuBDQ3uOxtx9J1s0FZMVgdeSK1EJ2YDtwF/QY5XHScKPYA9gCdJbxGXk3qoVe50j3YHoGhyMdU73PYCrjS6/55V3jsLbE/651ZOHkfqMHjosxOMBmBfYBzpX/hK5MAgo+DkDTcAFsi91B5t0xvxD9DqcH6N90/Jt0n/7CqR15BoC9/ZdkzZGslnnfoFr0YODzISTt5wA0BkFpJfQ8PKyDm0Ro/nlDqk4AjSP79q5Ckk+spxVKyMlBlN/ULXIllPk+rEwQ0AkT9qB7KNvyv1mEH+tqr3IP3zq0VuA5YLMB5OwemJxKHGin21lvmIs5HjuAEgspZ2INvYwkAX7U5EbEajSwWcUmYAx+Bh0U6FrIm+FG9qudt8VJy84gaAbWGsJvQJvdY11CcW95P+OWrkcWRH13G6pAE4Ftu43xTSTNexzU594gaATP6WvKrUZwtjfWKwEdnJcVKrzAIOtR6YPJO3s6hQDEKSdPye/KeePA7ZwXAcR7COu/9ceX1fEy3i8ihwWmollPRBCkldRj6fgROAMeQ3v3hHmYN46zpOR3wHQCJ4LHlDqc9mxvrE5Hjyv0vaCjyPJHmqa+o9XnJz4BbynVZyKtKHXyOVtRwdiyFntMsiVRqXafv/BiLZHvu1/d1sZEtxFlLmdALwPlLZ7FlgfEyly6DNBFgEvkDyyFtUmeuDZEfUlCNeh3zv0o0BfgHsRPYyoFbDZ0h9hqdSK5KKejYA9gCuRlfi0pJZSN7194EP2v47BSkoNAXZxmzt8PfNyAs8DolNdmpjYSRr4nZIutfRRu1OQhLH3A3chTynFLgBIGwKPGzQzk5IeJmGJZDfeN7ph/xeRvDlBEsNwBCkRsrAtv+OAka2/XdpsrMFPwPYC/mNOnXCoaR1aJmCFLU4GTFElsPDVGIyFEmU9DDx3oM3gVOIv+3oRwAil2oHso0blXpMo74/vEDmuuWQ9L0nI3PhFNK9G3OBbwXtsZMZDiV+TOt8xInmeCTM0Bf7NGwK/C+y25JqsmkBHkQSNcVYCNwAEGkGVlWO5Qbo5w5rf4Si0IgUMDseeIT4H2jzcSOg8OyHPOhYL9VTyJem17FORwOwC1LvPfUi1FleRipJhjQE3ABYIC9Q+5n1YMTHRqvDuTXev94YDvyQuEXX5gG7xeicE59diOO9OhO4EJl4nbRsjeReT73wdCf3EM5IdAPgy3I7ci5dDUORQkIW9/cU3dWzCnABMreGfj9mA9vE6VZ66uUsan3gAXSeu90xDTgHOA+YGPA+TvesguR02CG1IlXwIhIeNsm4Xa0T4CTgDCNdNDQhPhS1VvPryKvAwciuUHdsCfwViQbRMgtYBJkrnOoZjoQ6H031Rlw1zEASH70Q8B5OJBZFPOpDWYzzkBrji8bqkFOSnohT0RzSf2nWIlfaD4l6B+CdADrVys3YjvetwN58dTEZghwXWhcCu8ZsJOqbYchRirYyYzkZjx/d5p7eiPNdqJfkETy/dFZYG7HYUy3eVrK68bgUyQDYhnDj/gmyMzAx4D22tx+SumYVZA4O9bzuJ/+ZYeuaiwjzYkwHjsJTKWeFI8jvV39nOdt4bIpkADSQXyPvOernyDUmPZC5eAZhnps7beaUXQnzQrwALB+xH05pBgLXkn5yt5QnTEeoWAYAyFd06mdUi+wVYjCc/2cFYCz2z62FfPkSOcjZzcfYvwxXkO/Ul0ViNJJ2N/XEbi3vGI4RFM8AAPg36Z9TNfIw/vUfgz7AJdg/v0+QbIdOTrgF2xegBTgmag+ccqyD1HhPPbGHEOt6DkU0AJZHjuFSP6tKZC6wWphhcErwE+yTvd0QtQdOzeyH/Q+4yBmiegHfBG4C3kYKp7wDXIdsW1qEXVmyNRJGlXpiDyU32w0VUEwDAOAQ0j+rSuSnoQbAKcu3sc/7snfUHjhVMwCpymb1wOcghWKKyteQGPFyY/Ay4mGfBbZCqh+mntRDynfNRksoqgEAYqSmfl7l5A586z8lO2LrHPwefgScac7A7mE3A/vEVT8q21G55+wM0tcw3xvJ0pV6Ug8pH7Cg3LAVRTYAemGXoc9axiL5BJy07IZtvoDT46rvVMoK2Fl7LRR7238Zqv+SnoIU60jBj4lbw6EViQm/DDgS8TxfCSkd3KtNp0HAYsC6yFHJr5CqZrWGI7Ug6aqtKbIBAJKmN4T3t0beQN4NJxt8BzufgNl4FFgmuR67H/ApcVWPTq1Oku8jNb1j0YTkAI8xabcg6aIPQ2qW10ofxGC4kspzl7cghkYIim4AgHxpP0TaRb9dnsI9xrPIr7B7xtdG1t3phtWw+0L8J8VO8LMUurF6Dlgogp6LEmd7dypwFja53juzMHAa8HmZ+7+NHMeEoh4MAIC+iNGVcvG/Gj8jzioN2H0ktiBl3Z2McBs2D/ZNwhaZyALfQT9O4wi7DbYtYfI4dJQZyFfB0ID9aKcPsC+ym3E3cBdSOGoXpA56SOrFAGjnYOKHCE4Dvhejc46KQcBb2Dzzf0bW3SnB+tg80GZgw8i6p+AUbMbrM6RSmiULAX/DPoa3s1wDLGGse1apNwMA5JjqcuIs/rchu2pOPtgImeu1z70F8f9xEmO1rfPr2IonwvIsrAW4EBis1KkX8EMk41bIyfojxCu4nqhHA6CdzQmTNbAFCfHbKFpPHEtOx+Y98OqOiVkSmxCPN5Ft2nrgQOwnxAmI89yAKnUZhBTyeTuATp3lPqQWe71RzwZAO2shRy7aY6UJiL/IqnHVd4zphRxjaueUedTPTmImsYr73zG24glZmnBb7JOR6lmbU9qgWhI5D7+GeBn9ziL8WXtWcQNgAY3AesDxyBnua5TOFjcHqTVxE3AskgyryM7B9cZ22Mwt9bJznDn6Ut67ulK5I7biGeAuwi+6zcji8TRSs3ss4jcQY8Fvl/nAj4zGLK+4AVCeJsT3ZBlkrJZBHEPr1WCsJyycxz8FesdW3IFvoH949RrOsTLFz6o3F3lH6h03AByna1bFJnx8j9iKO3Ar+gdXzxWeDiL9Ih1K5gC72w1VrnEDwHFKcxP6+ebG6FrXOcPQp/1tAVaPrXjG+APpF2trmU2YlLp5xQ0AxynNGtjMOTHyiZiTtVKvlbIPC3Ky18r9yLl0PXMcsDhSDrgIfIbk5X8wtSKOk4heiB/DcCQr4UAkTHc2kvxqGuKs+y4wMZGOWeIFZC3YQtFGb2BP4BITjZxuuRO91VZv8eCl6Ik4Qqb+ctfKs3hClq7wHYDi0hdJxnUa8ht+g+rCor8AngD+jpShXjqu+plhd/Tzzy3Rta5T+lJ5kZVS8h7u5duRPtReICgLciX2ZXSLghsAxWIYcDjy1ToL+9/SeOAiYGMkf3490IjsiGjGbToeDRCFHdG/5L+NrnX2aQL+QfrFvNof3UEhBqNAuAGQfxqAnZDcBVYlzyuRt5HdhcXDdzE5v0U/XttE17oOOQ/9g6p3579SNCBJUixyZYeWF/GMbJXgBkB+6QHsjOTSSPlbm4PUVlgxbHeTshr6cTo7utZ1yFj0C4dTnu0RB6HUi3ypyeh0fLutUtwAyCe7IGf6qX9vHaUZKdY1ImC/U/IiuvF5Nr7K9cUg9IkbTo+udT4ZgU2MrKU8gCxoTuW4AZAvlsGuvHkomQQcRfH8qLRFgpqpvh6KUwUW+Zs3jq51vtkfeJ+0E84bFCdUMTZuAOSDBiRtdQjHvlDyJGKwFIWN0Y+JdYl0pwOnoHs4k8hv7oOU9AN+CUwh7gQzDvgO/sw0uAGQfQYD15J+Qa9FpiDFvYpAExIaqRmPn0fXuo7Qpv+9Nb7KhWIQ8BMkjDLUhNKMxDTvSfG2GFPgBkC2WYOwv6dYcg7FqJaoXWPqOb18cN5C93BOiK9yIWkEtkIcgrQWcyuSvOQR4GfAyIj9qAfcAMguWyBZ+VIv3lZyM6XLgOeFE9CNwavxVa4P+qF3ANw8ttJ1QCNSUfFI4GrkXLBc2d/5iCF3K/A7JCPjoOha1w9uAGSTfShmRc77yPfveXN0/Z+HRygFYW10D6YFyYvtxGEAsCjiJLQakmZ0KPWTXSwruAGQPXaiupS9eZP7ye9OwEBkrdD0f7XoWtcB30T3UN6Lr7LjJMcNgGyxPpLBMvUiHVpuIb/Ou1qfjL3iq1wbeXLaWFJ5/csmWjiO49TGCsC/kCp9RWcX4E+plagR7Tn+KBMtIpAnA0Cbj3qciRaO4zjV0xv4X2Ch1IpE5DAkjDdvaA2A3Dgy52mLRrsD4EcAjuOk4mxgrUj3mos42r6BVE6dCvRCdh4WQ3L6D4+kywXAf8mXd/wE5fW52QHIkwGwmPL6D0y0cBzHqY7dka/hULQCjyHn7g8AzyH5NMqxCLAZsDWScyPUzkR/4DpgXaSORx7QGgD1UD0xOq+ic8zwFMBORxqQKIX26ISeadUJhjsBpmUgsqCEcLSbApyBPh1vL2AP4NFAerYCJyl1jMkm6Pr6UnyVi88H6B7KyvFVdjLIDsiX0ky++o7MBJ5HvlhOa/vbvBf3cAMgLb/HfjGdC5wJDAmg7xbIb8Ba55nkp26A9jfjx80BmIbuoSwRX2UnQwyhtipr85Avo+PI59aeGwDpGIMs1pYL6dPAKoH1bgSOxr4w0W2B9bZiFLp+TomvcrHpgT45Qwhr2ckHg4AX0E9gzcDdwK7kJ6GRGwDpsC7w8yfiZplbA3jduA8bRNS/Vgaj62ML+Yqwyzy90b94np6xfrkO20msFRiLJKfK+g/dDYA0LIsYjBbvWguyA5WChYCHKtCxUsnDLkAv9P0sqk9REvrgBoBTGxthv/h3lCeBdaL1pnrcAEjD37Bb/A+JrHtn+gIPYtefWOGQtWKx3rgBYIjFA8lrbmpHh9VEXE6ake3ZfpH6VA1uAMRnGBLyZvFuZcV7fgiy62XRp8viql41/XADIFNYHAFkcXJ2wvMO4Q2AdhkLrBSnWxXjBkB8DsfmfbqNbPmaLIc4uGn7NZ1sR9cMQN/HxuhaFxxt9axh8VV2EtOA3ZdYpTKNbBUDcQMgPk+gf48mIPkpssa3sfmdfDu24lUwHF3fZsdXufhMRfdQlo2vspMBZhDXAGhFzjl/HKNzFeAGQFyWx+Yd2ie24lVwL/r+3R1d68pZAV3fPo+vcm1k3YO5I9OV12fRmnbC826CezYgud9PTHBvJy3bGbTxEBK5klWOQoxcDZshzoVZRBsyPsNEiwjkyQCYpLy+nqpwOQu4M+G9TweOSXh/Jz5bGrTxa4M2QvIycLOyjd5IhE4W0a4VX5hoEYE8GQCfKK/PYxY3R8+fkWxsqfg9cGDC+zvx6AFsqmxjLHCPgS6hOcugDQtjKQTacr7atSoaeTIAPlVeP9pCCSd3vA38IeH9G4CLgfUS6uDEYWX0zsaXWyiCpLM9GrgeeBi4AzGGd8DGQ/1JYJyyjU0M9AjBaOX1uTEA8sQ56BwzLo2vspMRGoEbiO8M2NmZLkU6ancCjMde6Ma6Bf3XZx/E/6Rc9MtLwObK+wCcUuYelchEAx1CcAW6fv0+vsq1kacdgPHK65e2UMLJJfMRr+pTSReiMxq4JNG9nTisqLz+NaTqaa0MAu5HIlB6lfm7Mcgxw8GKe4FEA2hYmGyGdmzsVQAAIABJREFUZ2vXCjeaA7ArdRKa4QRlSeCXwGPIZKvNL1Gt7Bq+i1/CdwDicTm6sb5Ief9bq7xfM7Ct4n696LqsdjWyoeL+IWgAJqPr0w7Rta4DVkM/+XpJYKcreiHx27si23evEM4AGE/crJRuAMRDmy//CMW9a/1AepPyuwXdoa2yua/i3iFYGv1vPGvZQEuSpyOA1xGLVcMaFoo4hWMu8AZwC/ATpN76esA1yPGBJUsBPzVu08kGA5XXv6649sgar1sW2EVxX43OIMcWWUK7RsxFHI9zQZ4MgDnIJK0hy1XbnGzxX2A/YE3Ei9qSo5Ca406x0Oa3r9Uprj86j/qdFNdqo7O0RpM1ayuvH0fasOOqyJMBAPCi8vqshp042aXdY/rn6Heg2hmCFIxxioX2a3Zqjdctga763DKKa6cproXsFQXaXHn9CxZKxCJvBsBY5fUb4GUaneppAX4D7AnMMmrzKPxdLBra+bTW9Lq9lffVXK81irP0G+iLPl+Hdo2KSt4MgCeU1/cH1rVQxKlLbkWcreYYtDUC9xYuGrV+wbdT69fwh8r7akIPtVv42h0ESzZAb0w9aaFILPJoAGgtTotiHU79cg9wkFFbWS6J6lSP1gCoNVHUZ0jkSq08oLhWW2QtSwbA15XXzwOetlAkFnkzAGYgZ7IaYsdhO8XjavQx2wA7k70zUKd2tAbAcopra00hPBNd5UGNzpAtA0C7NryAjGduyJsBADprFcSr27MCOlp+im7rFGS7cWMDXZxsoDUANPHj5wPv13DdGcDHNd6zAX32w1rvbc1q6I2Z+y0UiUkeDYB/G7ThuwCOlmnYlG3dwqANJxtoz+I1WfFmAHtQ3RfoHUjJ6lpZCX3pXG1BISt2N2gjD1Ucc08/JJ+7JlPTM9G1dopIb+AjdO9iaKchzwQYj2PQjfUcxFFZw7rAe93cpwU5wtJkAAQJZdX0dybZ+AhtQDIiavoyC4kicCLwb/TpGlePrrVTRH6P7j2cjkxAoXADIB7boZ+XvmGgR3/gRL6a0no6cCPi7W7Bvej6+ryRHlq2QP/c/hVd6zrmMPQP7I/RtXaKyAbo38VRAfVzAyAeQ5Gva81432as0zBgVSQFtfaLvyNLIGmyNX39q6E+Gq5E/xv+fnSt65hFkHBAzQP7AvfAdvQ0Ic5fmndx64D6uQEQj2GIU5tmvJuR/PxZ53T0i2YWCgGNQLbvNf2YDywaW3ELsnD+UgvTgbeUbQwFDtSr4tQ5zehisEEMWiefNCBbyFcjUSHaZ9lI9otFDUafyrqVbHjNHwn0UbbxBtkKZyws6wDnAp+jtz5bkapNjVF74BSRK9C9h4cF1M13AMKwCHA8Ug3PYi7qKHOBleN1pWrOQt9HbV0XC/ojSZQsntkUJBfD1oT16ak7BgPHEq5Gu4cEOlrOQ/cOhvzicwPAjh6Io98NyCIdYj5ql3vJ5kKyCjZ9/3lsxbvgB4R5di8BR5O9Use5YgRwCnJWH/KHdkOk/jjFRftFdHJA3dwA0LMY8rX/FmHnos7yoxidq4LeSAi1tl8tZCMZ2z2EfX5TkR3rkbE6VASWR7xDtbH+1TykGCwD/BJJvvE0Ev99CVJzXhv766TlQnTv4NEBdXMDoDYakVTNt6J3OK5VZpOt4mXana52eSCy3l3RhORdiPUcLyYfzp3JGAH8mfBba12JNptVOQYhC0S5kJnpSCjKDsiL6eSLm9G9fwcH1M0NgOoYDZwGTCD+PNSVfEQ2vpaPwq5P+0XWvStGEf9ZzgX+BCwcoX+5oR9wEvpQKo0MDtS34cCzVeryCZKfO2RsuGPLy+jev70D6uYGQPf0BPYE7kIf2x5CXkcMk1R8H7txeYNsOF6vTLrnORk4Ac8cyG6kt7S/CNS3HujOmOYjSUGssnY5YRiCfos45DavGwClWQ74HfrY/RjyIbBWmGEoSQ9s4v07ilUpbS3DSP9M30OOmZKRyst0EcRxKgv10K8CvhWg3W8h4WEWPIQ4RN5v1J5jx57oHUkHE84XZQy6EtpzyUbIljW9kAx5WfS0L8VspN7AhRHutTgyf21p2OY7SPXAeYZtangVXQVGK24HDkVfTCoXfJfwnv2VSguwaaB+PhlA338BawTS16mNG9A9U21J4e7Q7gC4ZE/uQV+GtxRNSPRBiDk66dduF5xM+mfZLp8B3wnb3bQMAq4j/UB3FKsv9M4MINxZ4vw2vZcKpLtTOUugj1a5JbCObgAUU+YAf8HOs7wnsgCFyrcS+j2vhX7IrkTqZ9lRrgEGhux0CtZGnD9SD25HeZRw4XerRdB/BpIgyaMG0mERFvXjwDq6AVBsaQbuBPZH/FGqoQeSXfUswvpiTSetE2M5VkR24VI/x47yOrBmyE7H5IfEi+mvROYDZyPWXyhiGADt8jQFellyxGrIWab2+YUuS+0GQP1IM/Bf4HxkG//rwMbIIr8ukqZ2PyTM8Sbs0uB2J1nf2h6FlElO/fw6yixyXmGwEYl5TD2Q7TIO+A3hzs46MpC44UTzgN9iW+7TKY1VRrR3Ce+E5gaAS0r5G/lhDSQEexzpx61d/kAOi/b1R858Ug7cRMTn4BDSbD9VG/9vIU+RjaQhRecSbJ7XbyLourqRri61yRzgWmArJOw5i3kGQskLhN1pDcmiSH6Oi0kfqn4zORrHRZBtqBQD9SGyvb8e6cN7QhWa6E4mAXtE6F890oAs2lbPKkbFty0M9XWpXF4DfoIkA+vIzzKgWwx5h+LkwG9A1pSzkTUmxXg+wVffpcyxCPqsaNXKVODvyPlWFjJMtdMTeJ50P8A/teng2NAP8dC1ej4PR9J7W0OdXcrLLCSl92aU/wCxyqmfVfkEWKFM//NMI7LW/J342WvHkmEjYASSMCTWYHyIJMcZGqFvtbICabOM/ZtwaY7rieWwN+Z2iKT72sZ6u3xVXkaiOSqtKdIDuCwDeoeQz5B3rh4YiNRIGE+88X0VOZ7IFIsQLn60szyBnM3kJfxtRdL4A7TLWGDJ4L0sJoOAU5EvO8tn8nTEPrgTYBiZhfgYbU1tx40NyAdM6n5YygdIdEy90QTsg/hgxRjnF8nQTsAA4ixw45CFP/XZfi20J9mI9YJ09cOsF6vcgpWQqIrPCfM8tovXFTcAjOUF4Aiqj7kvxbFIRtLU/dLKK3gBMxCDMMZO+NNkoIx8I/BPwnZ0InA8xQlxWxn4NXG3jVqR86qNwncvNwxFcsFviXhnHwX8lfAJq7R1A6rFDQC9TEMiP9avcuwrZSfixeSHeqf9qHEBTUj02UeEHffbSbwTfkEXSllJC1L0YlC03sSlAXHQuot4XwBTgQ1jdC6jNCHJNZ4izVfXdOJ/JbkBULs8gxRpiTEHjQIeidw/rcxGdkOcrhkEXETYuea8aL3pxJEVKliLvIVtFaqssyriVTqX8D/aKdRnieHRwHOknTBTlEJ1A6D638dFSPa82DQhu53Tq9A3lTyOFyarlC2Btwn3LA6P1xVhPSTBRYjOXEAGzjYSsQJwPeG/TqcQbjsziyxB+nzfoQpPdYcbAN3LPOTr+yDEpyk1SyKpelOPS1cyEfgeOcxOl5gByI52iGcymxp9vGpxqBuCOP1ZZ5ybjdQNuNS43TyyHvBHwp7ZT0R2At4KeI8s0IBM7imPPl5su//0BPceA7ykuP5DYBcjXbLIF8D7SB79rLEFcBLZ2A2djGw3n4OMmVMb+yG+RtaZ/d5Edq2mGrf7JRoIUzThPeBrIRXPIQ1INsHJhLPmX6Py2OW8shtpv5jGkzYjmnYH4J34Kjud2BC4DTFSYr+/HwInUFxfrBSsSZgjgWtDK354AKUfA4aFVjzHjCRsXYUHKE6ERVfcQPxJs10mIiGFKXEDoDgsjkSrWBSiKiftOQ52Jj/5VvLGMMSPwvrZfTuUwqOwT314P5JNyemewwlXVvkfEfsRm1S5u98HVonQv+5wA6CYrAgchizUn6J7xs1IZMwZwPbUrw9WbPoj2Vot553PqCJJUDU+AP8Edq3i77vjdiR70izDNovOWsg2z/IB2j4U+EuAdlPSgDh4xa4RMQ5J9vNu5Pt2hdYHYDxeYTLrNCCOgysghsHySHbWAR2kGclnMBmYgWxBv95BUvinOFJa/GpsC7hdBnzXsD32xNZKuQXfWqqVQUjuAOsv1lnI2VTRmELcL//byJZfhe8AOE62aQJuxW4OagE2t1JuELYhVI+To9rGGaUJ+Vq3Xrxep3jOPrFKU88DjiN7qardAHCc7NMPW5+AVzHy7TrNUKk3kaqBjg0nYJ8zoGjHACcRfvF/nOzunrgB4Dj5YBiycFvNS+oEQSOwc/ybBCyrVcj5CkdhawS0ICmKi8LChAul/AhJLZzlpChuADhOflgGybNgMT99iHK3/WwjRVqxdXJwvoy1EfAexSrucSC2C//7wI+AvhH7UCtuADhOvtgJu/n8uFqVGAnMNFIiWcGCOuJYbBe5P8dVPzgnoftRzUUcdfYiX3kT3ABwnPxxHjbz+GfU6Nd1vpECLyChDk54/oSdAdBMds+1a2UXJPVxpWPwPpIj4QCqiK3NGG4AOE7+6A2MxWYuP7HUTUp5LA9BJj9tYYwWYBMk258TnkYkX8NORu09DGyGvERFoRfi47AdUiGwD+LnMh0JGRyHREOMQ45C8o7nAXCcfLIe4mCs9TH6EJnr5lV6wdHYWB5F20bOAwOA57HbCdg3rvqOMb4D4Dj55QJs5vF9Kr1hD+ANgxt+hOwkOPFZDjvP9zeBnnHVdwxxA8Bx8stgZC3VzuMPV3rDHQ1u1opBDKKjYhfsPEkPjqy7Y4cbAI6Tb36IzTy+VueGu/IBuAFJ/avhXSQn9RxlO46Oi5Ac/1reQ/KM+/PMH+4D4GSVUcCiyFfuQOT4sgWpVTAdyR3zEXKGXc/0REq3L6Ns509IyHhJBmIT+negUlHHhoHIF5yF9WhhSDjx8R0AJwuMQXJnXIWUM55G5e/gVCSl9xXIzvLKkXXPAt9FP4d/RDeF0fYzuMn47m7iRGUrbI4CXiV7ee6d7nEDwElBI7ADsmhbnGF3lg+REN3tqY/1pgnZWdeO2xblbnKbwQ2ON+muY8nV2PzodoituKPGDQAnJssBZyELtPWiX84YOKvt3kXmZ+jH6qJSjQ9Gzng1jc9Ccq872WIJ5ExN+/L8O7bijho3AJwYrApcjsSax1r4O8t85CN27cB9TcXCyBqrGaOJlNgx2VXZcCtwmWVvHVNOQf98Wyi+lV003ABwQjIauBH7qqTaeep6YMlw3U7GZejHZ/2uGj7XoOGtTLvqWDII+Bz9Mz41tuKOCjcAnBD0RDzKq3Hmiy0zkA+fIqWi3wb9uJzQVcMvKRv9FHFUcLLLL9C/POPJdvlb58u4AeBYsxa2detDy4vIEUURaAQ+QTce93ZudBH0Wzie9jf7DEJia7U/qM0j6+3UjhsAjiXfwa5KbEyZRTcx8DniQvRj8aVS5vsoG2xFtiac7PNH9M/ajb384AaAY0E/JElc6oVcK5eRr3LeXbEd+nH4Ujjg75SNzUFeECf7LIt4y2qe9wQ8J0BecAPA0TIUeIT0i7eV/AfZDc0r/YDZ6MbgJ7DgLHcNpUKPIdtCTvZ5C7hb2cZIYE0DXRzHyTZLIfP7RqkVMWRLxAgYnlqRGpkJPKlsY01YYACsrmzsfuX1TlwuN2hjF4M2HMfJLosjc/tKqRUJwLrAfcjuRh65T3n9/xcGGo5+S8XP//NFP/ThOw9F19qpBT8CcGphIcR7PvV2fWh5kE4OcTlhe3T9bgb69UAmCC0vGrThxGMm8E9lG+sBfQx0cRwnWzQC11Gc0LlybApcQ/5Cm19QXt8IrNwDfbakj9vEyRe3Kq/vDXzNQhHHcTLFGdRXUrddgRNTK1ElHyG5dzQs1YTkidcwVnm9k4Z7kLzdPRVtbINkFxyFvEft9b17IqWI+yDbay3AFGTr6fMOMgFJLPRO2/92HCctOwPHRLzfPOBtpOTvlLb/bwhSm2Y0uvmpGk5BIh0eiHQ/C8YCWyuuX6oJmbQ1+BlhPpmMePdupmjjF21iwWfIttZYpF74I0j5S8dx4jAc+CthQ3wnA7cjC+0jSFRSc4m/7YmELW+ExK3viBgHIWhEqqaugRTMyQPatXcpkIehcSY4SamEk45TSO+EU07eRyIW9sWrTNaKOwE6lXId4X7LDwN7o/Mb6gPshTjuhdLzUoV+sdGmdr8Z4CllIwcG7qQTjm1Jv8hXKs3ID/9wJHW1UxluADiVsDVhfrdPApsE0HcjZAfTWt+WQPqG4EB0fX0C4BVlI9sG7qQTjsHoswKmkGZk52o3vABVd7gB4HRHE/Aytr/RacChhPWubwC+xwL/Iit5kXzMK9rKgC+BbLNqGlkvdC+dIAxHPF/nkH5B18gHwHGI06HzVdwAcLrju9j+Jl8AVoyo/3LAs8Z9ODCi/rXyPxj8tr9QNlLELFFFZkngYqQiVOrF21I+B36JJDBxFuAGgFOOnogjntXv8D7S5NnvD9xRg76l5A3EMTDLrIauj58CzFU2sljoXjomLAyci76IRNZlKhLHnNc839a4AeCU49vY/fZuJ22lvZ7ATV3oVavsG1f9qlkGXf9mgP4MOK+5lOuFnsAhSGhL6sU5pkxC6n9n3YoPjRsATjkex+b39ijZqAjbBwkxtOjT03FVr5qR6Po3F/RnwB6elV22A8aRfjFOKU9T334qbgA4pVgLm9/Yh8CIyLqXYziSZMyibxap8kMxGl3fpvegzQpQkAdvyXpjKBLPehewQmJdUrMO8pVzMe4f4Dgd+ZZBGy3IMYI2La0lE4H9EN20fMegjVBosyTOBb0ToDaToGPLTohFnvrLO4syASn+UU/4DoDTFQ1Ipk3tb+qvsRWvgr9gM2dktVCQ9rf9CUhRAU0jK4fupVMRTUhmvzzG9ceU5rZxqhffADcAnK5YD/1vaRLZdrYdhqQe1vZz7diKV8j66Po1oQfiNa0hS2c/9crSSFasX5JdazUrNCLjdBeeUdCpXyyq/Z1HtvPmfw782aCdLQzaCIF2/prcg7ZtAAVZtgDrgU2B/+Kleatla+B5YOPUijhOAjZTXj8bm8U1NOcgju4asloaWfvx/UkTeucN3wFIxzcRZz9NgY16ZlHgXsQZ6obEumSV4UiRGKdYaPPd347+4xFkR24T5Ct7FOK49x5SrvxJ9I58E4F/Absr2tgY2Vm1cCq0RLv2ftqE/iGOVl7v1MapwMmplQCmA68h4YYfID4lnyIeppPb/qYfkqlrIFJ/YBgSnbASUu4zZfKQ3sD/AoeRbYemVPRHqrg5TkeuNmhjF+Asuo5UOhUpDX4sYqRruBqdATAQMU6yVp58tPL6j0EWEY0jwa1KJZzqaADOJp0T3cvA+cD+yOKtpQlYHgm3uQyx/lP17RcG/ckaWidAF5fOMg8YgI5fIl/U3d1rPlLrQ8NQ9M7RWSx69wC6Pp0A+lSQ4wJ30llAD2xCW6qR+cD9yBfyUuG7CIhBcCTi2xB7cjs3Qv9i4gaAi7U8hY5DarjnAcp7aosF/Uh5/xBoI/j2AVhX2cg8ZBvVCUsDkswm1o98PGIhLhGhb+VYBfgddpm9KpFTo/QsDm4AuFjLRdTOCCTyrNp7TkbncH5ZDffsKH9U3DsEg9E/xzVAzjcq2YopJ+uH7asD/IY4P+5HgV3JXpx8T+Ag4HXijMMP43QrOG4AuFjLsdTOLxT31fg8nai4byvwN8W9Q7A1uv7MB/r1AKYhmeM0bKC83inPMbSd1wTkMeSl2gi4BXlBssQ84O9I4qn9EV+EkJxH2xZZzvG8EI41ExTX7qy4dlfFtR8prgX5UM4S2jX3XWBm++TwSmJlnNLsinjKhuJ9pOzlxsB/At7HivmIV++awNHoE1mVogdwOdmNAa4Ur3/gWDNdce3yimtXVFw7TXEtZM8A0O66vwYLvg60Th0bIWfUji1jgCsI8xXXgkQTrISEwbUGuEdImpEkHysD1wa6R2/geuI5P4agb2oFnMKhKSCnKRncl9qPJrXJgFKGKnemEf1H91OwYGF5XNnYSNocChwzFkK24kNYnm8iGQSPAWYGaD8mHyIJkXYGPgvQ/lDEwNBW3krF56kVcAqHZhHX5J35lNqPJrXzqGbXw5r10O/sPQoLDIDH0H8B7qi83vkyF2ITZ9+ZfyJpgx8N0HZKbkfqmz8SoO31gd8GaDcGeTfwnOwxWHHtE4prNXOWRmfQHyFYsoPy+hY67QBMQryrNbgBYMfB2DugzQd+jGTEmtzN3+aVCUhK0TOwP9I4Bslc5jj1zjKKa69RXKvJPqjRGbJlAHxdef3LwJTO/6c2wcx8JF2io2MFZLvJMmxnKvqXJm8cgEQOWI7jF8CSMTthgIcBuliLZiFuQL4+q73nY+j8zG6t4Z4d5TTFvS1ZGn3YfpdFnHZTNtoK/My2r3XJv7D9sX6CbI3XIzsCM7Adz39G7YEeNwBcrOUddCyL+KZUer9P0DniNrS1oenztxT3t0STR6Fdutyt7w/MUjasDSesd9bG9of6AeIlX89siHy5W47rTlF7oMMNAJcQot0JWxV4u4L7vErXxYKqvZe2v1kpt/4aun7MpIwT593KxlsRD0WnNn6J3Q/0I2C5uOpnlvWxPVZ5m/yE17kB4BJCfoyeAcApdJ3m+23gp9iUOtdmAWwFBhnooWUD9P24vWODTZ1ucAf6qkdHkp3tkrwxxqidKciZ/5tG7eWdJxEHvn9hU7diaSQzYxbKMYdmInB4aiUcc84BFldcv29bGxqmIwbAqchO5VKIL9l49E7pHdGuR28QLuFYNRxp0MYd5f5xJJJgRWNhzMWdAWvlTvQW3hwkxt/5Kt9AXxa0XWaj35qMgXYH4J34KjsRuBz9byAPu72boe/nxdG1/iojkbVV0495wGIdG+2cYe4D4D6loj3xL4Za0STJaOeHwEMG7RSRa4GTjNrqDfzKqC3Hic0DBm381KCN0FjUUNGuiRYcgT4Z2T1UUBPhW+gtpmnAokpl65HD0I37n+KrnDt6YBdpMR9YPa76VeM7AE5XjES/G9ZCtuvAbI7Nb3xEZL07Mxw51tX25RuV3KwftdVr7izna3pcpyxG7ZEYz2Bzvl0PLIwUQbIwAm6MrHu1uAHglOIR9O//02SvdDjI1/JL6Pt3f2zFu+DP6PsxhSocl/9mcMO55OOMNGv8nurHeio+1tWyEXp/l1bkCyHLY+8GgFOKI9G//61I9FLWOB2bvh0UW/FOrID+7L+VKv0YVkOfbagVKWbjVEcfxGu90jFuAfZOomn+sbCsW4ELYiteBW4AOKUYhsSFa9//ZiQFd1bYBhtn35mkD//TZjBsXyNWqfbGFjkBWvHFqRYWQhw2uhvbWXjIpYYhwMfo3/EZbW1lETcAnHJcis08Pwn5cEzNGEQXiz5dFlf1r/BNbPpRNvSvFNsa3Xwi4sTgVEcjcCCSXbHzmM5E8nFnees5L1g4vbaS3cgXNwCccqyFzW5vKxJFVvWXpiHLA+91oVctMh9YKa76X2IYNh8nrcBWtSjQAIw1UuDyWhRw/p+lkRKQewIbo6vH7XyZBmycoZ6PrXiFuAHgdMfN2MzzrUiO/43iqg9Its9Pa9C3lFwbV/2vcCU2/VDNS3sbKdGKfM06ThbZDpt3fI3YileAGwBOd6yJXYKsViQZ2dHoqvdVwxFIYi4r/VOH9+5fQq9aZA+NIg3AE0aKzKJ+q9I52aeWEqWd5fToWnePGwBOJVyC3aLTLvcAKwbUeXngrgB6XxhQ5+5YDbsKpk9hYIRZfR21AuNI71XpOF2xO/r3+63oWnePGwBOJQzHvmpmK7IbcB766oEdGQWci+1Xf7t8Cgw11LUaBiM1EKz6UtPZf1dYWln3AL2sFHMcIxqQ0qPa99uqoJMVbgA4lfI97BfUdpkLXIcU5apl/u/Vdu21iFERSs8DatDNgt7AfyrUsRKpyfO/FMtha239L1+tQ+A4qfkZ+nf7mOhal8cNAKcabiHc4tou05GPypOAvZDz9iWRL++hSFXANRAftF8gIemW5bxLyY3E81voSA/EOLLqR5BCZVaZldrlXGsFHUfJKPTOUP+OrnV53ABwqmEEEs4XerHNmryJbMHHpgFJm2/Zl1NDKNoPGSRLRf+M7wQ42eI+dO/0TLJ1xOUGgFMt/0OY8/WsyixgHZORq45GJEWvZV/GUUXO/2rZEJv86R3lavRlDh3Hiu+if6fXj651adwAcGrB4neQB2lGGSpXI70QfwbLvswHNgmt+B+MlW5FHBZSbL84TmcWQ58ZLUt+AG4AOLXyc9Iv0CGlBfi+2WhVTqWp3quVM2Io3xe7DIEd5XWykUvacbTRAFfFV7kkbgA4GmqpTpoXOc5wnCplXeQ3Zd2X54hYDn4FpAStdSdmAN+O1QnHKYG2SuCL8VUuiRsAjpbjsasXkAVpBn5gOkKVcQjib2Ddn8lIpF5U9jFQvJTchnhkO04K9kL3/s4lO46AbgA4FhwAzCP94q2VOcA3jMemO0YDdyr1LiUtSI2YJJxVgYK1ymTgUNLEZTr1zUj072/KSmIdcQPAsWIb7CrUpZD3kWJqsWgCjiVsDoPfRutNF/QAbupCKUt5EUkI4YaAE4sGYBq693b76Fp3jRsAjiUjCJN/P7TcCywSYDy6ogeyZllkFi0n15OBMPr+wNOEf4CfA/9C0lWOjNIzp555Bt37elh8lbvEDQDHmkbgp8TJzqeVqcSrTNiALPwvRejX4wSM96+WEYS3djpKC/Ao8GPkfMVxrLka3TualcqAbgA4oVgcuJz0i3wpuQ3bIkTlWBW7yrndyYvAwnG6VTkjkWpoKR7068AFiPUV64E7xeYUdO/kRdE17ho3AJzQbA08TPoFv10eBLYI2uMvsy36I8Nq1rpF43SrekYD40nUaV2tAAAgAElEQVT/AnyCJBc6EzgY2BSxVptCddwpHEegewdviK9yl7gB4MRiU6RwT4qQwZa2ewfPhNeJVYi3+L+FcXSc9YI4HvGy/DewsnHb1TAC+HqbdKQVmIjUfJ7eJs3IA+zPgtCtQSyoTLUQ4mgxA3geqWT4j7ZrnOKifb5DTLRwnPzwUJssCeyL+GstH/ie7wHXAH8D3gh8r644GxgQ4T4vAdsBH0a4l5qFgadIvxMQSt5Htr2c4rInunfk4fgqd4nvADipaADWQ1IK34sUytLOvTOQD8wTgK/F60qXrEyc9eZx5EPUnFBb4p8BWwJXALsFukdKlkAiEr6JhEE6xUO7AxAtLafjZJRW5EPwKcQptjewBrBim6yAHM0OAAYiu2YtiOf+VGSH9gPk3Htc239fQBJtZYEYRYRuRJIwzYhwL3N6IA++SGkkO8p0wm9xOWlYH9278XR8lbvEdwAcJwxXEW5taQFOI3D4YugkAi3I9s8dge+Tiv5EqsDkROcT5fUTTbRwHCer9AnY9q3AyYgxEIzQBkAT8Fdgp8D3SckuyDaWU57hwI6IY9A3EO/ZLDMBST5VKy9YKeI4TibRzA/dsSsS2t4Y8B5B6Q/cTvpt+hiyl9GYFZG1gFvo+hjoZeR8K6tpnv9K7e/Eegn07Qo/AnCcMHyX8GvLjYTdaQjCwsCTpF+YY8mxNsNWKPoDf0DCLLsbvzva/j5rLA3Mpvr34V8plC2BGwCOE4YhxMkB8BAwOFKf1AwiTm2ALMkRJiNXHLZHFo5qxvABspmo6WCq68fHZKuUtRsAjhOOXxJnjXmQDOX+L0VfRNHUC3Js2dJi8ApAI1Iiutaoj5Pjq1wRhyOhR93p/zawWiIdS+EGgOOEownJcRBjnbkd6BmnW9XTC9nKTb0Yx5YpZHP7OjYLo/8hTEF2kLLImsj73dWRxlQk7fTQZNqVxg0AxwlLXyRDbIz15ioyUAK4Ky4l/WKcQv5gMXg5ZxXsakDsG1f1qlkY8dA9AjgI2f3JctIfNwAcJw47Aq8Rfs05M1aHKuUwwnZ4IuJUGKvoQqXyLjlyzgjEGkhtBasx/X1c9QuPGwCOE48m4BDgI8KtOy1kKPJsfWrzlK5EJgPHsyAMoi+wA3AO8Gqge1Yqn5K9897YrIvEwlqO68VRe1B83ABwnPgMBH6NpPANsf5MQVIpJ2U4Uo0pRAcfRKpKlWNJYH/gXKRgwqxAunSW+5EQsXpmNcRAsx7bzG1v5Rw3ABwnHSsCzxBmHXqRxP5n13ehlFbmAadQWwaknsDqyPbICYhfwiNIEYlajw/mI0cQzwIXITWv650RVB/mV6nsH7Ef9YAbAI6TliZkTZuP/Xx5jkYxTQa2XYF/am7eBe8hTmCPGbfbTl9k12IQ4rjVhy/HVs5hQcnKScAXyFaLs4A+wH+ADQO0PRNYDPGqd2wYg9QSr5Xx+G5X1umNOOKuCKzU9t+FEf+k/iw4Qp2MFDCbgYSsvopU2XsVqbrnhGVr4EpgEcM2W4CNgCcM2+yWQcD72Foyr5CtBCpO11xCmC//VrywUgh8B6B4NCCppn8G/Bubc+Y3gb8gJc4XjteVumNpZEfact58lciRSBcYd+AxYKGYHXBqYlfCLf4vIXXBHVvcACgOoxCn6DcI9ztsRXJd3AN8B+gXpWf1xaLA89g+s2hJ1FahsvzulcqdeCKdPDAcKZEbYsJ5FVgiXlfqCjcA8s9WyLFbrRk2NfI54s3uuwK2DEFy/Fs9p+mIYVEVtfgA3AjsUcN1XfEM4lQ306g9Jxw3AHsGaPdS4EjkBXbs0foATAA2M9Ili8xGQnqbUyvSBTsDP0dCrVMzAzkiOBOpd+HoGYg4qa9u1N55yFwajHWws0LHY+sM4YRjc+y/LN4GtonYh3pFuwNQD9KCfIwcSzbmpOWBu0k/Ll3JFOAoslm4K48shRhUFs9mDrBMSGXvMlJ0CrBqSEUdMxqA/2I7idyBbIE54XEDoDqZi+x2bUf8nOu9gdMIl1jNUp4H/ifMMNQd67Mg+kwrfw+l5GpGCrYCu4dS0jFnX2wnjt+R0WIWBcUNgNrlHeAkYPGqR716liN/ZdTnIZEI/nvWcyA2z2QuEkptzoVGCl4ZQjknCA3Yplw+Ka76Dm4AWMg8JOfJjtSWoKw79kV2RVP3s1a5C0kO5ui4GZvnYR4RMBCbF/RTxJvcyQfbYzdJ/Cay7o7gBoCtvIdkdbPIWdIA/CoDfbKQt8lAbvqcsziSfE77LD5EsuKa8UMDpVrxrf+8cSc2z/1GfJswFW4AhJH5SKz83tQ22TYiha9S98NSPgc2qGEsnAUchM2z2NtSqScMFHrEUiEnOMtjE/HxFrKD5KRhHdIvDEWXD5BY+UpTJjchRwqp9Q4h0/B6KRoagOfQP4fbrBQaic1CsLmVQk4UTkL/zJuBjWMr7nyJ7Ui/KNSLzEfC9/YCepV5JkX78u8sk4E1y/TfKc9u6J/BbCRlv5rDDZR52EIRJyoWVujF0bV2OrM56ReEepQvkPd/TKfncWIGdIshn+I+ARqeQv8M9rVQ5B4DRbawUMSJxtLon/k0AoWjOFVhGb7rUr20IGl8v4mEeqVI55tKxuHHf7WyC/rxv0GrRH8krlCjxOvoyg478TkK/cv3++haO13hToAuKeUanFpoRNJwa8Z+Gt04qHaXznH97hqogCvalHHyg/bcfj7wZwtFHMepmBak7sMTyIfXm0gO/0lAX6Sy3+LI1vyqwCaEz8j5TeBB4KLA9yka85GcOccr2hgArIUcJ9SE1hGshcC5iZ0gvI/uuZt5oDpqfAeg2DIfuBc4ABhGdTQC6wFnY5ePviuZhWQ6dKpjBfRjf4xGgduVN3fnv/wxCv1L953oWjulcAOgmDIXyfu+Ejb0QmLQxwXS9y4jPesNbXromzU3/0x581M0N3eSsDO6Zz4fWCi61k4p3AAonjzAV6MLrGgCjkZC+az1Nk1OUyf8Bt2Yf1qu8XI+ACOpfkupMw8qr3fiM1p5/atICJRTDJqR9LdFoxEpxZon5iBnwn9CJvcQNCNHAjcgZ9CWSX3+CNyK9MOpjPuBExTXD2+TidVeuC06y2MO4nTi5Iuz0D33y6Jr7JRDuwPwTnyVo7EKsth9Tvqv+u7kY+BrYYahJI3AmQa6d5QfRO1B/umHvjx0TU7dP1be9NFabuok5zp0z11jrTr2uAHQPX2A/ZCvrSzG6b9NWie6I5CjPYu+vINxoZo64BF0Y35wqYbLFWhZVqn0y8rrnTRoqzVOMNHCceIxG7gaSVi2IvLVW/bsNCIfA9sgIX2pOB841qit0Yix5VSOdi0dXeofyhkAiytv+qryeicNvZXXZ2XidJxaeAM5Zx+FOK39G9kVSMFs4OtIQa3UnAOca9TWIUbt1AvjlNcvWuofyhkA2jSu45XXO2koV8SkEuaaaOE4aZmLOMJtBywJ/Ax4N7IORyE1ObLCccBjBu1siNcJqIbxyutrMgBKXlQhnyivd9KgNQDmm2jhONnhA+AM5Bx+VyQ/Suj3/F/AXwLfo1rmIQmHZhu0tb9BG/WCdi1dpNQ/lDMAtEUcfCs4n8xTXh86tajjpKIZCWPbGTlX/SVhdgVmA0cGaNeCNxEfCS37GLRRL2jX0v61XDQTneehdgfBScPd6J77QfFVdsrgUQBh6QFsjUTPaAuntcvZUXtQPf2RRUnbzyViK55TFkcfRdIlpXYAeiChMRpmKa930vC58vqlTLRwnHzQguTi3wfxFdBu185FEuZkmRlIMiItWxq0UQ9oEyf1LfUP5QwAbQlfPwvOJ58pr1/NRAvHyR+z0YfR3oYU47JiAOK7sBiS2MeKvyBHIhrcAKgM7TiXfO6lDIBm9KEvWmcyJw3aM821TbRwnPyxHuX9qirhCgM9BiBRC2ORmvBvAB8iZYGvBzYyuMenyHGhhnUN9KgHtKHZNUVmadMPjlQq7aRhO/Rne8tH19ophfsAxONodGM9E/1kvwEStdDdvS5Ff8x7cAX3KSezsd2VKCpLEOg3XM5a1Z47lAw9cDLNiwZtbG/QhuPkjRWV1z+Obt7dCLiPypK4HYiEM2rS8t6vuBbE2HGfoe7RrqUl36lyBoC2opt7eOaTD9E7AnqMr1OPaLOnPqG4dhCSuKiar/qtgF8p7vkW+hA1rdFUD4xSXl9yPi9nAGgXATcA8ou2kNP6wOoWijhOjhikvP41xbVHU1vo9Y/RLTDaNLUjlNfXA1oDoKRjdzkDQOsN7gZAfrnLoI2jDNpwnDwxWHl9yXjtCvhWjdf1Br6huK+2ToE24Vw9oPWnq2kHQFvVTWu1OOm406CNA/DtPae+0O4ATKnxukXQlQveRHFtrTq34wZA92jX0g9K/UM5A0Br2a2pvN5Jx3j0W3uNwOl6VRwnN2gXs+k1XqfNuqrxXahV53YGKK+vB9ZSXl91JkDQGwBjgKHKNpx0XG3Qxp7AHgbtOE4e0CY/a6rxuhnK+2oWca8eGpYh6HdSazIAXlfetAFJjOHkk79jk83xfDwk1KkPpiqvr/UI4QN04YNvKq7VfsFrdxCKzvrok0uVfL7lGn4FfS6ADZTXO+mYgI0z4GLATegTnDhO1tEuZrUayrOQ+P9auU1xrfb4YZry+qKjXUM/p0YfgLnAS8qbb6i83kmLVT3yDYGL0VuyjpNltDsAmq3eWgsIvQzcobivdnta60RYdLQGwHPl/rG7CfkZ5c03w+vD55nb6OYFqoIDgL/iRoBTXMYrr9cU0roXuLbKa+YBh1H7UV9fdNEHoB+zIjMQ2FTZhmr+/jb6vPDf1SjgJGdH9O9AR7mGMuUpHXO8FkA8foZurDVn8QD9gQcrvNccZH7XsFWF9yon/oFYmm+gH9/dNAosbqCARUx5XhiKVMNbB/3ZWJZ4DFsj4Ek8T0Qs3ACIx+7ofxvLKHXoBZyJLPCl7jEWm4qAvytzj0rkYwMdisy16Ma3BRimVeJVpRLzKHa6x57AIchxSee+jwOOQyzzPLMJ8jJZGgGTkYIksRjWdr8/ISVX/4xUM9PWb886bgDEY0X0v4ufG+kyCjgWuBkpMvQf4EJkR8+iAl8Dsn2v6ev9BnoUlYUQ507N+I61UORspRKtwA8tFMkgOyP5u7vr/xvIrkCeuQBbA6BdHgC+FlDvJYDzkFjpru4/FwlVLOpWpBsA8WgAPkE33uPIh5/MFuh/+6dG1zo//Aj9+P7eQpHNDBR5g2LVfV4TsairGYNJ6DM6pWQg8C5hjIAW4BZgS0N9V0WMltkV6vAaxSxN6gZAXLTbtq0oz20jcSf6fm4WXet80IBE4GnHd2MLZRqBiQbK7G2hTGL6An8AmqltDF6junKdWWN77I8COsuryJfBGlT3JdSAVCD8CeJjUOu9835c0xk3AOLyA/S/gafJ9i7Aeuj7OBPPDVKKXdCP78cYfnRfYqDQ01bKJGJjZHtOOw5HxFbcmN9iv+iXkilIgpPzgJ8C+yOG5N5IWOExSPzzPUhdcot71hpPnVXcAIjLaGyM5IMj610pPajdwO4omuRDRedh9ON7gaVCmxgo1ApsbalUJPoifhDzsRmDJ+Oqb04PJHGIxVhkUaZRLH8ANwDi8xD69/AzJItm1rA4m25FV4K4yGyPzfiub61YJc5u3cnT5MsXYEngKWwXmDnUXvQjKwxEMojFXJhjyi52Q5UcNwDicwg27+EDZGu+XB3Zutf2awqeC6QregDPoh9fbSXXLjnRQLFW8rMFviviuBdigSlCWOQywHvEW5RjyomG45QaNwDiMwR9CFe7nBtZ91IshlSVs+jTJZF1zwsHYTO+x4VQbmHsrD9N/enQNCIJLkI6u2nrhmeF5YD3Cb8gx5bTLAcpMW4ApOFC7N7H1AbpECSlrEVfWpAIHefLLIyNH9MMDJL/lOKvBgq2AleFUlBJX6RyXcjFpWgT6vJI5cCQYxZbDjMdobS4AZCGpZEkaFbv5O/iqv//LIbd4t8K3BhX/dxwHTbje35IJcdg92WctVjXhYBHCL+4BH1AiRiF7SSRWkImJoqNGwDpuALb9/LvxD07/x/sj/nynhAtBN/CZmybgRVCK3u9kbKTECs5C4xGn/K4EpmLvnxmVukP3ED4MQwtr1oPTGLcAEjHClSeiKpSeQFxxgtJT+B4ZL6y1P2GwHrnkeWRMtIW43tlDIXHYBcS9wzpE68sTbxz7JMj9SkVDUguc+uJI6bsaj4qaXEDIC2/xv4dnYekeR0aQN+tgBcD6DwNLwDWmcHYZPxrRb7+o31cXmWkdCtSrCJVqMsSwFsV6GghF5Pt7F6WrI0UoogxrpZyXojBSIwbAGnph4xhiPd1CuIbsJRSx56I4ftoID1bCeSZnmN6AfdiN77/iKn8UthEBLTL5cQ3AhbBJrdBd/IFEt7REKdbmaE3cDr2W6AhZD7wG4ppoLkBkJ4dCBtV1ILkDDgaqVNSyXu8ELAHEq1gkeq9nDyDGBmO0IjtR/R0YGTUHgCnKJXuLNcSL0HOEMJ/oc5FSs8GC8nICUsjL3voGgK1yn2Is1NRcQMgG5xFvHd6BuKUexPiOHg+sgN5NVLELGbo7mRgWYPxKwqNyAev5RgnCRPth74edGe5mfAx8k3AXcZ6d5bbiOCNmTPWAW7Fzn9EK48gJU2LjhsA2aCJsFvsWZU9LQavIPTDPsz8DRIWmNsS+y+714CVAup8rrG+HeUzYL+AuheBZZGCO5OJPxnNRKzvTYP3Mju4AZAdlgI+JP57n0pS5S7IIktgn1a+hQzU17FKDtRRvgD2CaDr9wPo2i43I34FTmX0R57xtYiHcKjnMg94EDicYhX5qRQ3ALLFqsj8lmJBjimXU39+T6XYhTB+Fn+O2YlSDCacl+utiOVkwYaECU+bC/zYSMd6pQ+wI+I0+B90cbGzkYIaFyLJpgZF7EcWcQMge2yAnNOnXqRDyS3kv+CZBQthnwyqXd7E4LjcykJbHymB2cuovY5MRcrxnoskD6qF9lzWo410audD5Cv2UeN2650eSJ2B0ci26ZJIAaXeyDkayI/gC+Dztv9OQOKX30BiYh1hDBJrXCvjyU7CriKxDXIePCC1IsbcjByDzk6tSEL6IjuOPyOME/gc5IP22QBt18zRhLUqp/B/7Z13lF9Vtcc/mZBMSAeSAAkllQQIIUgvAaQ8OkiT4vPRRASfoCIivIfPgiLo89FFiiJVBERAEAHBUAUiPbQgJEBIoYT0OjPvjz3DJCQz8/v9Trvl+1lrr1krK7979zn73nP2PWefve0LsZZkEr8PoM/zZLNetxDLoxWA7LIVMIP0X+y+5FrK/eXfH/gu4U9ZfD1Wg6qhE3bMJPRD1gA8inXChhXo5avE4vLyMLb1IUTWkQOQbTYC3iD95O0ijVgFzTLu+Q/AcvnfQpycJ14T/vg2WDdsD3cHz9dtj+nAM9hyyAyspOKHWGcNBy7Hlo59cTvwJWwZRoisoy2A7NMLuIJ8niD6CDgGuCe1Io50wlLpbk1rwaVZ2MrzJ83/1gOLKRqKBXOOxt6vWAnEHsOi/jM99wzAAhRSe6Uh5A6U0UrkC60A5IcTyVdw4KPkP79/HfA1YArp+7M9mYRtMeSCDQh3MiCV3IfflQQhYiAHIF8Mwn+mON/yMXAa6Wq4+KI3cC/p+7Mj+Rc5dLQGk32vqlL5OwmzLQnhgByAfLIv8Drpx77lZSmWUrgI6c1XA/5C+j7tSN7CPqhzyVBs6SJ1J7rI69h5TiHyiByA/FIHHIAV00k5Bi7GViWKlN78FNLPLR3Ja7hXekxOf+AJ0ndmLfIRxXroRfmQA5B/6rByvXcTJplZWzIFO3rtKxlbVugMTCX9/NKePEoxVloAi6C8nfSdWo00kIE8y0I4IgegWPQHTsUSr4VwBt7D0rvvQjHLY4O1LfX80p7cQgG3nDthgSMxPVgXOTdMNwgRFTkAxaUHsBdWdOd+7Iu9muJsc7HthRuAkyjPaueppJ9fViVLgR8Q0fGKmbWpCUvn+wyWmS/LUY1PAT9MrYQQQrTDfOCvzdJCdyz/yQAsv0BPbAW2CTvPPq9Z3sKWwctIFpfWJwNHYnNP4VkT+A3+Swn7kLkUIPBCiGa0AiDEinyT9PNMizQCV1LOSqWMAyaS3gjLy7eCtliIuMgBEGJFdiL9PNOEpYDeLXBbM0895pFloSjG85S7mIUoHnIAhFiR1YAPSDfPTMPi4UJUz80tPYAzac3jH1sWA2ODt1KIuMgBEGJlLiP+HDMTOIPWkuZiFdQDhwMPENc4p8donBCRkQMgxMrsSLy5ZQLwVTTxV81Y7IjLK4Q10DmxGiREZOQACLEynbAc+6HmlInAecCYWA0qOsOxWIHf47fa4G9iNkKIyMgBEGLV/Bh/88gk4GYsx8CwmI0oK2tgyS9cDTcytuJCREQOgBCrZhTu88d92FyUS/Kc6nEWMMLxGi9ixX6EEEKUi9eAlx2vMQKbi3JJno+8DcFKDrtwrwc9hBDFoCfwOSwl7kZYcpa+2IfSUmAO8D720fAa8BJWM0Tkl78Aox1+PxQr1/uOH3VEpRyP+/LNuOhai7zRE1vi27D5b31adapGWwDtsxGWf/0JbJKvpm8+Ae4CTgD6RNZb+GFX3OeRL8dW2hedUivgwHW4dfxsrLLWUj/qiJzRGRv8x2BBO4Ow+hTrAwOB3rRdkatl8F8ILMAqqL2FRRUv//ejcOpXzKa4LXNOxlbbikRn4FAs6+d2nq65CKt4egG2tSjyQUtSIJdUvNcAX/GjjqiUybh5bbdE11ikZDj2kl6DnctdiLvn35G8iz1npwHbAF2Ct3JltAKwIodiKVhD2bwRuBP3+CQRj1txs/mk+CqXm/64v6jHxlZaRGUAcBxwPfaFHnqyr0TmA+OxjJexJgg5AMYQrGpeLFsvwo6ZKd1r9nHdTm4kxycB8sheuL+gOqtZPAZjX9sPUP1+bgqZiCW62ilAX7QgBwC+AHxMGhtPQGNN1hmJu51LX9QnJmfhZqwPyHf8g2ilBxaE9RTpJ3QXeRVLIuI7mKzMDkAn4FzS2/ZjFHCcZTrhXhxIqeQj8gfcjHVnfJWFZzbDCnrMJv0A71PmApcDm3jqp7I6AHXA1aS3Z4ssBA4K2mLhwj242feG+CqXF9cgnrPjqyw8sSXmwDWSflAPKY3Ag9gxJRfK6gBcSHobflaWAHuHbLSomXNws+3E+CqXky647+/uGltp4cw2wJ9JP4inkPuALWrstzI6AGeS3mZtyVws2ZDIFnviZtfF2PFSEZgRuL+Ea0bXWtTKOljOh6J/8XckjdjWV7WnB8rmAOxB9p+VyWgMyhpr427XwbGVLiN742akmfFVFjXQBfg2xdvjd5UlWJnRtpIUfZYyOQBrkp0jnx3JrYH6QNTOLNxsunt8ld3IYzGg4Y6/f8OLFiIkmwDPAv+LZeQTrXQBvgc8D+yYWJescRGW0TEPHAYcmFoJsQKuc0Pujnvm0QEY6vh7OQDZZhx2pM+lQEcZGAk8AlyM1SsoO1sCX0qtRJVcDKyeWgnxKXIAcsBAx9/LAcgug4A70IRWKXXAN7Dc81sm1iU1PyN/uT02BE5MrYT4FNeUvut60SIieXQA1nL8/WQfSoggnIu7fcvIEOAxypveelss+C+PnEH+KkwWFdd4l/5etIjIaqkVqAHXTlYQYDbpAxydWokc0w34LbA9tiqwJK06UfFdia0BKw/8AFbnfTZWW2Iktm/vGoe0POsBBwO/93hNURsfOv4+dw5AHnGN8h0TX2VRAQeSPjK7KPIErcuRRT8F0BOYg59+W4ZVi1y/g3vuBjzj6Z5NwL0uHSC8sQ1udpwcXWNH8rgC4LpEnIUa7WJlUtWcnwq80ixvAe8D04AZtD4rs7Gz5fVAd2y1oh47drYhpvvQ5r+jsTPFKdkeCxD0sSw+GBvcis4s4Ajsq78jHsK2Hc4Dvuvh3nti45rGprS49n8/L1qINqnD3dtWec5scirhv4wXYuV4fwLsS7gSnkOAo7BjaRNIl5hmSnM7U9w7TzIXGLtKS3aMa2GyFjmsxvsLf/TBzYaN8VUuF91wM9DC+CqLCjmUMIP7fCzpylFAr2itWZGBwMnA/djefMzJbWbk++VRXCdf1+JkTcCvHHUQ7vj4wMzjqnpu6I2bcRbEV1lUSH8s+MrXoP5P7IhVj5iNqIC+wCnAS6Sf+CTwt/bNVRHrYWOLix5PetBDuOHDAag0Q6eogbVwM878+CqLKrgVN/s2ALdgwTx5YGfgZtyLW0lqlz07tFJlXOWoxyxPeoja8eEApFplLAWuBRvmxVdZVMHGmI2qtetSrGDQqPgqe2EEcBN+V0AkHcssLLWyD/b3oI9yYKTFhwOgIk8B6YubcebGV1lUyaFUt09+L1Y7oAiMAe4i/cRYFnm4MrNUxAAP+rimORdu+HAAsrblWCi64macpeQvXWgZ2RU7f96eLV8A9kqkX2j2xxLQpJ4giy43VWqQCqjDPcBzc4/6iOrpgZv9Gslndt1c4bpf2ie+yqIG6oETgHuwyXAW5hTcgkVtF/1F6w1cirYFQsqNFVujYzoBix31qfUoovDDYNzspyDzCLjWh0+VcEaIWvg8MJ30k2URxccJgBb6edAnd9XkCsZWuNnPNZVwdPL4FTXb8fcKtBF54mGs0p+Oiflnc/yd2/ZRjdF1bBNuuM4NuYsxy6MDMM3x93IARN6YisVFXJFYj6KxFrCjp2sd6Pj7OeTwC7JguBbzcZ2bopNHB+B9x98r0lbkkSVYNsFzUytSMM7wcI21gf9wvMZrHvQQbrhWeZzqRYuI5NEBcPWyRnrRQog0nAN8L7USBWI/YB/Ha5yHVSV04XnH3wt3Nnb8vevHaXTy6AC4dnJek8UI0cL5yAnwyY1YMqZaOBk4zoMOPgMSRW24OgC52wLII0fhFqn5dnyVhQjCpQ3Nkq4AABIwSURBVKSPpC+KvA9sV0XfdwLOBJZ5uPcyVEo2NZ2xYnEudlRFxwiMwc1IDYQrAytETDoTPnPg29FaUxvdcT8a3CKLgF/QcaDwFsADnu7ZBNzn0gHCC5vibsdNo2tdQupxTwa0f3SthQhDb2Ai5XUAAH6N3zYvAO4E/hM4ABiHfd39N/A0lvHN5/2O8t8lokpOws2GS7BMtSICb+BmrPPjqyxEMMbinoUuzw7AtoRzgELLe9hHjUjL9bjZ8ZX4KruTxyBAcI+Y3cWLFkJkg+eBH6RWIiFPAQ+mVqJGzsecN5GWnRx//6IXLURFfAP35RrFAYgi0Rl4jHKuAIBl4vO9NB9a3gK6hegMURVDcbflKdG1LjFjcTfYMdG1FiIsm+O/eFBeHABwX8aNLfuG6QZRJd/B3Zajo2tdYuqw6nAuBrsrutZChOdayusArEF+yij7rEQo3HgSN1t+RH6303PLn3Ez2iJUGlgUj0HAPMrpAADsRvZLKL8G9ArVAaIqBuG+dXRHdK09kWevZbzj7+uBQ3woIkSGmApclVqJhDwEfDu1Eu3wCXakMHeV4wrKEVhSJxdc5yJRAyNw98Sfja61EOEZgb+AuLytALRwPum/9D8rC4GdQzZaVEUn4HXc7TostuLCeAF3420bXWshwvMXyu0AdAIuIv2k3yJzgb2CtlhUyz6423VCdK3Fp3wfdwNeF11rIcJzAOV2AFo4i/THA2cAW4duqKga1ziyJuz5EonYBHcDLsHOgQpRJLpg+81ldwAA9gCmk2byH48FmolsMRo/waIqL5+YV3A34m+jay1EeG5DDkAL62H5/WNN/AuAs4HVYjROVM0duNv4hehai5U4HXdDLsO9FrQQWeNY3N+Nd2IrHZgDgFcJN/E3Yo7XkFgNElXjK2vkqbEVFyuzJjAfd2PeFltxIQKzLu7vxbToWoenDjgcqyHga+JfBNwEbBaxHaI27sfd3nNRHpnMcDV+XmKVCRZF40Pc3okP4qsclY2Bn2BHgqvdE54P3AecjGqL5IWj8DNXXB5b8RC4JkDICmOB5zxcZwoWHDLPw7WEyAJPANs7/H420NeTLllnLWAbzCnYCFtdXAPbx1+EffW9i50dnwg8gwURi3zQB4sZG+jhWmOAlzxcR3jCVyW0C2IrLkRArsN9qVOIInAVfuaIh2MrLjpmb/wYtwHYM7LuQoTih7i9DwviqyyEd/bHXz6I3SLrLirk7/gx8HQsgEqIvON6SmZRfJWF8Mr6uMfCtMgjkXUXVbAzfozcBDxIvoslCQFwEm7vweL4KgvhjS7AP/A3L+wQV31RLX/Fn7Evjqy7EL45Grd3QEFuIq90An6Dv/ngnrjqi1rYEr/1wM+Iq74QXjkYt+d/aXyVhfCCa/zL8rIMO20mcsAl+DN8I/YVJUQecQ2O1QqAyCNfwd8c0AT8Mq76woXe2Hldn97fMVFbIIQfXB2AhfFVFsKJo7GVK1/j/xSgZ9QWCGcOwa8H2IB5lULkCdctAJ0CEHniJPxuATdh9SNEDvFd/asRxQSIfPFl3J/7+uhaC1E938HfWf8WuTVqC4RXBgBT8ftANGFFP1aP2A4hauV7uD/vPlKnChGKevxG+7fIu0C/iO0QAfg8tofv++F4Cg2MIvtcjvuzPia61kJUxiD8VnVskaXAuIjtEAH5Pv4fkCZgJrbHKkRWuQf353z36FoL0TGHYNUqQ4ztZ0VshwhMHX5qQLclf0DlQEU2eRn35/vY2EoL0Q69gV8Tbjz/G9A5WmtEFPphZTxDPTSTgUNjNSZjdAVGAMOBHol1Ea3UYaWtXZ/tH8VWXKySnliZ4mFYieIychh2LC/UOP4qVgZaFJChWKGfUA9PE1ZDYNNYDUpIF+AIrL3Lx1g0YAUzjke1FFKzMX6e6RtiKy4+pTNwIvA4Kx5vWwLcBexHOd6z0diXecixexowOFJ7RCK2xs9XUXuyFLgacziKxgDgHCo7XTEB2DCNmgI/RwCbgCdjKy4AGz+eo2P7vAl8G+ibRs2gDAOuwW9in1XJHOBzkdokErMf4R+oFkfgWmzZLu9sDfwOSwxTTR+8AwxJoK+AC/HzHM9De6KxGQa8R/V2+hX2tZx3RmLjTYxxegmwV5xmiaywP5bmNPTD1YQt3T0AHI4tneeFDYDTgGdxa//jlGOZMms8jr9neFRk3ctMHbaN5mKvicAPyNcqZGdgDyyoOsTR7VXJYnSSq7TsSzwnoEXeBy4AtsPKVWaNUcC38FtDuwm9ZLHpjt9n+6i46peaQ/FntwZgPPB1bFUha9QB2wM/x/bgY47FC9CXf+nZjfAxAW3Je8Cl2JZEn9ANbYO1sJWJqwgbXXt7rAYJwJ4pn/a7MK76peaPhHsP38SSQ32BdDEDfbHn8zLCZGqtROZiSeJKTRa/QFOwA/AnoH9CHRqBl7ClvwnAK8BrmHPiiwHAZsCWzbIV8ZYI52PHa1ReNg6XYl99vngB1UOPQVfgY+Icp21xCCYA/2yWl4EPPd6jJ7aquAk23uyMjUEptwRnYg5Q6YNb5QC0MhhzAjZPrMfyNGFBdG9hWwcfYMtk02kt07oA28cCS0bUC0uU0QtYG2vXYCwQr3sctdtkHPBYYh3Kwr/w69w1Yg7kRx6vKVZmHPYRkJJ5WF6Tt5v/zsS+mOc0//2k+f91o7UmSndgnWYZgKVJH4LFEWVpnnkO246ckloRkT16YNWfUixJlUHOqdwUwoFRhLFfWRNdxeR/SP+eFlVuIf1HUKZQZPaKzAe+iE1UyxLrUkT2TK1ASfj3QNc9MNB1RSv/llqBArIMOBs4ElsxFaJDtiVs6uAySgOwbjVGEFVTh20bhbDfLPJ1jDVvrMOK2f4k7vIWsFM1RigTWgFom6ewQLkrUytSIOrQV2Ro9gTWD3TtvlgQlwjDwWhM9kUTlhRpMxR3JBzZj7BH5MokD1bZ96I6bias/X4Xryml4yHSv59FkLeBfarseyHaZXUss9YC0j/geZZGspmQpAish50ICWm/edgpE+GXodi7kfr9zLMsAH6GHT0UIghDgDtI/7DnWX5cda+LSvg/4tjvxFgNKhE/Jf17mWe5DRUeExHZhfDlKYsqU7GEJ8If/YiX0fIlsnW2O+/UEz8NblHkASx3ghBJ2AG4m/QvQt7kuFo6W7TJj4lrP+2x+uOrpH8f8yaPoVS+IkNshwVgVVsut6zyCop49sUALDtbTPs9FKVlxacOS/md+n3MgywCbgS2qamnhYhAf+AMYBLpX5gQshC4Fz8BS0fW2MdiRa4mzbOwe4zGFZyjcbdDI/ZOxq5sGkteB07HtrmEyAWdsEqDvwZmkP4lcpH5WIrkI2mNsB3v4bpvolgAV7YmXfKYp1EsgAv1WKIaVzu0rMb0wt7R27B3NvW44SLTgCuAXdEzJnJOZyxo8CLCZWnzLS9jJWAPYNX5s7/k6T6nVtmXopVOWEWzlM/JEcFbWVxOJ5wNumNJty7GtttSjyeVyGTsJMs4tD0oCsxGwAnAdWQjwdASrBToFVge+UrS9XbDyoa63ntWhfcTK3MK6Z+dqSgvQC0MAmbj3v8zqGwVbRBwDHAVVhFviYd7u8rbWGKp44HhlXWb8ImWVrLBBlit7E2B0c0yAv951xuwFYhJ2PL7y1gt8BdpLSlcDecC/+VBr1uxIkyicjbGbJeF6maXoJWcavkjlvrXlR9iCcqqpRswltZxZzg25qyP/6/vpcAb2HjzEjAR++B41/N9RJXIAcguXYHBwNpYbe2WOttrAathX11dsRLGS7Ez4GCBQPOxr/MPmv/OAN7H9huXeNRxALZst3oH/68SDsESLImO6Qr8A9gitSLNNGDxLqnr2OeFL2KlaV1ZgCW/+dDDtVqoxzJ1DsTe7/5Y8F0/bKzp1vz/emHj0Dxs/JmNVd37GBtvpmP7+DOwMcLnuCOEyAiX42c58CMsla3omAvwtww7x9N1pmDFgkT7bIhte/no84sj6y6EECswGH+5D8ZjXxWibY7EX874N7HgVF/XuxWtKrZHF+Bx/PT1QsJVfRRCiIq5EH9fpJdE1j1PbIPf410te9C3e7ymj5iQovIr/PXzBZF1F0KIVdIff0vJTcDX4qqfC4ZhMR2++nj8ctceie3j+rhuA3CQ99bnn6/jz3azgDXjqi+EEG1zFv4GuGXAoXHVzzQDsWxovvp3CbDZZ+5xmcfrLwB29tkBOedw7Jn21b/fiau+EEK0T1f85jRfDOwVtQXZZAP8p5VeVTnmPthJEV/3mI0dMSs7+2LPsq9+fRn/x4OFEMKZXfAXUNaEBRceErUF2WIw8C/8Tv6v03qU67N80fO9ZgE7OvdCfjkAv/n5G1EFPCFEhvkdfieRpVh2wrKxGfAe/vty+w7ue4/ne84H9q69G3LLMfiLq2iRa6K2QAghqqQP/tMbNwI/ozz5wY/AEqz47MMmKovQH4TfYMMmbP/7zJp6In90wjLz+VwJa8LS5irlshAi8+yO/wGwCcsU2CdiO2KzGvAL/PdbE1YxrlIH6qBAOlyFn6yRWaUvcCf++60BBVUKIXLEeYSZRN6m42XsPDIEeJgwfTYN+7KvBp9n1peXl4AxVeqSB3bEUt6G6LMfxWuGEEK40xn76gwxIC4FfkoxviY7A98kzJJ/ExZIuUMNeq2OFWwJodNC4GyKEc3eHdue8r3f3yJ/pTxbX0KIArE2VvErxMDYhB2Py/NRwc2woj6h+qcJKztdK+tjqwehdHsZq/2eV/bF/ymN5WUKVoRHCCFyyVj8Zgls6ytp81gN8sBGwPX4TQ6zKvm5B113wF+th7bkDmCUB11jMRZ4gLB98glWFlwIIXLNPoRbIm2RBqzG+taR2lQLw4BrCd8XTcBv8VeY52isf0PquxS4kWw7ctsAfyJMgOvysgTYI1KbhBAiOMcRfhJpkfHAUVht89R0BQ4D7iX8F3+L/An/VRVPiaR7I3A/lgo6CzEC9ZgD9Ahx2t9AOfNeCCEKztcI//W0vHwAXInFCcScTDpjJxV+Ccz00I5q5M+0nenPFZ/1HiqRacBF2BG4mIFwXbDkRVfiPydCe9IIfCVC+4QQIgnfIK4T0CJzgLuB07Ac9V09t2sj4GRsG2JWgvY1YWV9fbfrs5yTqG0zsC2CE4AR+NveAOuzrbBn425gboL2NWIVA4WIhs+XSIhKORZLCuN7mboalgAvAq9i+fHfBqZiX3wfYnvSc7Al2TWaf7MWFpW9Nha0tkmzjAJ6RtR9VdyI9euyCPc6FbiQtOPHbOBZzH5vYtH4MzHbfdT8f2ZhqzG9sa/6fljp6kHAUKwM8igsL0Fox6k9lmKOzfUJdRBCiGh8ASsbm+JrsmjyE+JPxscQJ5ix6DIf2L/KvhdCiNyzBfAO6QfhvMpS4KSqe90fOxM/xqFIMpVsn1oRQoigDAKeIf1gnDeZSjaS6AwHXiF9f+RNngTWraG/hRCiUNQDF5MmODCP8iAwoKaeDkNv4BbS90sepBE7HZIy5kAIITLHwVgAV+pBOquyBIvC71xrBwfmeMLVNCiCfAAcUHPvCiFEwVkHO0qXerDOmjxLtrPktTASeIL0/ZU1uZVsrdoIIURmOQJ4n/QDd2qZT/4q59VhmQM/IX3/pZb3gMPdulMIIcpHL+B8YDHpB/LY0gjcjFXkyysDgZsoZ2zHIqxkder8EEIIkWuGY4luYtUSSC2PAzt56blssBXwEOn7NYY0ANdhiYaEEEJ4YjS2l1pUR+ARil0Fbh/gUdL3cwhZhp2E2MRbbwkhhFiJYcBlFCPifBkW9Lirzw7KODthOfeLsDUwD7gEffELIURU+mDBZs+RfiKoVqZhe8QbeO+V/DAMOA/ri9T2qFaexYo/9fHeK0IIIapicywn/iTSTw5tycfA1cDuZPcsfwq6AAcBN2BFflLbqS15AziXfBzHFEKIUrIFdnTuYdKeIGjEVifOB3ZD2d8qoR4rjnM5VqUx5YS/GAtePAsYG7LRQqRA5YBF0ekB7AhsixVe2QYr5xuCOcAE4OlmeRKYHuheZWE9zHnaCvgcNhH3CHSv6VhdiqeBp7CERvMD3UuI5MgBEGWkH1YHfiS2Dz0Qy9I2EMs90Bd7N9bAvgQ/af7dIqze/ExgBpaoaBJWj34SlvSlKVYjSkpnYAhmt2FY8N26mFM3ALNtt+b/u0bz31m02nEOFnMwE7Pfm9hKw+uYbYUoDf8Pd12Ilxj6w0sAAAAASUVORK5CYII=;align=left;" vertex="1" parent="1">
          <mxGeometry x="35" y="828.75" width="120" height="52.5" as="geometry" />
        </mxCell>
      </root>
    </mxGraphModel>
  </diagram>
</mxfile>
